<svg viewBox="0 0 330 200" xmlns="http://www.w3.org/2000/svg"><g><g><g><g><g><line x1="30.78125" y1="178" x2="25.78125" y2="178" style="visibility: inherit;" fill="rgb(0, 0, 0)" stroke="rgb(204, 204, 204)" stroke-width="1px"></line><line x1="30.78125" y1="165.28571428571428" x2="25.78125" y2="165.28571428571428" style="visibility: inherit;" fill="rgb(0, 0, 0)" stroke="rgb(204, 204, 204)" stroke-width="1px"></line><line x1="30.78125" y1="152.57142857142858" x2="25.78125" y2="152.57142857142858" style="visibility: inherit;" fill="rgb(0, 0, 0)" stroke="rgb(204, 204, 204)" stroke-width="1px"></line><line x1="30.78125" y1="139.85714285714286" x2="25.78125" y2="139.85714285714286" style="visibility: inherit;" fill="rgb(0, 0, 0)" stroke="rgb(204, 204, 204)" stroke-width="1px"></line><line x1="30.78125" y1="127.14285714285714" x2="25.78125" y2="127.14285714285714" style="visibility: inherit;" fill="rgb(0, 0, 0)" stroke="rgb(204, 204, 204)" stroke-width="1px"></line><line x1="30.78125" y1="114.42857142857142" x2="25.78125" y2="114.42857142857142" style="visibility: inherit;" fill="rgb(0, 0, 0)" stroke="rgb(204, 204, 204)" stroke-width="1px"></line><line x1="30.78125" y1="101.71428571428571" x2="25.78125" y2="101.71428571428571" style="visibility: inherit;" fill="rgb(0, 0, 0)" stroke="rgb(204, 204, 204)" stroke-width="1px"></line><line x1="30.78125" y1="89" x2="25.78125" y2="89" style="visibility: inherit;" fill="rgb(0, 0, 0)" stroke="rgb(204, 204, 204)" stroke-width="1px"></line><line x1="30.78125" y1="76.28571428571429" x2="25.78125" y2="76.28571428571429" style="visibility: inherit;" fill="rgb(0, 0, 0)" stroke="rgb(204, 204, 204)" stroke-width="1px"></line><line x1="30.78125" y1="63.57142857142856" x2="25.78125" y2="63.57142857142856" style="visibility: inherit;" fill="rgb(0, 0, 0)" stroke="rgb(204, 204, 204)" stroke-width="1px"></line><line x1="30.78125" y1="50.857142857142854" x2="25.78125" y2="50.857142857142854" style="visibility: inherit;" fill="rgb(0, 0, 0)" stroke="rgb(204, 204, 204)" stroke-width="1px"></line><line x1="30.78125" y1="38.142857142857146" x2="25.78125" y2="38.142857142857146" style="visibility: inherit;" fill="rgb(0, 0, 0)" stroke="rgb(204, 204, 204)" stroke-width="1px"></line><line x1="30.78125" y1="25.428571428571438" x2="25.78125" y2="25.428571428571438" style="visibility: inherit;" fill="rgb(0, 0, 0)" stroke="rgb(204, 204, 204)" stroke-width="1px"></line><line x1="30.78125" y1="12.714285714285708" x2="25.78125" y2="12.714285714285708" style="visibility: inherit;" fill="rgb(0, 0, 0)" stroke="rgb(204, 204, 204)" stroke-width="1px"></line><line x1="30.78125" y1="0" x2="25.78125" y2="0" style="visibility: inherit;" fill="rgb(0, 0, 0)" stroke="rgb(204, 204, 204)" stroke-width="1px"></line></g><g transform="translate(20.78125, 0)"><text x="0" y="178" dx="0em" dy="0.3em" style="text-anchor: end; visibility: hidden; font-family: Roboto, sans-serif; font-size: 12px; font-weight: 200;" fill="rgb(50, 49, 63)" stroke="none" stroke-width="1px">-4</text><text x="0" y="165.28571428571428" dx="0em" dy="0.3em" style="text-anchor: end; visibility: inherit; font-family: Roboto, sans-serif; font-size: 12px; font-weight: 200;" fill="rgb(50, 49, 63)" stroke="none" stroke-width="1px">-2</text><text x="0" y="152.57142857142858" dx="0em" dy="0.3em" style="text-anchor: end; visibility: hidden; font-family: Roboto, sans-serif; font-size: 12px; font-weight: 200;" fill="rgb(50, 49, 63)" stroke="none" stroke-width="1px">0</text><text x="0" y="139.85714285714286" dx="0em" dy="0.3em" style="text-anchor: end; visibility: inherit; font-family: Roboto, sans-serif; font-size: 12px; font-weight: 200;" fill="rgb(50, 49, 63)" stroke="none" stroke-width="1px">2</text><text x="0" y="127.14285714285714" dx="0em" dy="0.3em" style="text-anchor: end; visibility: hidden; font-family: Roboto, sans-serif; font-size: 12px; font-weight: 200;" fill="rgb(50, 49, 63)" stroke="none" stroke-width="1px">4</text><text x="0" y="114.42857142857142" dx="0em" dy="0.3em" style="text-anchor: end; visibility: inherit; font-family: Roboto, sans-serif; font-size: 12px; font-weight: 200;" fill="rgb(50, 49, 63)" stroke="none" stroke-width="1px">6</text><text x="0" y="101.71428571428571" dx="0em" dy="0.3em" style="text-anchor: end; visibility: hidden; font-family: Roboto, sans-serif; font-size: 12px; font-weight: 200;" fill="rgb(50, 49, 63)" stroke="none" stroke-width="1px">8</text><text x="0" y="89" dx="0em" dy="0.3em" style="text-anchor: end; visibility: inherit; font-family: Roboto, sans-serif; font-size: 12px; font-weight: 200;" fill="rgb(50, 49, 63)" stroke="none" stroke-width="1px">10</text><text x="0" y="76.28571428571429" dx="0em" dy="0.3em" style="text-anchor: end; visibility: hidden; font-family: Roboto, sans-serif; font-size: 12px; font-weight: 200;" fill="rgb(50, 49, 63)" stroke="none" stroke-width="1px">12</text><text x="0" y="63.57142857142856" dx="0em" dy="0.3em" style="text-anchor: end; visibility: inherit; font-family: Roboto, sans-serif; font-size: 12px; font-weight: 200;" fill="rgb(50, 49, 63)" stroke="none" stroke-width="1px">14</text><text x="0" y="50.857142857142854" dx="0em" dy="0.3em" style="text-anchor: end; visibility: hidden; font-family: Roboto, sans-serif; font-size: 12px; font-weight: 200;" fill="rgb(50, 49, 63)" stroke="none" stroke-width="1px">16</text><text x="0" y="38.142857142857146" dx="0em" dy="0.3em" style="text-anchor: end; visibility: inherit; font-family: Roboto, sans-serif; font-size: 12px; font-weight: 200;" fill="rgb(50, 49, 63)" stroke="none" stroke-width="1px">18</text><text x="0" y="25.428571428571438" dx="0em" dy="0.3em" style="text-anchor: end; visibility: hidden; font-family: Roboto, sans-serif; font-size: 12px; font-weight: 200;" fill="rgb(50, 49, 63)" stroke="none" stroke-width="1px">20</text><text x="0" y="12.714285714285708" dx="0em" dy="0.3em" style="text-anchor: end; visibility: inherit; font-family: Roboto, sans-serif; font-size: 12px; font-weight: 200;" fill="rgb(50, 49, 63)" stroke="none" stroke-width="1px">22</text><text x="0" y="0" dx="0em" dy="0.3em" style="text-anchor: end; visibility: hidden; font-family: Roboto, sans-serif; font-size: 12px; font-weight: 200;" fill="rgb(50, 49, 63)" stroke="none" stroke-width="1px">24</text></g><line x1="30.78125" y1="0" x2="30.78125" y2="178" fill="rgb(0, 0, 0)" stroke="rgb(204, 204, 204)" stroke-width="1px"></line></g></g><g transform="translate(30, 0)" clip-path="url(#clip_0)"><clipPath id="clip_0"><rect width="299" height="178"></rect></clipPath><g><g><g><line x1="0" y1="0" x2="0" y2="178" fill="rgb(0, 0, 0)" stroke="rgb(60, 60, 60)" stroke-width="1px" opacity="0.25"></line><line x1="29.921875" y1="0" x2="29.921875" y2="178" fill="rgb(0, 0, 0)" stroke="rgb(60, 60, 60)" stroke-width="1px" opacity="0.25"></line><line x1="59.84375" y1="0" x2="59.84375" y2="178" fill="rgb(0, 0, 0)" stroke="rgb(60, 60, 60)" stroke-width="1px" opacity="0.25"></line><line x1="89.765625" y1="0" x2="89.765625" y2="178" fill="rgb(0, 0, 0)" stroke="rgb(60, 60, 60)" stroke-width="1px" opacity="0.25"></line><line x1="119.6875" y1="0" x2="119.6875" y2="178" fill="rgb(0, 0, 0)" stroke="rgb(60, 60, 60)" stroke-width="1px" opacity="0.25"></line><line x1="149.609375" y1="0" x2="149.609375" y2="178" fill="rgb(0, 0, 0)" stroke="rgb(60, 60, 60)" stroke-width="1px" opacity="0.25"></line><line x1="179.53125" y1="0" x2="179.53125" y2="178" fill="rgb(0, 0, 0)" stroke="rgb(60, 60, 60)" stroke-width="1px" opacity="0.25"></line><line x1="209.453125" y1="0" x2="209.453125" y2="178" fill="rgb(0, 0, 0)" stroke="rgb(60, 60, 60)" stroke-width="1px" opacity="0.25"></line><line x1="239.375" y1="0" x2="239.375" y2="178" fill="rgb(0, 0, 0)" stroke="rgb(60, 60, 60)" stroke-width="1px" opacity="0.25"></line><line x1="269.296875" y1="0" x2="269.296875" y2="178" fill="rgb(0, 0, 0)" stroke="rgb(60, 60, 60)" stroke-width="1px" opacity="0.25"></line><line x1="299.21875" y1="0" x2="299.21875" y2="178" fill="rgb(0, 0, 0)" stroke="rgb(60, 60, 60)" stroke-width="1px" opacity="0.25"></line></g><g><line x1="0" y1="178" x2="299.21875" y2="178" fill="rgb(0, 0, 0)" stroke="rgb(60, 60, 60)" stroke-width="1px" opacity="0.25"></line><line x1="0" y1="165.28571428571428" x2="299.21875" y2="165.28571428571428" fill="rgb(0, 0, 0)" stroke="rgb(60, 60, 60)" stroke-width="1px" opacity="0.25"></line><line x1="0" y1="152.57142857142858" x2="299.21875" y2="152.57142857142858" fill="rgb(0, 0, 0)" stroke="rgb(60, 60, 60)" stroke-width="1px" opacity="0.25"></line><line x1="0" y1="139.85714285714286" x2="299.21875" y2="139.85714285714286" fill="rgb(0, 0, 0)" stroke="rgb(60, 60, 60)" stroke-width="1px" opacity="0.25"></line><line x1="0" y1="127.14285714285714" x2="299.21875" y2="127.14285714285714" fill="rgb(0, 0, 0)" stroke="rgb(60, 60, 60)" stroke-width="1px" opacity="0.25"></line><line x1="0" y1="114.42857142857142" x2="299.21875" y2="114.42857142857142" fill="rgb(0, 0, 0)" stroke="rgb(60, 60, 60)" stroke-width="1px" opacity="0.25"></line><line x1="0" y1="101.71428571428571" x2="299.21875" y2="101.71428571428571" fill="rgb(0, 0, 0)" stroke="rgb(60, 60, 60)" stroke-width="1px" opacity="0.25"></line><line x1="0" y1="89" x2="299.21875" y2="89" fill="rgb(0, 0, 0)" stroke="rgb(60, 60, 60)" stroke-width="1px" opacity="0.25"></line><line x1="0" y1="76.28571428571429" x2="299.21875" y2="76.28571428571429" fill="rgb(0, 0, 0)" stroke="rgb(60, 60, 60)" stroke-width="1px" opacity="0.25"></line><line x1="0" y1="63.57142857142856" x2="299.21875" y2="63.57142857142856" fill="rgb(0, 0, 0)" stroke="rgb(60, 60, 60)" stroke-width="1px" opacity="0.25"></line><line x1="0" y1="50.857142857142854" x2="299.21875" y2="50.857142857142854" fill="rgb(0, 0, 0)" stroke="rgb(60, 60, 60)" stroke-width="1px" opacity="0.25"></line><line x1="0" y1="38.142857142857146" x2="299.21875" y2="38.142857142857146" fill="rgb(0, 0, 0)" stroke="rgb(60, 60, 60)" stroke-width="1px" opacity="0.25"></line><line x1="0" y1="25.428571428571438" x2="299.21875" y2="25.428571428571438" fill="rgb(0, 0, 0)" stroke="rgb(60, 60, 60)" stroke-width="1px" opacity="0.25"></line><line x1="0" y1="12.714285714285708" x2="299.21875" y2="12.714285714285708" fill="rgb(0, 0, 0)" stroke="rgb(60, 60, 60)" stroke-width="1px" opacity="0.25"></line><line x1="0" y1="0" x2="299.21875" y2="0" fill="rgb(0, 0, 0)" stroke="rgb(60, 60, 60)" stroke-width="1px" opacity="0.25"></line></g></g></g><g><g><line x1="0" y1="152.57142857142858" x2="299.21875" y2="152.57142857142858" fill="rgb(0, 0, 0)" stroke="rgb(153, 153, 153)" stroke-width="1.5px"></line></g></g><g><g><line x1="29.921875" y1="0" x2="29.921875" y2="178" fill="rgb(0, 0, 0)" stroke="rgb(153, 153, 153)" stroke-width="1.5px"></line></g></g><g><g><g><g><g><path stroke="rgb(0, 119, 187)" stroke-width="2px" d="M30.258915000000002,136.3332553591047L30.595955,133.50093023691858L30.932995000000002,130.24769717124738L31.270035,126.56690919612136L31.607075000000002,122.41840515588643L31.944115,117.76806904351544L32.281155,112.57276326194403L32.618195,106.66712108814251L32.955235,99.98809584232652L33.292275000000004,92.76775973955024L33.629315,84.96664027448632L33.966355,76.77465854304297L34.303395,68.47865869492803L34.640435,60.19652666831671L34.977475,52.185461596140264L35.314515,45.99681450650901L35.651555,41.380800953960374L35.988595,37.965984879439105L36.325635,35.50336375842606L36.662675,33.60038067491579L36.999715,32.12554639337952L37.336755,30.929411147990766L37.673795,29.85618503152798L38.010835,28.619519411704406L38.347875,27.248864634541285L38.684915,26.0681228971406L39.021955,24.969598537765936L39.358995,24.108225017819613L39.696034999999995,23.554065044632218L40.033075,23.219779498531814L40.370115,23.019208218168746L40.707155,22.898865466977853L41.044194999999995,22.826659822393058L41.381235,22.78333643784885L41.718275,22.757342407916738L42.055315,22.741745990243494L42.392354999999995,22.73238813974248L42.729395,22.726773429478932L43.066435,22.72340460333413L43.403475,22.721383307652047L43.740514999999995,22.720170530244573L44.077555,22.719442863800698L44.414595,22.719006263934595L44.75163499999999,22.718744304015015L45.088674999999995,22.7185871280633L45.425715,22.71849282249225L45.762755,22.718436239149675L46.09979499999999,22.7184022891441L46.436834999999995,22.71838191914076L46.773875,22.718369697138748L47.110915,22.71836236393753L47.44795500000001,22.718357964016818L47.784995,22.718355324064397L48.122035000000004,22.718353740092912L48.459075000000006,22.71835278971004L48.796115,22.718352219480316L49.133155,22.7183518773425L49.470195000000004,22.71835167205978L49.807235000000006,22.71835154889014L50.144275,22.7183514749884L50.481315,22.71835143064732L50.818355000000004,22.718351404042707L51.155395000000006,22.718351388079917L51.492435,22.71835137850226L51.829475,22.718351372755638L52.166515000000004,22.718351369307687L52.503555000000006,22.718351367238885L52.840595,22.718351365997655L53.177635,22.764747566250378L53.514675000000004,25.128298863672505L53.851715,30.10257768071745L54.188755,41.18476375516769L54.525795,57.47532819001645L54.862835000000004,76.9475859608151L55.199875,95.20734748364589L55.536915,109.55428301253292L55.873955,119.7252217400999L56.210995000000004,126.41503206221135L56.548035,130.11316545630788L56.885075,130.46734235523178L57.222115,130.31980020051876L57.559155000000004,129.13816930542652L57.896195,126.95197787611131L58.233235,122.4140573970753L58.570275,118.1296565637073L58.907315,113.47704595783411L59.244355,109.10023645095605L59.581395,105.90073376445092L59.918435,106.18717854264533L60.255475,106.74997559896714L60.592515,105.21365423711816L60.929555,101.88395872966626L61.266595,99.68403227907694L61.603635,100.2875253528152L61.940675,102.67246961243285L62.277715,105.0146442664788L62.614755,105.62766820781468L62.951795,104.33243873302536L63.288835,102.74632973848989L63.625875,102.33986820464004L63.962914999999995,104.1572768618317L64.299955,105.94286116453205L64.636995,107.64192212943126L64.974035,108.36592971024106L65.311075,108.7651284857821L65.648115,109.3467215186325L65.98515499999999,108.16639361042444L66.322195,106.43469283990403L66.659235,103.9722424116189L66.996275,103.0977421008279L67.333315,101.95465587734418L67.670355,99.79384049186932L68.007395,98.90041765048572L68.34443499999999,99.12455643527957L68.68147499999999,98.14903509037221L69.018515,97.81261806480855L69.355555,98.30216873164636L69.692595,98.81032029503551L70.029635,99.51867290735055L70.366675,99.86990209885894L70.703715,99.85476247862339L71.04075499999999,100.64550876171889L71.37779499999999,100.11874969760052L71.714835,98.94659316856206L72.051875,97.75954392146195L72.388915,98.30758040473962L72.725955,97.88580333273984L73.062995,97.2478052799784L73.400035,97.61197994925445L73.737075,98.71994978312517L74.074115,99.18527555028629L74.41115500000001,98.43919548044906L74.74819500000001,96.98582757247527L75.085235,96.70320978942198L75.422275,97.70901601167982L75.759315,99.21413614117014L76.096355,100.45336363344563L76.43339499999999,100.81492567692842L76.770435,99.8378518687338L77.107475,97.86177800269256L77.444515,97.03288147381316L77.781555,98.08529598263297L78.118595,98.1926703514642L78.45563499999999,98.49437472849152L78.792675,99.97437942999042L79.12971499999999,101.48807256123173L79.466755,101.9581945188601L79.803795,102.89772262006414L80.140835,103.14619776249434L80.477875,102.95871517358809L80.814915,103.337452552225L81.15195499999999,106.25145018701389L81.488995,108.55244420616323L81.82603499999999,109.66334754274527L82.163075,110.69062655510533L82.500115,111.05740097709571L82.837155,111.33496131968202L83.174195,110.64650226090798L83.511235,109.78274806838473L83.84827499999999,107.12109025164051L84.185315,105.16262133368869L84.52235499999999,103.21068007277007L84.859395,100.62400680072467L85.19643500000001,100.40545953087424L85.533475,101.31554053971335L85.87051500000001,101.14682889601515L86.207555,100.42565534825536L86.544595,100.85495490023739L86.881635,101.64907255115232L87.218675,103.05009511913133L87.55571499999999,103.5320705368152L87.89275500000001,103.16561601637272L88.229795,102.8052257695788L88.56683500000001,102.31560518395014L88.903875,103.38827030859483L89.240915,104.46173265918208L89.577955,105.1463715820728L89.914995,105.13870155576747L90.25203499999999,104.90998420915193L90.58907500000001,104.73819794366044L90.926115,103.7243812720818L91.26315500000001,102.71809809962255L91.600195,101.8760202160183L91.937235,100.4876014778863L92.274275,99.34301279211854L92.611315,98.0951012641819L92.94835499999999,96.6513983308794L93.28539500000001,95.60084552165996L93.622435,93.95863189882886L93.95947500000001,92.18602576775889L94.296515,92.10248604541573L94.633555,93.24628594422244L94.970595,92.47489774255014L95.307635,90.16041455626181L95.64467499999999,87.4444591230306L95.98171500000001,85.22001924670654L96.318755,82.59484154658523L96.655795,79.97626661465769L96.992835,77.57600660532154L97.329875,75.91493270726377L97.66691499999999,74.56196738781217L98.003955,73.8341630888937L98.34099499999999,72.60853653763623L98.67803500000001,73.87711418637568L99.015075,75.50229180436692L99.352115,75.34676379482194L99.689155,75.52610590938305L100.026195,76.25589849283442L100.36323499999999,76.22507104542512L100.700275,77.04021963465776L101.03731499999999,77.09453719592092L101.37435500000001,77.0521764790603L101.711395,77.33623134280204L102.048435,78.54578201966174L102.385475,77.75131175090316L102.722515,77.19990871649648L103.05955499999999,76.94364469060868L103.396595,76.19750776773435L103.73363499999999,76.15498482857448L104.07067500000001,76.79183430818159L104.407715,77.2113553587301L104.744755,79.36184197260589L105.081795,81.72408940379582L105.418835,82.99042225385847L105.75587499999999,84.16871899497168L106.092915,84.17299296423504L106.42995499999999,86.0225199748388L106.766995,87.56957590942024L107.104035,88.99098857347546L107.441075,89.51372521326427L107.77811499999999,88.8073467667089L108.115155,88.45717839672142L108.45219499999999,88.87314478151953L108.789235,89.29415678054151L109.12627499999999,88.38028462400642L109.463315,88.34668464464309L109.80035500000001,88.04873674002421L110.137395,86.82197210295705L110.47443500000001,85.78386755306887L110.811475,84.90769543701884L111.148515,84.8658614747706L111.485555,85.13922263001443L111.822595,85.14030455666379L112.159635,86.71761457734718L112.49667500000001,89.79099188897771L112.833715,91.20891383935412L113.17075500000001,91.35128102434176L113.507795,92.06519137461484L113.844835,92.76031816557177L114.181875,92.64030219477065L114.518915,92.7096758923629L114.855955,92.88980484768231L115.19299500000001,93.31769881022944L115.530035,93.31379727773226L115.867075,92.99606549890252L116.204115,93.88244298957066L116.541155,95.16079192420068L116.87819499999999,96.32782180260041L117.215235,96.62783490764492L117.552275,98.06284157721635L117.88931500000001,99.41357625043312L118.226355,99.84245122467742L118.563395,98.93392979329558L118.900435,97.17928310682103L119.237475,95.88852419780669L119.57451499999999,94.52886851539684L119.911555,93.41727871160279L120.248595,91.70068959612844L120.58563500000001,89.72953006670679L120.922675,88.94544590824043L121.259715,89.58832963295696L121.596755,90.10854870925242L121.933795,90.5298659460453L122.27083499999999,90.8858618872247L122.607875,90.20011958529416L122.944915,88.60031355393703L123.28195500000001,87.82707206420339L123.618995,87.87944132267208L123.956035,87.61148709846512L124.293075,88.22912166080376L124.630115,89.75672887983535L124.96715499999999,91.05720164653088L125.304195,91.77047369133999L125.641235,92.3823338821624L125.978275,91.93977905789153L126.315315,91.14879439418142L126.652355,90.43261451296497L126.98939499999999,89.81597587330631L127.326435,88.83735659637149L127.66347499999999,87.84600311383748L128.000515,86.80857437087468L128.33755499999998,85.73082712091174L128.674595,84.41986820662035L129.01163499999998,82.43056374187817L129.34867500000001,80.50757710403106L129.685715,79.7402059162185L130.022755,80.2723786581557L130.359795,79.47321181163623L130.696835,78.3026091036269L131.033875,78.33847622223823L131.370915,78.35127598646444L131.707955,78.56383925695259L132.044995,78.64915454228715L132.382035,79.09229848970683L132.719075,80.30726265509468L133.056115,81.53110324757165L133.393155,82.01658942351858L133.73019499999998,82.41265089030848L134.067235,82.60882656149396L134.404275,83.09773309793327L134.741315,83.56316152842027L135.07835500000002,83.75263083101873L135.415395,85.40933287897363L135.75243500000002,88.2552396036136L136.089475,89.94643632547034L136.426515,89.9523546694277L136.763555,89.70260841497276L137.100595,89.29532867835204L137.437635,88.95050767759226L137.774675,89.85755313626204L138.111715,90.14551488019646L138.448755,90.06490978871358L138.785795,89.72285528942689L139.122835,90.50913889387097L139.459875,91.65604992785788L139.796915,92.65804507098126L140.133955,92.14906536198573L140.47099500000002,89.89131705641613L140.808035,88.30089185302518L141.14507500000002,86.43907106915154L141.482115,85.44607121858704L141.819155,84.61266901986596L142.156195,83.84437510990888L142.493235,83.89316283580791L142.830275,85.70534020527765L143.167315,86.67977959858686L143.504355,86.48512916618685L143.841395,86.25401441878822L144.178435,84.72961191142221L144.515475,84.01544021421871L144.85251499999998,83.32314913611701L145.189555,83.17281630378761L145.526595,83.13392597197856L145.86363500000002,83.12723009272607L146.200675,82.97795404314085L146.537715,83.49236112086568L146.874755,84.06788052553803L147.211795,83.99466118646016L147.548835,84.7065569690521L147.885875,85.01471141510001L148.222915,85.57975125374925L148.559955,86.22815187355256L148.896995,86.92380197138671L149.234035,87.12200805377755L149.571075,87.11101894533851L149.90811499999998,87.51713632404254L150.245155,87.92258234025421L150.582195,87.51899494989402L150.919235,87.09925070136428L151.256275,86.30615798329241L151.59331500000002,86.04438400767914L151.930355,86.61286046463992L152.267395,87.04087495166168L152.604435,86.91351572744057L152.941475,85.85243710152085L153.278515,84.99986037688802L153.615555,84.67849948026577L153.95259499999997,84.61844271772662L154.289635,85.67041315391653L154.626675,86.65686634632941L154.96371499999998,86.86836798546229L155.30075499999998,87.03355092738575L155.637795,87.03112595808636L155.974835,86.71214849159115L156.311875,86.29501340460348L156.648915,86.7613247323896L156.98595500000002,86.69403729287266L157.322995,85.71453219322846L157.660035,85.0165108405517L157.997075,84.42730378543278L158.334115,83.55759150304506L158.671155,83.02486107487913L159.008195,82.8231048653603L159.345235,82.37027901658469L159.682275,82.32593992756381L160.019315,82.48232161645039L160.35635499999998,82.5570630018265L160.693395,82.71870830476674L161.030435,82.97411722093203L161.367475,83.7220691332184L161.704515,83.59627382093446L162.04155500000002,83.49779496272669L162.37859500000002,83.68240410580113L162.715635,84.5899222488549L163.052675,85.03785036774558L163.38971500000002,85.21857037493551L163.726755,85.1145406624613L164.063795,84.8795484647288L164.400835,84.739074533462L164.737875,85.0096439955027L165.074915,85.65790900385156L165.411955,86.45607221941472L165.74899499999998,87.40771086704922L166.086035,88.30547783531917L166.423075,89.63018889453345L166.76011499999998,89.9512781131134L167.097155,89.64526221066764L167.43419500000002,89.68027160710125L167.77123500000002,90.3178990526048L168.108275,90.81237980043318L168.445315,91.07534054876055L168.78235500000002,91.60607144809178L169.119395,91.80014333642796L169.456435,92.04794456160147L169.793475,92.34544137816134L170.130515,93.15568150954887L170.467555,93.44124665357565L170.804595,93.05251384929696L171.14163499999998,93.1907566071333L171.478675,93.22891387399154L171.815715,92.85142395785265L172.15275499999998,92.02463126287775L172.489795,91.27861223965152L172.82683500000002,91.23648984810697L173.163875,91.0089957144149L173.500915,90.54528864438205L173.837955,90.03232610694349L174.17499500000002,89.56600802225934L174.512035,88.87881962876787L174.849075,88.39995573839877L175.18611499999997,87.95515659210456L175.523155,87.52551936703205L175.860195,87.34982522996917L176.197235,86.78058254097918L176.53427499999998,86.11613081491431L176.871315,85.978182566315L177.208355,85.79372125396138L177.54539499999998,85.38413914842522L177.882435,85.02287469388911L178.21947500000002,84.80800999111199L178.556515,84.80547061847265L178.893555,84.69934213758053L179.230595,85.18774880017875L179.567635,86.20301858639911L179.904675,86.43474207639129L180.241715,86.32873623050622L180.57875499999997,86.36330390261037L180.915795,86.14440031903553L181.252835,85.76728101151585L181.589875,85.85730240774306L181.92691499999998,86.06674203380949L182.263955,86.54076532613809L182.600995,86.46541473920091L182.93803499999999,85.68313967124446L183.275075,84.80538766431023L183.61211500000002,84.40345474475663L183.949155,84.27607384303491L184.286195,84.95040674282394L184.62323500000002,85.19148485227394L184.960275,84.77432591110279L185.297315,84.12115088592994L185.634355,83.16567219703299L185.97139500000003,82.96227416128967L186.308435,82.80360969570484L186.645475,82.36672283297814L186.98251499999998,82.00008528539304L187.319555,81.71447584949337L187.656595,81.46147790079185L187.993635,81.40135843215165L188.33067499999999,81.30653245670833L188.66771500000002,81.3738095181011L189.00475500000002,81.56257472649438L189.341795,81.96051378208105L189.678835,82.77533751053805L190.01587500000002,83.30245550467487L190.352915,83.6503490515755L190.689955,83.66619125227797L191.026995,83.52124708256098L191.364035,83.40402313771145L191.701075,83.26294984214312L192.038115,83.11153433029111L192.37515499999998,83.17788937869224L192.712195,82.9652514919876L193.049235,82.51616190549878L193.38627499999998,82.4428589333296L193.72331499999999,82.60005507404807L194.06035500000002,83.06982501808781L194.39739500000002,83.78638825011922L194.734435,83.96163452041891L195.071475,83.71033519898928L195.40851500000002,83.2931024081073L195.745555,82.53126717061599L196.082595,81.5684639276399L196.419635,80.86475416617168L196.756675,80.15176875946865L197.093715,79.80267305791857L197.430755,79.72284223807144L197.76779499999998,79.89044891017336L198.104835,80.2328275267768L198.441875,80.83711603685292L198.77891499999998,81.41309663213022L199.11595499999999,82.04331641869639L199.45299500000002,82.53550117214941L199.790035,83.12164675082732L200.127075,83.58772163748893L200.464115,83.93615575187638L200.80115500000002,84.28754769808278L201.138195,84.88129460243121L201.475235,85.32819624627841L201.812275,85.97092859676607L202.149315,86.2488324004564L202.486355,86.11871368805913L202.823395,86.37791703926021L203.16043499999998,86.61945099107322L203.497475,86.64539803888394L203.834515,86.32333278041393L204.17155499999998,85.74750442136116L204.50859499999999,85.036252951453L204.84563500000002,84.84209418899749L205.182675,84.72951297440575L205.519715,84.4617951455705L205.856755,84.5259066564777L206.19379500000002,84.82720372507035L206.530835,84.99170255491003L206.867875,85.13924008676159L207.20491499999997,85.43665706300841L207.541955,85.8956403309011L207.878995,86.09615906491725L208.216035,86.11901936778337L208.55307499999998,86.06259561005861L208.890115,85.98058941276194L209.227155,85.85209358775552L209.56419499999998,86.14436630803138L209.901235,86.36532829726129L210.23827500000002,86.60650926800345L210.575315,86.66509920682432L210.912355,86.91708726566303L211.24939500000002,87.13787440246247L211.586435,87.25116932945704L211.923475,87.19048970758982L212.260515,86.95521266523468L212.59755500000003,86.60200668304671L212.934595,86.3836445659455L213.271635,86.12271696286878L213.60867499999998,85.84186165137152L213.945715,85.36862058317783L214.282755,84.78620713449618L214.619795,84.13830965798216L214.95683499999998,83.77260679371683L215.293875,83.64081210457657L215.63091500000002,83.33198776410613L215.967955,82.71259573354564L216.304995,82.33889436617893L216.64203500000002,82.60052412515692L216.979075,83.17033892730365L217.316115,83.22359503423863L217.653155,82.75986451064676L217.990195,82.43172336228056L218.327235,82.42377490678136L218.664275,82.65970734540984L219.00131499999998,83.1754143872351L219.338355,84.06668509474339L219.675395,85.10291061913676L220.01243499999998,85.99618205241642L220.34947499999998,86.74793380812746L220.686515,87.49580220512968L221.02355500000002,88.15833329211554L221.360595,88.56183941139166L221.697635,88.75503452234071L222.03467500000002,88.5334514799188L222.371715,87.78132141110976L222.708755,87.34445548682874L223.045795,86.5799464603886L223.382835,86.18387300580208L223.719875,86.49093565912437L224.056915,86.77521172506447L224.39395499999998,86.70637568354594L224.730995,86.38463797879211L225.068035,86.52442722915237L225.40507499999998,87.10198429464472L225.74211499999998,87.95115051156642L226.07915500000001,88.98041282586075L226.41619500000002,89.70330501406764L226.753235,90.38752937118123L227.090275,90.75729149290439L227.42731500000002,90.85701559267694L227.764355,90.62315375802838L228.101395,89.78377744332846L228.438435,89.54564937985903L228.775475,89.51740016192943L229.112515,89.07236249749596L229.449555,88.40455791314427L229.78659499999998,87.93040804413377L230.123635,87.94590016640248L230.460675,88.22856490191319L230.79771499999998,88.89428929144611L231.13475499999998,89.87592446598096L231.47179500000001,91.17983193614548L231.808835,92.58178589678599L232.145875,93.61527018679682L232.482915,94.24754424992163L232.81995500000002,94.37350229937749L233.156995,94.53840412381072L233.494035,95.15979719143208L233.83107500000003,95.81597433078943L234.168115,96.22329488747513L234.505155,96.4218051326891L234.842195,96.57658872645531L235.179235,96.66933035466506L235.516275,96.67489061806376L235.853315,97.08430023736308L236.19035499999998,97.37318963512851L236.527395,97.40645194984803L236.86443500000001,97.78175544616266L237.201475,97.65432447632448L237.538515,97.18509387380912L237.87555500000002,96.8340800386235L238.212595,96.10730551371364L238.549635,95.25511547397353L238.886675,94.5363814279824L239.22371500000003,94.01419891730144L239.560755,93.94861873959333L239.897795,93.72570832697309L240.23483499999998,93.21184158401343L240.571875,92.72469536963239L240.908915,92.48930676623918L241.245955,92.34499863123311L241.58299499999998,92.16917648259903L241.920035,91.59899851629456L242.25707500000001,91.20985532032186L242.594115,91.38420588083534L242.931155,91.72747583061651L243.26819500000002,91.22183376388155L243.605235,90.74334481857065L243.942275,90.59399957019338L244.279315,90.4425195029018L244.61635500000003,90.22105908900042L244.953395,89.85005188973187L245.290435,89.74840216546406L245.62747499999998,90.2376263626678L245.964515,91.0856139133474L246.301555,91.7946070695835L246.638595,92.24966626724535L246.97563499999998,92.54427752284198L247.312675,92.34108140955306L247.64971500000001,91.78906038508207L247.986755,90.79705353952964L248.323795,89.65965506574311L248.66083500000002,88.97549661567007L248.997875,88.74348335605974L249.334915,88.72687903471913L249.671955,89.13767362662459L250.008995,89.35876730441886L250.346035,89.2847140308098L250.683075,89.46482057001874L251.02011499999998,89.61498591762508L251.357155,90.14347732938364L251.694195,90.6099678466484L252.03123499999998,90.5899552901162L252.36827499999998,90.04192031108492L252.705315,89.58292223451994L253.04235500000001,88.58718186963391L253.379395,87.39665102655678L253.716435,86.75969428153118L254.05347500000002,86.19970046479273L254.390515,85.91574348466003L254.727555,85.7103369152502L255.064595,86.10686768303336L255.401635,86.76548027691683L255.738675,87.63922809011774L256.075715,87.97487277740177L256.412755,87.72324186450888L256.749795,87.38550720998775L257.086835,87.24719834389339L257.423875,87.14103432419842L257.760915,86.7745456520665L258.097955,86.38577386624164L258.434995,86.45315487913219L258.772035,87.00643223194011L259.109075,87.28658001395131L259.446115,87.00221114618817L259.783155,86.9640270683107L260.12019499999997,87.20548669517515L260.457235,87.7703436375885L260.794275,87.88978766993627L261.131315,87.75455545457058L261.468355,88.2974707343774L261.80539500000003,88.72415079738563L262.14243500000003,89.64598021035627L262.479475,90.08179965008722L262.816515,90.27003517553293L263.15355500000004,90.41137876479591L263.490595,90.15249363744374L263.827635,89.5358875148201L264.164675,89.2489917624757L264.501715,89.36061271975174L264.838755,89.562845303883L265.175795,90.0769156489959L265.512835,90.37608443600224L265.849875,90.87147127927712L266.186915,91.47191560557025L266.523955,91.66996040176815L266.860995,91.7848271605119L267.198035,92.01661408064378L267.535075,92.41803380831931L267.872115,92.9078323525139L268.209155,93.4569342355527L268.546195,94.04028191518937L268.883235,94.17008802249184L269.220275,93.92579794158173L269.55731499999996,93.93448092733743L269.894355,94.43792121696852L270.231395,95.09889148270972L270.568435,94.9297174165685L270.90547499999997,93.85530656448664L271.242515,93.14322647801608L271.579555,92.78183328889182L271.916595,92.70338570941907L272.253635,92.5031529520971L272.59067500000003,92.32686836536575L272.927715,91.92182611151334L273.264755,91.26297856660108L273.601795,90.30337612376889L273.938835,89.73209858947479L274.275875,89.50518676816938L274.612915,89.61266338165882L274.949955,90.08626383317709L275.286995,90.50484504394223L275.624035,90.73707104635871L275.961075,91.02491474695586L276.298115,90.92055329240482L276.635155,90.8391931498901L276.972195,90.62871060298163L277.309235,90.57363531477446L277.646275,90.52842120307716L277.983315,90.16642381450637L278.320355,89.81501299645878L278.657395,89.33477171280096L278.994435,88.66536667017152L279.331475,88.58481823927681L279.668515,88.67546922878336L280.005555,88.7406780042064L280.34259499999996,88.95251344293088L280.679635,89.39125157641351L281.016675,90.79695119238654L281.35371499999997,92.388401787994L281.69075499999997,93.33165126959119L282.027795,93.33960249205781L282.364835,93.21093928410536L282.701875,93.12248666725624L283.038915,92.88636690335144L283.37595500000003,92.87318186904419L283.712995,93.18740821788823L284.050035,93.43794062339477" style="fill: none;" fill="none"></path></g></g></g></g><g opacity="0.2"><g><g><g><path stroke="rgb(0, 119, 187)" stroke-width="2px" d="M30.258915000000002,136.3332553591047L30.595955,131.80153516360693L30.932995000000002,127.12459342820304L31.270035,122.23830253737313L31.607075000000002,117.00211828095573L31.944115,111.33498007910592L32.281155,105.14339286940438L32.618195,98.05663810457501L32.955235,90.1378309386117L33.292275000000004,82.04640211377826L33.629315,73.33571665627616L33.966355,64.53126634870257L34.303395,56.06174680164883L34.640435,47.789554187229704L34.977475,40.17828069414411L35.314515,36.71820858546665L35.651555,34.458733967372346L35.988595,32.844627789088655L36.325635,31.80980723244803L36.662675,30.74607998984201L36.999715,29.913375854492188L37.336755,29.135247639247346L37.673795,28.246367045811247L38.010835,26.764535631452297L38.347875,25.192892210824155L38.684915,24.297015326363706L39.021955,23.321814809526707L39.358995,22.81616606031146L39.696034999999995,22.72282559531076L40.033075,22.718351364135742L40.370115,22.718351364135742L40.707155,22.718351364135742L41.044194999999995,22.718351364135742L41.381235,22.718351364135742L41.718275,22.718351364135742L42.055315,22.718351364135742L42.392354999999995,22.718351364135742L42.729395,22.718351364135742L43.066435,22.718351364135742L43.403475,22.718351364135742L43.740514999999995,22.718351364135742L44.077555,22.718351364135742L44.414595,22.718351364135742L44.75163499999999,22.718351364135742L45.088674999999995,22.718351364135742L45.425715,22.718351364135742L45.762755,22.718351364135742L46.09979499999999,22.718351364135742L46.436834999999995,22.718351364135742L46.773875,22.718351364135742L47.110915,22.718351364135742L47.44795500000001,22.718351364135742L47.784995,22.718351364135742L48.122035000000004,22.718351364135742L48.459075000000006,22.718351364135742L48.796115,22.718351364135742L49.133155,22.718351364135742L49.470195000000004,22.718351364135742L49.807235000000006,22.718351364135742L50.144275,22.718351364135742L50.481315,22.718351364135742L50.818355000000004,22.718351364135742L51.155395000000006,22.718351364135742L51.492435,22.718351364135742L51.829475,22.718351364135742L52.166515000000004,22.718351364135742L52.503555000000006,22.718351364135742L52.840595,22.718351364135742L53.177635,22.834341866629458L53.514675000000004,28.673625809805728L53.851715,37.56399590628488L54.188755,57.80804286684308L54.525795,81.91117484228951L54.862835000000004,106.15597261701312L55.199875,122.59698976789203L55.536915,131.0746863058635L55.873955,134.98162983145033L56.210995000000004,136.44974754537856L56.548035,135.66036554745264L56.885075,130.99860770361764L57.222115,130.09848696844918L57.559155000000004,127.36572296278817L57.896195,123.67269073213849L58.233235,115.6071766785213L58.570275,111.70305531365531L58.907315,106.4981300490243L59.244355,102.53502219063895L59.581395,101.10147973469324L59.918435,106.61684570993695L60.255475,107.59417118344989L60.592515,102.90917219434466L60.929555,96.88941546848841L61.266595,96.384142603193L61.603635,101.19276496342249L61.940675,106.24988600185938L62.277715,108.52790624754769L62.614755,106.54720411981855L62.951795,102.38959452084131L63.288835,100.36716624668665L63.625875,101.73017590386527L63.962914999999995,106.8833898476192L64.299955,108.62123761858258L64.636995,110.19051357678003L64.974035,109.45194108145577L65.311075,109.36392664909363L65.648115,110.21911106790814L65.98515499999999,106.39590174811227L66.322195,103.83714168412345L66.659235,100.2785667691912L66.996275,101.78599163464136L67.333315,100.24002654211861L67.670355,96.55261741365705L68.007395,97.56028338841028L68.34443499999999,99.46076461247034L68.68147499999999,96.68575307301111L69.018515,97.3079925264631L69.355555,99.03649473190308L69.692595,99.57254764011927L70.029635,100.58120182582311L70.366675,100.39674588612147L70.703715,99.83205304827008L71.04075499999999,101.83162818636212L71.37779499999999,99.32861110142298L71.714835,97.18835837500436L72.051875,95.97897005081177L72.388915,99.12963512965612L72.725955,97.25313772474017L73.062995,96.29080820083618L73.400035,98.15824195316858L73.737075,100.38190453393119L74.074115,99.88326420102801L74.41115500000001,97.32007537569318L74.74819500000001,94.80577571051461L75.085235,96.279283114842L75.422275,99.21772534506661L75.759315,101.47181633540563L76.096355,102.31220487185888L76.43339499999999,101.35726874215263L76.770435,98.37224115644183L77.107475,94.89766720363073L77.444515,95.78953668049402L77.781555,99.66391774586268L78.118595,98.35373190471105L78.45563499999999,98.94693129403251L78.792675,102.19438648223877L79.12971499999999,103.75861225809369L79.466755,102.66337745530265L79.803795,104.3070147718702L80.140835,103.51891047613961L80.477875,102.6774912902287L80.814915,103.90555862018041L81.15195499999999,110.62244663919721L81.488995,112.00393523488727L81.82603499999999,111.32970254761833L82.163075,112.23154507364545L82.500115,111.60756261008126L82.837155,111.75130183356148L83.174195,109.61381367274694L83.511235,108.48711677959986L83.84827499999999,103.12860352652413L84.185315,102.22491795676095L84.52235499999999,100.28276818139213L84.859395,96.74399689265661L85.19643500000001,100.07763862609863L85.533475,102.68066205297198L85.87051500000001,100.89376143046789L86.207555,99.34389502661568L86.544595,101.49890422821045L86.881635,102.84024902752466L87.218675,105.15162897109985L87.55571499999999,104.25503366334098L87.89275500000001,102.61593423570905L88.229795,102.2646403993879L88.56683500000001,101.58117430550712L88.903875,104.99726799556188L89.240915,106.07192618506295L89.577955,106.17332996640887L89.914995,105.12719651630945L90.25203499999999,104.5669081892286L90.58907500000001,104.48051854542322L90.926115,102.20365626471383L91.26315500000001,101.20867334093366L91.600195,100.61290339061193L91.937235,98.4049733706883L92.274275,97.62612976346698L92.611315,96.22323397227697L92.94835499999999,94.48584393092565L93.28539500000001,94.02501630783081L93.622435,91.49531146458216L93.95947500000001,89.52711657115393L94.296515,91.977176461901L94.633555,94.9619857924325L94.970595,91.31781544004168L95.307635,86.6886897768293L95.64467499999999,83.37052597318377L95.98171500000001,81.88335943222046L96.318755,78.65707499640328L96.655795,76.04840421676636L96.992835,73.97561659131732L97.329875,73.42332186017718L97.66691499999999,72.53251940863473L98.003955,72.74245664051601L98.34099499999999,70.77009671075004L98.67803500000001,75.77998065948486L99.015075,77.94005823135376L99.352115,75.1134717805045L99.689155,75.79511908122471L100.026195,77.35058736801147L100.36323499999999,76.17882987431118L100.700275,78.26294251850673L101.03731499999999,77.17601353781563L101.37435500000001,76.98863540376935L101.711395,77.76231363841465L102.048435,80.36010803495135L102.385475,76.55960634776524L102.722515,76.37280416488647L103.05955499999999,76.559248651777L103.396595,75.07830238342285L103.73363499999999,76.09120041983468L104.07067500000001,77.74710852759225L104.407715,77.84063693455288L104.744755,82.58757189341954L105.081795,85.26746055058071L105.418835,84.88992152895246L105.75587499999999,85.9361641066415L106.092915,84.17940391813006L106.42995499999999,88.79681049074445L106.766995,89.89015981129236L107.104035,91.12310756955829L107.441075,90.29783017294747L107.77811499999999,87.74777909687587L108.115155,87.9319258417402L108.45219499999999,89.49709435871668L108.789235,89.92567477907453L109.12627499999999,87.00947638920375L109.463315,88.29628467559814L109.80035500000001,87.60181488309588L110.137395,84.9818251473563L110.47443500000001,84.22671072823661L110.811475,83.59343726294381L111.148515,84.80311053139823L111.485555,85.54926436288017L111.822595,85.14192744663784L112.159635,89.08357960837228L112.49667500000001,94.40105785642352L112.833715,93.33579676491874L113.17075500000001,91.5648318018232L113.507795,93.13605690002441L113.844835,93.8030083520072L114.181875,92.46027823856897L114.518915,92.81373643875122L114.855955,93.15999828066144L115.19299500000001,93.95953975405011L115.530035,93.30794497898646L115.867075,92.51946783065796L116.204115,95.21200922557287L116.541155,97.07831532614571L116.87819499999999,98.07836662020001L117.215235,97.07785456521171L117.552275,100.21535158157349L117.88931500000001,101.43967826025826L118.226355,100.48576368604388L118.563395,97.57114764622278L118.900435,94.5473130771092L119.237475,93.9523858342852L119.57451499999999,92.48938499178205L119.911555,91.74989400591168L120.248595,89.12580592291695L120.58563500000001,86.77279077257428L120.922675,87.76931967054095L121.259715,90.55265522003174L121.596755,90.8888773236956L121.933795,91.16184180123466L122.27083499999999,91.41985579899378L122.607875,89.17150613239832L122.944915,86.20060450690133L123.28195500000001,86.66720982960292L123.618995,87.9579952103751L123.956035,87.20955576215472L124.293075,89.1555735043117L124.630115,92.04813970838275L124.96715499999999,93.00791079657418L125.304195,92.84038175855365L125.641235,93.300124168396L125.978275,91.27594682148523L126.315315,89.96231739861625L126.652355,89.35834469114032L126.98939499999999,88.89101791381836L127.326435,87.36942768096924L127.66347499999999,86.35897289003644L128.000515,85.25243125643048L128.33755499999998,84.11420624596732L128.674595,82.45342983518329L129.01163499999998,79.44660704476493L129.34867500000001,77.6230971472604L129.685715,78.58914913449969L130.022755,81.07063777106148L130.359795,78.27446154185704L130.696835,76.5467050416129L131.033875,78.39227690015521L131.370915,78.37047563280377L131.707955,78.88268416268485L132.044995,78.77712747028896L132.382035,79.75701441083636L132.719075,82.12970890317645L133.056115,83.36686413628715L133.393155,82.74481868743896L133.73019499999998,83.00674309049334L134.067235,82.90309006827218L134.404275,83.83109290259225L134.741315,84.26130417415074L135.07835500000002,84.03683478491646L135.415395,87.89438595090594L135.75243500000002,92.52409969057355L136.089475,92.48323140825543L136.426515,89.96123218536377L136.763555,89.32798903329032L137.100595,88.68440907342094L137.437635,88.43327617645264L137.774675,91.21812132426672L138.111715,90.5774574960981L138.448755,89.94400215148926L138.785795,89.20977354049683L139.122835,91.68856430053711L139.459875,93.37641647883825L139.796915,94.16103778566632L140.133955,91.38559579849243L140.47099500000002,86.5046945980617L140.808035,85.91525404793876L141.14507500000002,83.64633989334106L141.482115,83.9565714427403L141.819155,83.36256572178432L142.156195,82.69193424497333L142.493235,83.96634442465646L142.830275,88.42360625948224L143.167315,88.14143868855068L143.504355,86.19315351758685L143.841395,85.90734229769025L144.178435,82.44300815037319L144.515475,82.94418266841343L144.85251499999998,82.2847125189645L145.189555,82.9473170552935L145.526595,83.07559047426496L145.86363500000002,83.11718627384731L146.200675,82.75403996876308L146.537715,84.26397173745292L146.874755,84.93115963254657L147.211795,83.88483217784336L147.548835,85.77440064293998L147.885875,85.47694308417184L148.222915,86.4273110117231L148.559955,87.20075280325753L148.896995,87.9672771181379L149.234035,87.41931717736381L149.571075,87.09453528267997L149.90811499999998,88.12631239209857L150.245155,88.53075136457171L150.582195,86.91361386435372L150.919235,86.46963432856968L151.256275,85.11651890618461L151.59331500000002,85.65172304425921L151.930355,87.4655751500811L152.267395,87.6828966821943L152.604435,86.72247689110893L152.941475,84.26081916264125L153.278515,83.72099528993878L153.615555,84.19645813533238L153.95259499999997,84.52835757391793L154.289635,87.24836880820138L154.626675,88.13654613494873L154.96371499999998,87.18562044416156L155.30075499999998,87.281325340271L155.637795,87.02748850413731L155.974835,86.23368229184833L156.311875,85.66931077412197L156.648915,87.46079172406878L156.98595500000002,86.59310613359723L157.322995,84.2452745437622L157.660035,83.96947881153652L157.997075,83.54349320275443L158.334115,82.25302307946342L158.671155,82.22576543263027L159.008195,82.52047055108207L159.345235,81.69104024342128L159.682275,82.25943129403251L160.019315,82.71689414978027L160.35635499999998,82.66917507989066L160.693395,82.96117625917707L161.030435,83.35723059517997L161.367475,84.84399700164795L161.704515,83.40758085250854L162.04155500000002,83.35007667541504L162.37859500000002,83.95931782041278L162.715635,85.95119946343559L163.052675,85.70974254608154L163.38971500000002,85.4896503857204L163.726755,84.95849609375L164.063795,84.52706016813006L164.400835,84.5283636365618L164.737875,85.41549818856376L165.074915,86.63030651637486L165.411955,87.65331704275948L165.74899499999998,88.83516883850098L166.086035,89.65212828772408L166.423075,91.61725548335485L166.76011499999998,90.43291194098336L167.097155,89.18623835699898L167.43419500000002,89.73278570175171L167.77123500000002,91.27434022086007L168.108275,91.55410092217582L168.445315,91.46978167125158L168.78235500000002,92.40216779708862L169.119395,92.09125116893225L169.456435,92.41964639936175L169.793475,92.79168660300118L170.130515,94.37104170663017L170.467555,93.86959436961584L170.804595,92.46941464287895L171.14163499999998,93.39812074388776L171.478675,93.28614977427893L171.815715,92.28518908364433L172.15275499999998,90.7844422204154L172.489795,90.15958370481219L172.82683500000002,91.17330626079016L173.163875,90.66775451387677L173.500915,89.8497280393328L173.837955,89.2628823007856L174.17499500000002,88.86653089523315L174.512035,87.84803703853062L174.849075,87.68165990284511L175.18611499999997,87.28795787266323L175.523155,86.8810635294233L175.860195,87.08628402437482L176.197235,85.92671850749424L176.53427499999998,85.119453225817L176.871315,85.77126019341605L177.208355,85.51702928543091L177.54539499999998,84.76976599012103L177.882435,84.48097801208496L178.21947500000002,84.48571293694633L178.556515,84.80166155951363L178.893555,84.54014941624233L179.230595,85.92035879407611L179.567635,87.72592326572963L179.904675,86.78232731137958L180.241715,86.16972746167865L180.57875499999997,86.4151554107666L180.915795,85.81604494367328L181.252835,85.20160205023629L181.589875,85.99233450208392L181.92691499999998,86.38090147290912L182.263955,87.251800264631L182.600995,86.35238885879517L182.93803499999999,84.50972706930978L183.275075,83.48875965390887L183.61211500000002,83.8005553654262L183.949155,84.08500249045235L184.286195,85.9619060925075L184.62323500000002,85.55310201644897L184.960275,84.14858749934605L185.297315,83.1413883481707L185.634355,81.73245416368756L185.97139500000003,82.65717710767474L186.308435,82.56561299732753L186.645475,81.71139253888812L186.98251499999998,81.45012896401542L187.319555,81.28606169564384L187.656595,81.0819809777396L187.993635,81.31117922919137L188.33067499999999,81.16429349354335L188.66771500000002,81.47472511019025L189.00475500000002,81.84572253908429L189.341795,82.55742236546108L189.678835,83.99757310322353L190.01587500000002,84.09313249588013L190.352915,84.17218937192645L190.689955,83.68995455333165L191.026995,83.3038308279855L191.364035,83.22818722043719L191.701075,83.05133989879063L192.038115,82.88441106251308L192.37515499999998,83.27742195129395L192.712195,82.64629466193063L193.049235,81.84252752576556L193.38627499999998,82.33290447507586L193.72331499999999,82.83584928512573L194.06035500000002,83.77447993414742L194.39739500000002,84.86123309816632L194.734435,84.22450392586845L195.071475,83.33338621684483L195.40851500000002,82.66725322178432L195.745555,81.38851431437901L196.082595,80.12425906317574L196.419635,79.80918952396938L196.756675,79.08229064941406L197.093715,79.27902950559344L197.430755,79.60309600830078L197.76779499999998,80.14185891832624L198.104835,80.74639545168195L198.441875,81.74354880196708L198.77891499999998,82.2770675250462L199.11595499999999,82.98864609854562L199.45299500000002,83.27377830232892L199.790035,84.00086511884417L200.127075,84.28683396748134L200.464115,84.45880692345756L200.80115500000002,84.8146356173924L201.138195,85.77191495895386L201.475235,85.99854871204921L201.812275,86.93502712249756L202.149315,86.6656881059919L202.486355,85.92353561946324L202.823395,86.76672206606183L203.16043499999998,86.98175191879272L203.497475,86.68431861060006L203.834515,85.84023489270892L204.17155499999998,84.88376188278198L204.50859499999999,83.96937574659076L204.84563500000002,84.55085604531425L205.182675,84.56064115251813L205.519715,84.06021840231759L205.856755,84.62207392283848L206.19379500000002,85.27914932795933L206.530835,85.23845079966954L206.867875,85.36054638453892L207.20491499999997,85.88278252737862L207.541955,86.58411523274013L207.878995,86.39693716594151L208.216035,86.15330982208252L208.55307499999998,85.9779599734715L208.890115,85.85758011681693L209.227155,85.65934985024589L209.56419499999998,86.58277538844517L209.901235,86.69677128110614L210.23827500000002,86.96828072411674L210.575315,86.75298411505563L210.912355,87.29506935392108L211.24939500000002,87.46905510766166L211.586435,87.42111171994891L211.923475,87.099470274789L212.260515,86.602297101702L212.59755500000003,86.07219770976475L212.934595,86.05610139029366L213.271635,85.7313255582537L213.60867499999998,85.42057868412563L213.945715,84.65875898088727L214.282755,83.91258696147374L214.619795,83.16646344321114L214.95683499999998,83.22405249731881L215.293875,83.44312007086617L215.63091500000002,82.86875125340053L215.967955,81.7835076877049L216.304995,81.77834231512887L216.64203500000002,82.99296876362392L216.979075,84.02506113052368L217.316115,83.30347919464111L217.653155,82.06426872525897L217.990195,81.93951163973126L218.327235,82.41185222353253L218.664275,83.01360600335258L219.00131499999998,83.94897494997296L219.338355,85.40359115600586L219.675395,86.65724890572685L220.01243499999998,87.3360892023359L220.34947499999998,87.87556144169399L220.686515,88.61760480063302L221.02355500000002,89.15212992259436L221.360595,89.16709859030587L221.697635,89.04482718876429L222.03467500000002,88.20107691628593L222.371715,86.6531263078962L222.708755,86.68915660040719L223.045795,85.43318292072841L223.382835,85.5897628239223L223.719875,86.95152963910785L224.056915,87.20162582397461L224.39395499999998,86.60312162126813L224.730995,85.90203142166138L225.068035,86.73411110469273L225.40507499999998,87.9683198928833L225.74211499999998,89.22489983694894L226.07915500000001,90.52430629730225L226.41619500000002,90.787643296378L226.753235,91.41386590685163L227.090275,91.31193467548914L227.42731500000002,91.00660174233573L227.764355,90.27236100605555L228.101395,88.5247129712786L228.438435,89.1884572846549L228.775475,89.47502633503504L229.112515,88.40480600084577L229.449555,87.40285103661674L229.78659499999998,87.21918324061802L230.123635,87.96913834980556L230.460675,88.65256200517926L230.79771499999998,89.89287587574549L231.13475499999998,91.3483772277832L231.47179500000001,93.1356931413923L231.808835,94.68471683774676L232.145875,95.1654966218131L232.482915,95.19595534460885L232.81995500000002,94.56243937356132L233.156995,94.78575686046057L233.494035,96.09188679286413L233.83107500000003,96.80024003982544L234.168115,96.83427572250366L234.505155,96.71957050051007L234.842195,96.80876411710467L235.179235,96.80844279697962L235.516275,96.6832310131618L235.853315,97.69841466631208L236.19035499999998,97.80652373177665L236.527395,97.45634542192731L236.86443500000001,98.34471069063459L237.201475,97.4631780215672L237.538515,96.4812479700361L237.87555500000002,96.30755928584509L238.212595,95.01714372634888L238.549635,93.97683041436332L238.886675,93.45828035899572L239.22371500000003,93.23092515127999L239.560755,93.85024847303119L239.897795,93.39134270804269L240.23483499999998,92.44104146957397L240.571875,91.99397604806083L240.908915,92.13622386114938L241.245955,92.128536428724L241.58299499999998,91.90544325964791L241.920035,90.74373156683785L242.25707500000001,90.62614052636283L242.594115,91.64573172160559L242.931155,92.24238075528827L243.26819500000002,90.46337066377912L243.605235,90.02561140060425L243.942275,90.36998169762748L244.279315,90.21529940196447L244.61635500000003,89.88886846814837L244.953395,89.29354109082904L245.290435,89.59592757906232L245.62747499999998,90.97146265847343L245.964515,92.35759523936682L246.301555,92.85809680393763L246.638595,92.93225506373815L246.97563499999998,92.98619440623693L247.312675,92.03628723961967L247.64971500000001,90.9610288483756L247.986755,89.30904327120099L248.323795,87.9535573550633L248.66083500000002,87.94925894056048L248.997875,88.39546346664429L249.334915,88.70197255270821L249.671955,89.75386551448278L250.008995,89.69040782111031L250.346035,89.1736341203962L250.683075,89.73498037883215L251.02011499999998,89.8402339390346L251.357155,90.93621444702148L251.694195,91.30970362254553L252.03123499999998,90.55993645531791L252.36827499999998,89.21986784253802L252.705315,88.8944251196725L253.04235500000001,87.09357132230487L253.379395,85.6108547619411L253.716435,85.80425916399274L254.05347500000002,85.35970973968506L254.390515,85.48980801446098L254.727555,85.40222706113543L255.064595,86.70166383470807L255.401635,87.75339916774205L255.738675,88.94984980991909L256.075715,88.47833980832782L256.412755,87.3457954951695L256.749795,86.8789052282061L257.086835,87.03973504475185L257.423875,86.98178829465594L257.760915,86.22481264386859L258.097955,85.80261618750436L258.434995,86.55422639846802L258.772035,87.836348261152L259.109075,87.70680168696812L259.446115,86.57565784454346L259.783155,86.90675095149449L260.12019499999997,87.56767613547188L260.457235,88.6176290512085L260.794275,88.0689537184579L261.131315,87.55170713152204L261.468355,89.11184365408761L261.80539500000003,89.36417089189801L262.14243500000003,91.02872432981219L262.479475,90.73552880968366L262.816515,90.55238846370153L263.15355500000004,90.62339414869037L263.490595,89.76416594641549L263.827635,88.61097833088466L264.164675,88.81864813395909L264.501715,89.52804415566581L264.838755,89.86619418007987L265.175795,90.84802116666522L265.512835,90.82483761651176L265.849875,91.61455154418945L266.186915,92.37258209500995L266.523955,91.96702759606498L266.860995,91.95712729862757L267.198035,92.36429446084159L267.535075,93.02016339983258L267.872115,93.64253016880579L268.209155,94.2805870601109L268.546195,94.91530343464441L268.883235,94.36479718344552L269.220275,93.55936282021659L269.55731499999996,93.94750540597099L269.894355,95.19308165141516L270.231395,96.0903468813215L270.568435,94.67595631735665L270.90547499999997,92.24369028636389L271.242515,92.07510634831019L271.579555,92.23974350520544L271.916595,92.58571434020996L272.253635,92.20280381611414L272.59067500000003,92.06244148526874L272.927715,91.31426273073468L273.264755,90.2747072492327L273.601795,88.86397245952061L273.938835,88.87518228803363L274.275875,89.1648190362113L274.612915,89.77387830189295L274.949955,90.79666451045446L275.286995,91.13271686008997L275.624035,91.08541004998344L275.961075,91.45668029785156L276.298115,90.76401111057825L276.635155,90.71715293611798L276.972195,90.31298678261894L277.309235,90.49102238246374L277.646275,90.46060003553119L277.983315,89.62342773165021L278.320355,89.28789676938739L278.657395,88.61440978731427L278.994435,87.66125910622733L279.331475,88.46399559293475L279.668515,88.81144571304321L280.005555,88.83849116734096L280.34259499999996,89.27026660101754L280.679635,90.04935877663749L281.016675,92.90550061634607L281.35371499999997,94.77557768140521L281.69075499999997,94.74652549198694L282.027795,93.3515293257577L282.364835,93.0179444721767L282.701875,92.9898077419826L283.038915,92.53218725749426L283.37595500000003,92.85340431758337L283.712995,93.65874774115426L284.050035,93.81373923165458" style="fill: none;" fill="none"></path></g></g></g></g></g></g><g transform="translate(30, 178)" clip-path="url(#clip_1)"><clipPath id="clip_1"><rect width="299" height="22"></rect></clipPath><g><g><line x1="0" y1="0" x2="0" y2="5" style="visibility: inherit;" fill="rgb(0, 0, 0)" stroke="rgb(204, 204, 204)" stroke-width="1px"></line><line x1="29.921875" y1="0" x2="29.921875" y2="5" style="visibility: inherit;" fill="rgb(0, 0, 0)" stroke="rgb(204, 204, 204)" stroke-width="1px"></line><line x1="59.84375" y1="0" x2="59.84375" y2="5" style="visibility: inherit;" fill="rgb(0, 0, 0)" stroke="rgb(204, 204, 204)" stroke-width="1px"></line><line x1="89.765625" y1="0" x2="89.765625" y2="5" style="visibility: inherit;" fill="rgb(0, 0, 0)" stroke="rgb(204, 204, 204)" stroke-width="1px"></line><line x1="119.6875" y1="0" x2="119.6875" y2="5" style="visibility: inherit;" fill="rgb(0, 0, 0)" stroke="rgb(204, 204, 204)" stroke-width="1px"></line><line x1="149.609375" y1="0" x2="149.609375" y2="5" style="visibility: inherit;" fill="rgb(0, 0, 0)" stroke="rgb(204, 204, 204)" stroke-width="1px"></line><line x1="179.53125" y1="0" x2="179.53125" y2="5" style="visibility: inherit;" fill="rgb(0, 0, 0)" stroke="rgb(204, 204, 204)" stroke-width="1px"></line><line x1="209.453125" y1="0" x2="209.453125" y2="5" style="visibility: inherit;" fill="rgb(0, 0, 0)" stroke="rgb(204, 204, 204)" stroke-width="1px"></line><line x1="239.375" y1="0" x2="239.375" y2="5" style="visibility: inherit;" fill="rgb(0, 0, 0)" stroke="rgb(204, 204, 204)" stroke-width="1px"></line><line x1="269.296875" y1="0" x2="269.296875" y2="5" style="visibility: inherit;" fill="rgb(0, 0, 0)" stroke="rgb(204, 204, 204)" stroke-width="1px"></line><line x1="299.21875" y1="0" x2="299.21875" y2="5" style="visibility: inherit;" fill="rgb(0, 0, 0)" stroke="rgb(204, 204, 204)" stroke-width="1px"></line></g><g transform="translate(0, 8)"><text x="0" y="0" dx="0em" dy="0.95em" style="text-anchor: middle; visibility: hidden; font-family: Roboto, sans-serif; font-size: 12px; font-weight: 200;" fill="rgb(50, 49, 63)" stroke="none" stroke-width="1px">-5M</text><text x="29.921875" y="0" dx="0em" dy="0.95em" style="text-anchor: middle; visibility: inherit; font-family: Roboto, sans-serif; font-size: 12px; font-weight: 200;" fill="rgb(50, 49, 63)" stroke="none" stroke-width="1px">0</text><text x="59.84375" y="0" dx="0em" dy="0.95em" style="text-anchor: middle; visibility: inherit; font-family: Roboto, sans-serif; font-size: 12px; font-weight: 200;" fill="rgb(50, 49, 63)" stroke="none" stroke-width="1px">5M</text><text x="89.765625" y="0" dx="0em" dy="0.95em" style="text-anchor: middle; visibility: inherit; font-family: Roboto, sans-serif; font-size: 12px; font-weight: 200;" fill="rgb(50, 49, 63)" stroke="none" stroke-width="1px">10M</text><text x="119.6875" y="0" dx="0em" dy="0.95em" style="text-anchor: middle; visibility: inherit; font-family: Roboto, sans-serif; font-size: 12px; font-weight: 200;" fill="rgb(50, 49, 63)" stroke="none" stroke-width="1px">15M</text><text x="149.609375" y="0" dx="0em" dy="0.95em" style="text-anchor: middle; visibility: inherit; font-family: Roboto, sans-serif; font-size: 12px; font-weight: 200;" fill="rgb(50, 49, 63)" stroke="none" stroke-width="1px">20M</text><text x="179.53125" y="0" dx="0em" dy="0.95em" style="text-anchor: middle; visibility: inherit; font-family: Roboto, sans-serif; font-size: 12px; font-weight: 200;" fill="rgb(50, 49, 63)" stroke="none" stroke-width="1px">25M</text><text x="209.453125" y="0" dx="0em" dy="0.95em" style="text-anchor: middle; visibility: inherit; font-family: Roboto, sans-serif; font-size: 12px; font-weight: 200;" fill="rgb(50, 49, 63)" stroke="none" stroke-width="1px">30M</text><text x="239.375" y="0" dx="0em" dy="0.95em" style="text-anchor: middle; visibility: inherit; font-family: Roboto, sans-serif; font-size: 12px; font-weight: 200;" fill="rgb(50, 49, 63)" stroke="none" stroke-width="1px">35M</text><text x="269.296875" y="0" dx="0em" dy="0.95em" style="text-anchor: middle; visibility: inherit; font-family: Roboto, sans-serif; font-size: 12px; font-weight: 200;" fill="rgb(50, 49, 63)" stroke="none" stroke-width="1px">40M</text><text x="299.21875" y="0" dx="0em" dy="0.95em" style="text-anchor: middle; visibility: hidden; font-family: Roboto, sans-serif; font-size: 12px; font-weight: 200;" fill="rgb(50, 49, 63)" stroke="none" stroke-width="1px">45M</text></g><line x1="0" y1="0" x2="299.21875" y2="0" fill="rgb(0, 0, 0)" stroke="rgb(204, 204, 204)" stroke-width="1px"></line></g></g></g></g></svg>