<svg viewBox="0 0 330.0000305175781 200.00001525878906" xmlns="http://www.w3.org/2000/svg"><g><g><g><g><g><line x1="41.171875" y1="178" x2="36.171875" y2="178" style="visibility: inherit;" fill="rgb(0, 0, 0)" stroke="rgb(204, 204, 204)" stroke-width="1px"></line><line x1="41.171875" y1="158.2222222222222" x2="36.171875" y2="158.2222222222222" style="visibility: inherit;" fill="rgb(0, 0, 0)" stroke="rgb(204, 204, 204)" stroke-width="1px"></line><line x1="41.171875" y1="138.44444444444446" x2="36.171875" y2="138.44444444444446" style="visibility: inherit;" fill="rgb(0, 0, 0)" stroke="rgb(204, 204, 204)" stroke-width="1px"></line><line x1="41.171875" y1="118.66666666666669" x2="36.171875" y2="118.66666666666669" style="visibility: inherit;" fill="rgb(0, 0, 0)" stroke="rgb(204, 204, 204)" stroke-width="1px"></line><line x1="41.171875" y1="98.8888888888889" x2="36.171875" y2="98.8888888888889" style="visibility: inherit;" fill="rgb(0, 0, 0)" stroke="rgb(204, 204, 204)" stroke-width="1px"></line><line x1="41.171875" y1="79.1111111111111" x2="36.171875" y2="79.1111111111111" style="visibility: inherit;" fill="rgb(0, 0, 0)" stroke="rgb(204, 204, 204)" stroke-width="1px"></line><line x1="41.171875" y1="59.33333333333334" x2="36.171875" y2="59.33333333333334" style="visibility: inherit;" fill="rgb(0, 0, 0)" stroke="rgb(204, 204, 204)" stroke-width="1px"></line><line x1="41.171875" y1="39.55555555555555" x2="36.171875" y2="39.55555555555555" style="visibility: inherit;" fill="rgb(0, 0, 0)" stroke="rgb(204, 204, 204)" stroke-width="1px"></line><line x1="41.171875" y1="19.777777777777786" x2="36.171875" y2="19.777777777777786" style="visibility: inherit;" fill="rgb(0, 0, 0)" stroke="rgb(204, 204, 204)" stroke-width="1px"></line><line x1="41.171875" y1="0" x2="36.171875" y2="0" style="visibility: inherit;" fill="rgb(0, 0, 0)" stroke="rgb(204, 204, 204)" stroke-width="1px"></line></g><g transform="translate(31.171875, 0)"><text x="0" y="178" dx="0em" dy="0.3em" style="text-anchor: end; visibility: hidden; font-family: Roboto, sans-serif; font-size: 12px; font-weight: 200;" fill="rgb(50, 49, 63)" stroke="none" stroke-width="1px">-60</text><text x="0" y="158.2222222222222" dx="0em" dy="0.3em" style="text-anchor: end; visibility: inherit; font-family: Roboto, sans-serif; font-size: 12px; font-weight: 200;" fill="rgb(50, 49, 63)" stroke="none" stroke-width="1px">-50</text><text x="0" y="138.44444444444446" dx="0em" dy="0.3em" style="text-anchor: end; visibility: hidden; font-family: Roboto, sans-serif; font-size: 12px; font-weight: 200;" fill="rgb(50, 49, 63)" stroke="none" stroke-width="1px">-40</text><text x="0" y="118.66666666666669" dx="0em" dy="0.3em" style="text-anchor: end; visibility: inherit; font-family: Roboto, sans-serif; font-size: 12px; font-weight: 200;" fill="rgb(50, 49, 63)" stroke="none" stroke-width="1px">-30</text><text x="0" y="98.8888888888889" dx="0em" dy="0.3em" style="text-anchor: end; visibility: hidden; font-family: Roboto, sans-serif; font-size: 12px; font-weight: 200;" fill="rgb(50, 49, 63)" stroke="none" stroke-width="1px">-20</text><text x="0" y="79.1111111111111" dx="0em" dy="0.3em" style="text-anchor: end; visibility: inherit; font-family: Roboto, sans-serif; font-size: 12px; font-weight: 200;" fill="rgb(50, 49, 63)" stroke="none" stroke-width="1px">-10</text><text x="0" y="59.33333333333334" dx="0em" dy="0.3em" style="text-anchor: end; visibility: hidden; font-family: Roboto, sans-serif; font-size: 12px; font-weight: 200;" fill="rgb(50, 49, 63)" stroke="none" stroke-width="1px">0</text><text x="0" y="39.55555555555555" dx="0em" dy="0.3em" style="text-anchor: end; visibility: inherit; font-family: Roboto, sans-serif; font-size: 12px; font-weight: 200;" fill="rgb(50, 49, 63)" stroke="none" stroke-width="1px">10</text><text x="0" y="19.777777777777786" dx="0em" dy="0.3em" style="text-anchor: end; visibility: hidden; font-family: Roboto, sans-serif; font-size: 12px; font-weight: 200;" fill="rgb(50, 49, 63)" stroke="none" stroke-width="1px">20</text><text x="0" y="0" dx="0em" dy="0.3em" style="text-anchor: end; visibility: hidden; font-family: Roboto, sans-serif; font-size: 12px; font-weight: 200;" fill="rgb(50, 49, 63)" stroke="none" stroke-width="1px">30</text></g><line x1="41.171875" y1="0" x2="41.171875" y2="178" fill="rgb(0, 0, 0)" stroke="rgb(204, 204, 204)" stroke-width="1px"></line></g></g><g transform="translate(41, 0)" clip-path="url(#clip_0)"><clipPath id="clip_0"><rect width="288" height="177"></rect></clipPath><g><g><g><line x1="0" y1="0" x2="0" y2="178" fill="rgb(0, 0, 0)" stroke="rgb(60, 60, 60)" stroke-width="1px" opacity="0.25"></line><line x1="28.8828125" y1="0" x2="28.8828125" y2="178" fill="rgb(0, 0, 0)" stroke="rgb(60, 60, 60)" stroke-width="1px" opacity="0.25"></line><line x1="57.765625" y1="0" x2="57.765625" y2="178" fill="rgb(0, 0, 0)" stroke="rgb(60, 60, 60)" stroke-width="1px" opacity="0.25"></line><line x1="86.6484375" y1="0" x2="86.6484375" y2="178" fill="rgb(0, 0, 0)" stroke="rgb(60, 60, 60)" stroke-width="1px" opacity="0.25"></line><line x1="115.53125" y1="0" x2="115.53125" y2="178" fill="rgb(0, 0, 0)" stroke="rgb(60, 60, 60)" stroke-width="1px" opacity="0.25"></line><line x1="144.4140625" y1="0" x2="144.4140625" y2="178" fill="rgb(0, 0, 0)" stroke="rgb(60, 60, 60)" stroke-width="1px" opacity="0.25"></line><line x1="173.296875" y1="0" x2="173.296875" y2="178" fill="rgb(0, 0, 0)" stroke="rgb(60, 60, 60)" stroke-width="1px" opacity="0.25"></line><line x1="202.1796875" y1="0" x2="202.1796875" y2="178" fill="rgb(0, 0, 0)" stroke="rgb(60, 60, 60)" stroke-width="1px" opacity="0.25"></line><line x1="231.0625" y1="0" x2="231.0625" y2="178" fill="rgb(0, 0, 0)" stroke="rgb(60, 60, 60)" stroke-width="1px" opacity="0.25"></line><line x1="259.9453125" y1="0" x2="259.9453125" y2="178" fill="rgb(0, 0, 0)" stroke="rgb(60, 60, 60)" stroke-width="1px" opacity="0.25"></line><line x1="288.828125" y1="0" x2="288.828125" y2="178" fill="rgb(0, 0, 0)" stroke="rgb(60, 60, 60)" stroke-width="1px" opacity="0.25"></line></g><g><line x1="0" y1="178" x2="288.828125" y2="178" fill="rgb(0, 0, 0)" stroke="rgb(60, 60, 60)" stroke-width="1px" opacity="0.25"></line><line x1="0" y1="158.2222222222222" x2="288.828125" y2="158.2222222222222" fill="rgb(0, 0, 0)" stroke="rgb(60, 60, 60)" stroke-width="1px" opacity="0.25"></line><line x1="0" y1="138.44444444444446" x2="288.828125" y2="138.44444444444446" fill="rgb(0, 0, 0)" stroke="rgb(60, 60, 60)" stroke-width="1px" opacity="0.25"></line><line x1="0" y1="118.66666666666669" x2="288.828125" y2="118.66666666666669" fill="rgb(0, 0, 0)" stroke="rgb(60, 60, 60)" stroke-width="1px" opacity="0.25"></line><line x1="0" y1="98.8888888888889" x2="288.828125" y2="98.8888888888889" fill="rgb(0, 0, 0)" stroke="rgb(60, 60, 60)" stroke-width="1px" opacity="0.25"></line><line x1="0" y1="79.1111111111111" x2="288.828125" y2="79.1111111111111" fill="rgb(0, 0, 0)" stroke="rgb(60, 60, 60)" stroke-width="1px" opacity="0.25"></line><line x1="0" y1="59.33333333333334" x2="288.828125" y2="59.33333333333334" fill="rgb(0, 0, 0)" stroke="rgb(60, 60, 60)" stroke-width="1px" opacity="0.25"></line><line x1="0" y1="39.55555555555555" x2="288.828125" y2="39.55555555555555" fill="rgb(0, 0, 0)" stroke="rgb(60, 60, 60)" stroke-width="1px" opacity="0.25"></line><line x1="0" y1="19.777777777777786" x2="288.828125" y2="19.777777777777786" fill="rgb(0, 0, 0)" stroke="rgb(60, 60, 60)" stroke-width="1px" opacity="0.25"></line><line x1="0" y1="0" x2="288.828125" y2="0" fill="rgb(0, 0, 0)" stroke="rgb(60, 60, 60)" stroke-width="1px" opacity="0.25"></line></g></g></g><g><g><line x1="0" y1="59.33333333333334" x2="288.828125" y2="59.33333333333334" fill="rgb(0, 0, 0)" stroke="rgb(153, 153, 153)" stroke-width="1.5px"></line></g></g><g><g><line x1="28.8828125" y1="0" x2="28.8828125" y2="178" fill="rgb(0, 0, 0)" stroke="rgb(153, 153, 153)" stroke-width="1.5px"></line></g></g><g><g><g><g><g><path stroke="rgb(0, 119, 187)" stroke-width="2px" d="M29.2081485,30.984716161092116L29.5334845,31.030829135576884L29.8588205,31.078540097883227L30.1841565,31.111476341182126L30.5094925,31.127701593046503L30.8348285,31.14926141473868L31.1601645,31.196713510233707L31.4855005,31.323600723545272L31.8108365,31.632345279634688L32.1361725,32.203191677276465L32.4615085,32.97765797823536L32.7868445,33.95285866084775L33.1121805,35.12271418003792L33.4375165,37.1893860776629L33.7628525,40.78590993804194L34.0881885,44.80425460270381L34.4135245,48.22819679539845L34.7388605,51.25638558017778L35.0641965,53.228811875280094L35.3895325,55.23252650573845L35.7148685,56.559597902411646L36.0402045,57.44351154506864L36.3655405,58.6984177584311L36.6908765,60.33214681334315L37.0162125,61.606941468821354L37.3415485,63.222103060844205L37.6668845,64.41701472311895L37.9922205,65.84006664389622L38.317556499999995,66.65289445673466L38.642892499999995,67.11473703130301L38.968228499999995,67.41472422505832L39.293564499999995,67.60258857661137L39.618900499999995,67.7104737147104L39.944236499999995,67.71047758141968L40.269572499999995,67.6780146315864L40.594908499999995,67.64981942675264L40.920244499999995,67.59697518403131L41.245580499999996,67.59348213545057L41.570916499999996,67.65429149087846L41.896252499999996,67.64321956987307L42.221588499999996,67.62142756777986L42.546924499999996,67.6587810071369L42.872260499999996,67.65238430320063L43.197596499999996,67.60234527002208L43.522932499999996,67.49345526024817L43.848268499999996,67.45765128792837L44.173604499999996,67.44535335193271L44.498940499999996,67.48480105043325L44.824276499999996,67.48774307990598L45.149612499999996,67.50201652885868L45.474948499999996,67.4690002920709L45.800284500000004,67.41483648420913L46.125620500000004,67.33688052271054L46.450956500000004,67.27635951013572L46.776292500000004,67.24482736464398L47.101628500000004,67.25101847044925L47.426964500000004,67.27745829431925L47.752300500000004,67.30734538030521L48.077636500000004,67.32475328056486L48.402972500000004,67.31777484448503L48.728308500000004,67.24980949685687L49.053644500000004,67.18069928403128L49.378980500000004,67.13020261926046L49.704316500000004,67.0843323289178L50.029652500000005,67.03973120192289L50.354988500000005,67.00183824516428L50.680324500000005,66.98105539689715L51.005660500000005,66.95832235938464L51.330996500000005,66.86814704705304L51.656332500000005,65.87752529496699L51.981668500000005,64.19039152505181L52.307004500000005,60.892738431546185L52.632340500000005,55.807786961176525L52.9576765,48.89160361727122L53.2830125,43.4281694491442L53.6083485,39.75775533091771L53.9336845,37.17808933373673L54.2590205,35.3099669018371L54.5843565,34.018511769181124L54.9096925,33.17711925328114L55.2350285,32.617711218716735L55.5603645,32.27015117411468L55.8857005,32.071429948039764L56.2110365,31.951297138813544L56.5363725,31.89612646342324L56.8617085,31.869082390844177L57.1870445,31.864203061012045L57.5123805,31.89278105630666L57.8377165,32.07343568802389L58.1630525,32.296646319498386L58.4883885,32.374903939566856L58.8137245,32.30341395865657L59.1390605,32.2268513333645L59.4643965,32.254995925072976L59.7897325,32.39418781688458L60.1150685,32.58471815481175L60.4404045,32.68182405355871L60.7657405,32.61771379994663L61.0910765,32.50828593716743L61.4164125,32.44332483378483L61.7417485,32.52550199899865L62.0670845,32.66548109204514L62.3924205,32.85789987654054L62.7177565,33.02085964129705L63.0430925,33.15345921875177L63.3684285,33.23904787384818L63.6937645,33.11947535855912L64.0191005,32.9296056795452L64.3444365,32.69181096259093L64.6697725,32.551889428913626L64.9951085,32.42841626198956L65.3204445,32.28273690285075L65.6457805,32.20215038145652L65.9711165,32.19523429523949L66.2964525,32.13682597482164L66.6217885,32.12042223826755L66.9471245,32.145985405406286L67.2724605,32.1868641195594L67.5977965,32.255275404990314L67.9231325,32.32627282254335L68.2484685,32.365221184235104L68.5738045,32.383864249101705L68.8991405,32.31938732251876L69.2244765,32.23182256888559L69.5498125,32.158889090512126L69.87514850000001,32.17695794737639L70.2004845,32.17735523921036L70.52582050000001,32.15172838163113L70.8511565,32.15418096683133L71.17649250000001,32.18652436277294L71.5018285,32.20591757447801L71.82716450000001,32.209387201045324L72.1525005,32.148994967789726L72.4778365,32.11939814203724L72.8031725,32.161797101910686L73.1285085,32.26414561513677L73.4538445,32.34394247942006L73.7791805,32.36654535486668L74.1045165,32.31000394767478L74.4298525,32.19861694515652L74.7551885,32.13840665967474L75.0805245,32.17127380673149L75.4058605,32.20119970714817L75.7311965,32.30150104038048L76.0565325,32.41161517636586L76.3818685,32.503730716062584L76.7072045,32.52908711670353L77.0325405,32.56686617145711L77.3578765,32.5588239688926L77.6832125,32.57550459658623L78.0085485,32.62097270356263L78.3338845,32.949178419907746L78.6592205,33.31417569038596L78.9845565,33.49117388821704L79.3098925,33.59922727536729L79.6352285,33.66436033813431L79.9605645,33.74255980300539L80.2859005,33.66562618840315L80.6112365,33.53137122356705L80.9365725,33.201033113846734L81.2619085,32.97144310540926L81.5872445,32.7744841765051L81.9125805,32.556678293785545L82.23791650000001,32.47642906319897L82.5632525,32.50638071265896L82.88858850000001,32.528304330576624L83.2139245,32.477633250065786L83.53926050000001,32.485169495395375L83.8645965,32.5213862058364L84.18993250000001,32.62223820746995L84.5152685,32.64026487916675L84.84060450000001,32.62127282927414L85.1659405,32.60948980569167L85.49127650000001,32.58685920561278L85.8166125,32.69072875375505L86.14194850000001,32.80765318615874L86.4672845,32.91176996820023L86.79262050000001,32.94577643641873L87.11795649999999,32.904558096144854L87.44329250000001,32.858865864563526L87.76862849999999,32.78483229712623L88.09396450000001,32.705915120259796L88.41930049999999,32.62291043249387L88.7446365,32.49433797838195L89.06997249999999,32.40647359594846L89.3953085,32.30615291909794L89.72064449999999,32.1900495717577L90.0459805,32.104595157483324L90.37131649999999,32.0522194849658L90.6966525,31.971674055820507L91.02198849999999,31.921742056918973L91.3473245,31.91581474675175L91.67266049999999,31.88012430032157L91.9979965,31.82805019156174L92.32333249999999,31.826934425714498L92.6486685,31.87553663877287L92.97400449999999,31.93439435909108L93.2993405,32.0077437016363L93.62467649999999,32.10992612651294L93.9500125,32.18050867815928L94.27534849999999,32.21143715812168L94.6006845,32.20793753935274L94.92602049999999,32.21939092971244L95.2513565,32.14671471733267L95.5766925,32.05897671485326L95.9020285,32.033926110359985L96.2273645,32.007494312659674L96.5527005,31.971439031443445L96.8780365,31.95532022801594L97.2033725,31.919583780757577L97.5287085,31.89759643612492L97.8540445,31.887859466899556L98.1793805,31.873571079377456L98.5047165,31.849361814700053L98.8300525,31.865601721524012L99.1553885,31.91922368685863L99.4807245,31.945504515120817L99.8060605,31.9508742575344L100.1313965,31.948738665848772L100.4567325,31.93686013269611L100.7820685,31.9259923884827L101.1074045,31.86884354608603L101.4327405,31.82108331542287L101.7580765,31.79266785051404L102.0834125,31.771158944629185L102.4087485,31.76466351320762L102.7340845,31.752712368788817L103.0594205,31.749447533713635L103.3847565,31.75413620041751L103.7100925,31.75596407261326L104.0354285,31.75009635399546L104.3607645,31.747444863449815L104.6861005,31.7579434737882L105.0114365,31.77233952991093L105.3367725,31.770795694197115L105.6621085,31.8178086848288L105.98744450000001,31.84408430113436L106.3127805,31.840880978562044L106.63811650000001,31.83294592010432L106.9634525,31.798743500820205L107.28878850000001,31.773952546821867L107.6141245,31.760779287017808L107.93946050000001,31.751426008964717L108.2647965,31.75638934086602L108.59013250000001,31.804106957248564L108.9154685,31.82980719531811L109.24080450000001,31.83950398678723L109.5661405,31.858207524111712L109.89147650000001,31.865736553312505L110.2168125,31.85074961021019L110.54214850000001,31.846137852741773L110.8674845,31.859741876751944L111.19282050000001,31.891342418463807L111.5181565,31.90858558718669L111.84349250000001,31.910839879737132L112.1688285,31.9495556941319L112.49416450000001,32.00355366624855L112.8195005,32.06316666087651L113.14483650000001,32.07631567645755L113.4701725,32.15114173979109L113.79550850000001,32.24035826842979L114.1208445,32.28091520553758L114.44618050000001,32.2497428183909L114.77151649999999,32.17673695859909L115.09685250000001,32.11035012125863L115.42218849999999,32.06482560043801L115.74752450000001,32.05697526206403L116.07286049999999,31.99719534332784L116.3981965,31.900403048553116L116.72353249999999,31.84191196293451L117.0488685,31.815564548027066L117.37420449999999,31.798532361154024L117.6995405,31.789170872719982L118.02487649999999,31.79138907114446L118.3502125,31.784703827750704L118.67554849999999,31.777066735669525L119.0008845,31.77184318742495L119.32622049999999,31.800293870218624L119.6515565,31.797868218357838L119.97689249999999,31.79312261694137L120.3022285,31.817407985515842L120.62756449999999,31.853001545527714L120.9529005,31.88489752053766L121.27823649999999,31.919106245409075L121.6035725,31.90814474869674L121.92890849999999,31.894505328628853L122.2542445,31.91002537464042L122.57958049999999,31.961600119600327L122.9049165,31.99632784078961L123.23025249999999,31.999474594827507L123.5555885,32.004649085238526L123.88092449999999,32.01243370943031L124.2062605,31.99450682769542L124.53159649999999,31.97296792277555L124.8569325,31.950198091718708L125.18226849999999,31.911757386186288L125.5076045,31.873793840416745L125.83294049999999,31.87189244058901L126.1582765,31.87984136306219L126.48361249999999,31.860054476040432L126.8089485,31.852835867590407L127.13428449999999,31.85412469255132L127.4596205,31.844008832457888L127.78495649999999,31.82305377427399L128.1102925,31.797779365733565L128.43562849999998,31.776554879029437L128.7609645,31.764241931459548L129.0863005,31.754941600865205L129.4116365,31.74807655312978L129.7369725,31.742816777418238L130.0623085,31.73961790763747L130.38764450000002,31.7377408356605L130.7129805,31.742337943846927L131.0383165,31.77695941710569L131.3636525,31.80159514828315L131.6889885,31.795767693489204L132.0143245,31.790019150503806L132.3396605,31.78468009653057L132.6649965,31.780673916208258L132.9903325,31.805969538662676L133.3156685,31.82318396047517L133.6410045,31.826705854258186L133.9663405,31.821140072749138L134.2916765,31.83602615078653L134.6170125,31.86104670718198L134.9423485,31.878941841651326L135.2676845,31.862295711408983L135.5930205,31.82154784886958L135.9183565,31.841224616236357L136.2436925,31.847066651794755L136.5690285,31.802301372099L136.8943645,31.77629021996079L137.2197005,31.761075094636507L137.5450365,31.750621183558703L137.8703725,31.752401968015562L138.1957085,31.752504726884087L138.5210445,31.746935075239083L138.8463805,31.74257174223274L139.1717165,31.741753889591475L139.4970525,31.77377371504828L139.8223885,31.7760999885098L140.1477245,31.761258968393392L140.4730605,31.75190846907586L140.7983965,31.74604542459875L141.1237325,31.746283311481253L141.4490685,31.757932348881486L141.7744045,31.775621556342255L142.0997405,31.759281913433146L142.4250765,31.750825597441406L142.7504125,31.745924579724058L143.0757485,31.745524243819673L143.4010845,31.74726148809139L143.7264205,31.75138053210993L144.0517565,31.751556884058168L144.3770925,31.751524628617418L144.7024285,31.75741875123729L145.02776450000002,31.765509159542297L145.3531005,31.7605282333556L145.6784365,31.754330949277122L146.0037725,31.750821564900477L146.32910850000002,31.758066740616716L146.6544445,31.759458617028997L146.9797805,31.75958454826917L147.3051165,31.755162002493925L147.63045250000002,31.749831642617806L147.9557885,31.744357968250245L148.2811245,31.74071463955203L148.6064605,31.74097838157736L148.93179650000002,31.746992009076084L149.2571325,31.756572509522815L149.5824685,31.75778045538002L149.9078045,31.760555851556475L150.23314050000002,31.76034926817672L150.5584765,31.774968266892905L150.8838125,31.76570499815386L151.2091485,31.76415624982817L151.53448450000002,31.759111408723953L151.8598205,31.751704850130746L152.1851565,31.755498889353635L152.5104925,31.768684838440738L152.83582850000002,31.76050448047058L153.1611645,31.754021702768036L153.4865005,31.749567698310123L153.81183650000003,31.750004434971856L154.13717250000002,31.74661337027943L154.4625085,31.743242578645532L154.7878445,31.74998469276296L155.11318050000003,31.752269800575306L155.43851650000002,31.745504743300913L155.7638525,31.741256338886895L156.08918849999998,31.738874786879784L156.41452450000003,31.74088167720871L156.73986050000002,31.739124546689798L157.06519649999998,31.740344972357942L157.39053249999998,31.739702597360626L157.71586850000003,31.738426152329154L158.04120450000002,31.736970706724065L158.36654049999999,31.73607480549063L158.69187649999998,31.73554707276106L159.01721250000003,31.73606260509327L159.3425485,31.740163097791765L159.66788449999999,31.7489359798773L159.99322049999998,31.76383721116315L160.3185565,31.78631677677113L160.6438925,31.82262322985389L160.96922849999999,31.83287137240127L161.29456449999998,31.830074597868386L161.6199005,31.83652133817524L161.9452365,31.850490878737933L162.2705725,31.866555293166144L162.59590849999998,31.877466719804318L162.9212445,31.89698881924965L163.2465805,31.905109329215286L163.5719165,31.914339409717204L163.89725249999998,31.92505231526391L164.2225885,31.957303795842364L164.5479245,31.97457387703341L164.8732605,31.97096101967438L165.19859649999998,32.01266679972511L165.5239325,32.05206730226072L165.8492685,32.06198544259506L166.1746045,32.01979559328867L166.49994049999998,31.963801472319787L166.8252765,31.92931171631831L167.1506125,31.899218770784913L167.4759485,31.874042387823586L167.80128449999998,31.859991296409447L168.1266205,31.85799922323953L168.4519565,31.833964140673867L168.7772925,31.817722573488506L169.10262849999998,31.803642492525192L169.4279645,31.788536313725288L169.7533005,31.778192283840646L170.0786365,31.766279112708894L170.40397249999998,31.755536196941204L170.7293085,31.749108554576928L171.0546445,31.744443939983586L171.3799805,31.740820543881107L171.70531649999998,31.738393006870663L172.0306525,31.736959872997172L172.3559885,31.736455344439022L172.6813245,31.736042475801355L173.00666049999998,31.738570421597323L173.3319965,31.747440179119437L173.6573325,31.750827592172193L173.9826685,31.750491782693164L174.30800449999998,31.749963614809047L174.6333405,31.747756785896605L174.9586765,31.745224039867473L175.2840125,31.746461197669962L175.60934849999998,31.74714238090125L175.9346845,31.749683201435715L176.2600205,31.747116244442715L176.5853565,31.74256953778975L176.91069249999998,31.743012519047006L177.2360285,31.744825710077283L177.5613645,31.740799124437743L177.8867005,31.73947035329763L178.2120365,31.73785902573997L178.5373725,31.736825836518758L178.8627085,31.737167862479815L179.1880445,31.74135965710379L179.5133805,31.74126052184201L179.8387165,31.741460575732706L180.1640525,31.74388322715349L180.4893885,31.747208639091596L180.8147245,31.75006170994419L181.1400605,31.760720721441796L181.4653965,31.76544122192756L181.7907325,31.761478079849798L182.1160685,31.757668979528788L182.4414045,31.762087671761336L182.7667405,31.756209690255684L183.0920765,31.747640075017692L183.4174125,31.74427808255402L183.7427485,31.740767806088915L184.0680845,31.742195541848357L184.3934205,31.749275743213392L184.7187565,31.756849534062813L185.0440925,31.76206226221285L185.3694285,31.753061162394975L185.6947645,31.746362072803212L186.0201005,31.74400243621392L186.3454365,31.750158438385803L186.6707725,31.772962570966055L186.9961085,31.798975983131378L187.3214445,31.825623323507852L187.6467805,31.868930809358066L187.9721165,31.882579841476943L188.2974525,31.868039573587346L188.6227885,31.84804525429781L188.9481245,31.82070365302628L189.2734605,31.809109144194768L189.5987965,31.79854912672139L189.9241325,31.802863106743008L190.2494685,31.806837442089417L190.5748045,31.800503476402724L190.9001405,31.790303747354223L191.2254765,31.779720510673805L191.5508125,31.76916293215026L191.8761485,31.760811707179712L192.2014845,31.75446029260482L192.5268205,31.749747861353907L192.8521565,31.745189665976817L193.1774925,31.74148979140741L193.5028285,31.738856421298973L193.8281645,31.73722056902017L194.1535005,31.737240983651116L194.4788365,31.738609755731602L194.8041725,31.742099552305053L195.12950850000001,31.744350358417535L195.4548445,31.74414438626092L195.7801805,31.746904358061354L196.1055165,31.750175645028875L196.43085250000001,31.75107688868563L196.7561885,31.74853037495128L197.0815245,31.74450066956442L197.4068605,31.750210669208276L197.73219650000001,31.763904901552067L198.0575325,31.780483147162265L198.3828685,31.775225414827297L198.7082045,31.759481062223728L199.03354050000002,31.750625949142513L199.3588765,31.74598812509533L199.6842125,31.74400742414301L200.0095485,31.756800699806455L200.33488450000002,31.77449969749888L200.6602205,31.776752863136387L200.9855565,31.779451477810223L201.3108925,31.779844645298855L201.63622850000002,31.784536400419896L201.9615645,31.78081026493457L202.2869005,31.787637939830947L202.61223650000002,31.779559785857646L202.93757250000002,31.772725639648822L203.2629085,31.77140232782684L203.5882445,31.784304850200886L203.91358050000002,31.796268334925195L204.23891650000002,31.803020908995475L204.5642525,31.80330466847129L204.8895885,31.801391853613715L205.21492450000002,31.80000575459715L205.54026050000002,31.798805917561353L205.8655965,31.792171030530863L206.1909325,31.790829207606166L206.51626850000002,31.79689575691776L206.84160450000002,31.800725056554086L207.1669405,31.79315577774756L207.4922765,31.79594154878827L207.81761250000002,31.81072556702255L208.14294850000002,31.820085624027L208.4682845,31.805720477402843L208.7936205,31.782937113305323L209.11895650000002,31.767012761350713L209.44429250000002,31.75576211881943L209.7696285,31.750753032400056L210.0949645,31.752222296734956L210.42030050000002,31.755302358618227L210.74563650000002,31.75573351545847L211.0709725,31.753712978809027L211.39630849999998,31.74911236641412L211.72164450000002,31.74342468506657L212.04698050000002,31.74062469968469L212.37231649999998,31.74094026136627L212.69765249999998,31.74464011168086L213.02298850000003,31.75209976287713L213.34832450000002,31.761184564079365L213.67366049999998,31.765338524024315L213.99899649999998,31.76614543110568L214.32433250000003,31.762607536576812L214.6496685,31.755106237779962L214.97500449999998,31.75041005275369L215.30034049999998,31.745365923348714L215.6256765,31.74330968428539L215.9510125,31.745738101085013L216.27634849999998,31.748042412381697L216.60168449999998,31.747913811076465L216.9270205,31.74666798811615L217.2523565,31.74951475296626L217.57769249999998,31.758117088813176L217.90302849999998,31.769897388501136L218.2283645,31.784366089486323L218.5537005,31.797094246112582L218.87903649999998,31.812076585509327L219.20437249999998,31.81967249719048L219.5297085,31.818569313201458L219.8550445,31.8121402926192L220.18038049999998,31.797469171434713L220.50571649999998,31.793816458712044L220.8310525,31.795157223792227L221.1563885,31.787329879115838L221.48172449999998,31.77509488452789L221.80706049999998,31.76584132572271L222.1323965,31.762552577483838L222.4577325,31.76389141824867L222.78306849999998,31.772089962643527L223.10840449999998,31.788132127678352L223.4337405,31.81173685954701L223.7590765,31.842795128491346L224.08441249999998,31.8693806140821L224.40974849999998,31.892265414415533L224.7350845,31.90551117532573L225.0604205,31.927904322450747L225.38575649999999,31.976817293720014L225.7110925,32.025694334361894L226.0364285,32.06505038120251L226.3617645,32.097439160877556L226.68710049999999,32.12724251365708L227.0124365,32.15216969473123L227.3377725,32.17334201866167L227.6631085,32.21516765965622L227.98844449999999,32.23348495451767L228.3137805,32.237135167249974L228.6391165,32.256820522279234L228.9644525,32.25008780524312L229.2897885,32.22284619443057L229.6151245,32.19972917390661L229.9404605,32.15821470669584L230.2657965,32.11159712676544L230.5911325,32.070532130293735L230.9164685,32.06246716127358L231.2418045,32.09134057542356L231.5671405,32.098964501504135L231.8924765,32.0684035456019L232.2178125,32.03185877775177L232.5431485,31.996758249981674L232.8684845,31.977258161455484L233.1938205,31.97606475099927L233.5191565,31.947791967461548L233.8444925,31.91607629504671L234.1698285,31.906460318314927L234.4951645,31.90783549071225L234.8205005,31.889265630568293L235.1458365,31.886887549117354L235.4711725,31.891088234901193L235.7965085,31.884923275820263L236.1218445,31.87272226417109L236.4471805,31.852704810325584L236.7725165,31.840831650165597L237.0978525,31.84696742983733L237.4231885,31.862112198557245L237.7485245,31.87527240200653L238.0738605,31.88440433340226L238.3991965,31.891721362519654L238.7245325,31.884058289517L239.0498685,31.868756888383057L239.3752045,31.843970748494794L239.7005405,31.81946307145202L240.0258765,31.803027728599815L240.3512125,31.794905558600885L240.6765485,31.79060640244838L241.0018845,31.791325418142762L241.3272205,31.790727740916566L241.6525565,31.787151352666264L241.9778925,31.787548057829163L242.3032285,31.78681433342254L242.6285645,31.794575858964674L242.9539005,31.803272920163952L243.2792365,31.80586940022392L243.6045725,31.797769415741982L243.9299085,31.79073657349033L244.2552445,31.77708533432585L244.5805805,31.763617881164635L244.9059165,31.756041390116433L245.2312525,31.75265585857887L245.5565885,31.749045449961788L245.8819245,31.746606089421526L246.2072605,31.74944215401912L246.5325965,31.75620397174631L246.8579325,31.767550677589895L247.1832685,31.77335602063542L247.5086045,31.771994069263314L247.8339405,31.77254549313946L248.1592765,31.7827839470203L248.4846125,31.791535195686123L248.8099485,31.777188030931644L249.1352845,31.766427250999847L249.4606205,31.76206064374497L249.7859565,31.765588038604314L250.11129250000002,31.76669651382284L250.4366285,31.76194003252059L250.7619645,31.76019067661687L251.0873005,31.762657612079053L251.41263650000002,31.77160921398952L251.7379725,31.776151775477597L252.0633085,31.776276680656572L252.3886445,31.78693597604529L252.71398050000002,31.79512491027994L253.0393165,31.81669604500425L253.3646525,31.822659949118957L253.6899885,31.824226140505445L254.01532450000002,31.828388918488404L254.3406605,31.825165497292577L254.6659965,31.816789090584752L254.9913325,31.822093345030112L255.31666850000002,31.836295574753503L255.6420045,31.839031695302403L255.9673405,31.84803390229972L256.29267649999997,31.853913555626796L256.6180125,31.865976580166986L256.9433485,31.888342119432664L257.2686845,31.90110204289981L257.5940205,31.91030539925608L257.9193565,31.919130449229744L258.2446925,31.933938494961044L258.5700285,31.955437178397496L258.89536449999997,31.98301973467794L259.2207005,32.01012872347008L259.5460365,32.01846773531632L259.8713725,32.00903375093099L260.1967085,32.00621240211567L260.5220445,32.01954244710166L260.8473805,32.041403719739414L261.1727165,32.03585734821734L261.4980525,32.00264300830919L261.8233885,31.988329867621154L262.1487245,31.98451848433407L262.4740605,31.988637794159466L262.7993965,31.984584789668435L263.1247325,31.999578049365297L263.4500685,32.004122677329676L263.7754045,31.97815347869868L264.1007405,31.92527737672931L264.4260765,31.876478232610403L264.7514125,31.846860747007113L265.0767485,31.83765340329593L265.4020845,31.84519553047584L265.7274205,31.85926701887416L266.0527565,31.8691652697826L266.3780925,31.87852947938801L266.7034285,31.881035093503034L267.0287645,31.893438933977247L267.3541005,31.908024487773513L267.6794365,31.930046812754174L268.0047725,31.95629807157991L268.3301085,31.95986350549135L268.6554445,31.949262160166025L268.9807805,31.919484350610784L269.3061165,31.87385571385498L269.6314525,31.84168090572999L269.9567885,31.825900114482923L270.2821245,31.81750523965599L270.6074605,31.816136510696282L270.9327965,31.825047083148434L271.2581325,31.86632846825929L271.5834685,31.920399862463277L271.9088045,31.958044716875765L272.2341405,31.96081341256361L272.5594765,31.96096947759188L272.8848125,31.95946893766732L273.2101485,31.95045814347062L273.5354845,31.94948111539823L273.8608205,31.966263376270184L274.1861565,31.979067658805185" style="fill: none;" fill="none"></path></g></g></g></g><g opacity="0.2"><g><g><g><path stroke="rgb(0, 119, 187)" stroke-width="2px" d="M29.2081485,30.984716161092116L29.5334845,31.05849692026775L29.8588205,31.124342621697327L30.1841565,31.150209363301595L30.5094925,31.148885281880688L30.8348285,31.179086409674753L31.1601645,31.264570766025123L31.4855005,31.50860349867079L31.8108365,32.087683529324L32.1361725,33.05083204905193L32.4615085,34.13233307732476L32.7868445,35.410352685716425L33.1121805,36.87367767757839L33.4375165,40.2853450987074L33.7628525,46.17646814982097L34.0881885,50.82893755171033L34.4135245,53.36266118685405L34.7388605,55.79789990054236L35.0641965,56.187150838639994L35.3895325,58.23791530397204L35.7148685,58.55013221767213L36.0402045,58.76935292349921L36.3655405,60.580752302540674L36.6908765,62.78272104263306L37.0162125,63.51912439134385L37.3415485,65.64483856095208L37.6668845,66.20937915907966L37.9922205,67.9746423403422L38.317556499999995,67.87213542726305L38.642892499999995,67.80750063790215L38.968228499999995,67.8647049162123L39.293564499999995,67.88438506656222L39.618900499999995,67.87230140897964L39.944236499999995,67.7104833814833L40.269572499999995,67.6293202082316L40.594908499999995,67.6075266202291L40.920244499999995,67.51770882076688L41.245580499999996,67.58824256261188L41.570916499999996,67.74550552368164L41.896252499999996,67.62661168840197L42.221588499999996,67.58873956468369L42.546924499999996,67.71481116612753L42.872260499999996,67.64278924730088L43.197596499999996,67.52728672027588L43.522932499999996,67.33012024561563L43.848268499999996,67.4039453294542L44.173604499999996,67.4269064479404L44.498940499999996,67.54397259818184L44.824276499999996,67.49215612411498L45.149612499999996,67.52342670228745L45.474948499999996,67.41947593688965L45.800284500000004,67.33359077241685L46.125620500000004,67.21994658046297L46.450956500000004,67.18557799127366L46.776292500000004,67.1975291464064L47.101628500000004,67.26030512915717L47.426964500000004,67.31711803012423L47.752300500000004,67.35217600928412L48.077636500000004,67.35086513095433L48.402972500000004,67.30730719036525L48.728308500000004,67.14786147541469L49.053644500000004,67.0770339647929L49.378980500000004,67.05445762210421L49.704316500000004,67.01552689340379L50.029652500000005,66.97282951143052L50.354988500000005,66.94499881002639L50.680324500000005,66.94988112449646L51.005660500000005,66.92422280311584L51.330996500000005,66.73288407855563L51.656332500000005,64.39159266683791L51.981668500000005,61.65969087017906L52.307004500000005,55.94625879128774L52.632340500000005,48.18035975562202L52.9576765,38.517328601413304L53.2830125,35.233018196953665L53.6083485,34.25213415357803L53.9336845,33.30859033796523L54.2590205,32.50778325398764L54.5843565,32.081329070197214L54.9096925,31.915030479431152L55.2350285,31.778599166870126L55.5603645,31.748811107211644L55.8857005,31.773348108927415L56.2110365,31.77109792497423L56.5363725,31.81337045033772L56.8617085,31.828516281975638L57.1870445,31.856884066263834L57.5123805,31.935648049248584L57.8377165,32.344417635599775L58.1630525,32.63146226671006L58.4883885,32.4922903696696L58.8137245,32.19617898729112L59.1390605,32.11200739542644L59.4643965,32.29721281263563L59.7897325,32.60297565460205L60.1150685,32.87051366170247L60.4404045,32.82748290167915L60.7657405,32.521548419528536L61.0910765,32.34414414299859L61.4164125,32.345883178710935L61.7417485,32.64876774681939L62.0670845,32.87544973161485L62.3924205,33.14652805328369L62.7177565,33.26529928843181L63.0430925,33.35235858493382L63.3684285,33.367430856492774L63.6937645,32.940116585625546L64.0191005,32.6448011610243L64.3444365,32.33511888715957L64.6697725,32.34200712839763L64.9951085,32.24320651160346L65.3204445,32.06421786414252L65.6457805,32.08127059936524L65.9711165,32.184860165913896L66.2964525,32.04921349419487L66.6217885,32.09581663343641L66.9471245,32.184330156114356L67.2724605,32.24818219078911L67.5977965,32.35789233313666L67.9231325,32.432768948872884L68.2484685,32.42364372677273L68.5738045,32.41182884640164L68.8991405,32.22267193264431L69.2244765,32.10047543843587L69.5498125,32.04948887295193L69.87514850000001,32.2040612326728L70.2004845,32.17795117696127L70.52582050000001,32.113288095262305L70.8511565,32.15785984463162L71.17649250000001,32.23503945668538L71.5018285,32.2350073920356L71.82716450000001,32.214591640896266L72.1525005,32.058406617906364L72.4778365,32.07500290340847L72.8031725,32.22539554172092L73.1285085,32.41766838497586L73.4538445,32.463637775844994L73.7791805,32.40044966803657L74.1045165,32.22519183688694L74.4298525,32.031536441379124L74.7551885,32.04809123145209L75.0805245,32.22057452731662L75.4058605,32.24608855777317L75.7311965,32.45195304022896L76.0565325,32.57678638034397L76.3818685,32.64190402560764L76.7072045,32.567121717664925L77.0325405,32.623534753587506L77.3578765,32.54676066504585L77.6832125,32.60052553812662L78.0085485,32.68917486402723L78.3338845,33.441486994425446L78.6592205,33.86167159610324L78.9845565,33.75667118496364L79.3098925,33.76130735609267L79.6352285,33.76205993228489L79.9605645,33.85985900031196L80.2859005,33.55022576649983L80.6112365,33.32998877631293L80.9365725,32.70552594926622L81.2619085,32.627058092753096L81.5872445,32.47904578314888L81.9125805,32.22996946970623L82.23791650000001,32.35605521731906L82.5632525,32.55130818684895L82.88858850000001,32.56118975745308L83.2139245,32.40162662929959L83.53926050000001,32.49647386338975L83.8645965,32.57571127149793L84.18993250000001,32.77351620992024L84.5152685,32.66730488671196L84.84060450000001,32.59278475443522L85.1659405,32.59181527031792L85.49127650000001,32.55291330549453L85.8166125,32.84653307596843L86.14194850000001,32.98303983476428L86.4672845,33.06794514126248L86.79262050000001,32.996786138746465L87.11795649999999,32.84273058573405L87.44329250000001,32.79032751719158L87.76862849999999,32.67378194597032L88.09396450000001,32.587539354960114L88.41930049999999,32.498403400845L88.7446365,32.30147929721408L89.06997249999999,32.27467702229817L89.3953085,32.15567190382217L89.72064449999999,32.01589455074734L90.0459805,31.976413536071775L90.37131649999999,31.973655976189505L90.6966525,31.85085591210259L91.02198849999999,31.846844058566624L91.3473245,31.906923781500918L91.67266049999999,31.82658863067627L91.9979965,31.749939028422038L92.32333249999999,31.82526077694363L92.6486685,31.948439958360453L92.97400449999999,32.02268093956842L93.2993405,32.11776771545411L93.62467649999999,32.26319976382785L93.9500125,32.28638250562881L94.27534849999999,32.257829878065316L94.6006845,32.202688111199265L94.92602049999999,32.23657101525201L95.2513565,32.037700398763015L95.5766925,31.927369711134176L95.9020285,31.996350203620068L96.2273645,31.967846616109206L96.5527005,31.91735610961913L96.8780365,31.93114202287461L97.2033725,31.865979109870068L97.5287085,31.864615419175895L97.8540445,31.873254013061526L98.1793805,31.85213849809435L98.5047165,31.81304791768391L98.8300525,31.889961581759984L99.1553885,31.99965663486056L99.4807245,31.9849257575141L99.8060605,31.958928871154782L100.1313965,31.945535278320303L100.4567325,31.919042332967116L100.7820685,31.90969077216255L101.1074045,31.78312028249105L101.4327405,31.749442969428173L101.7580765,31.75004465315078L102.0834125,31.738895585801856L102.4087485,31.754920366075297L102.7340845,31.734785652160635L103.0594205,31.744550281100807L103.3847565,31.76116920047337L103.7100925,31.75870588090685L104.0354285,31.7412947760688L104.3607645,31.743467627631286L104.6861005,31.773691389295788L105.0114365,31.793933614095046L105.3367725,31.768479940626364L105.6621085,31.888328170776358L105.98744450000001,31.883497725592715L106.3127805,31.836075994703503L106.63811650000001,31.821043332417812L106.9634525,31.747439871893985L107.28878850000001,31.736766115824388L107.6141245,31.74101939731174L107.93946050000001,31.73739609188504L108.2647965,31.76383433871799L108.59013250000001,31.875683381822373L108.9154685,31.86835755242241L109.24080450000001,31.854049173990894L109.5661405,31.88626283009847L109.89147650000001,31.877030097113717L110.2168125,31.828269195556643L110.54214850000001,31.83922021653916L110.8674845,31.880147912767203L111.19282050000001,31.938743231031637L111.5181565,31.934450340271L111.84349250000001,31.914221318562817L112.1688285,32.007629415724004L112.49416450000001,32.084550624423564L112.8195005,32.15258615281846L113.14483650000001,32.09603919982911L113.4701725,32.263380834791406L113.79550850000001,32.3741830613878L114.1208445,32.341750611199274L114.44618050000001,32.202984237670904L114.77151649999999,32.067228168911406L115.09685250000001,32.01076986524793L115.42218849999999,31.996538819207093L115.74752450000001,32.04519975450303L116.07286049999999,31.907525465223525L116.3981965,31.755214606391064L116.72353249999999,31.754175334506563L117.0488685,31.776043425665957L117.37420449999999,31.77298408084446L117.6995405,31.7751286400689L118.02487649999999,31.79471636878119L118.3502125,31.774675962660055L118.67554849999999,31.765611097547744L119.0008845,31.764007865058044L119.32622049999999,31.84296989440918L119.6515565,31.79422974056667L119.97689249999999,31.78600421481662L120.3022285,31.853836038377555L120.62756449999999,31.90639188554552L120.9529005,31.932741483052578L121.27823649999999,31.9704193327162L121.6035725,31.891702503628203L121.92890849999999,31.874046198527015L122.2542445,31.933305443657776L122.57958049999999,32.0389622370402L122.9049165,32.04841942257351L123.23025249999999,32.00419472588433L123.5555885,32.01241082085504L123.88092449999999,32.024110645718046L124.2062605,31.96761650509304L124.53159649999999,31.940659565395787L124.8569325,31.916043345133463L125.18226849999999,31.854096327887646L125.5076045,31.81684852176243L125.83294049999999,31.86904034084744L126.1582765,31.891764746771926L126.48361249999999,31.83037414550782L126.8089485,31.84200795491537L127.13428449999999,31.856057929992673L127.4596205,31.8288350423177L127.78495649999999,31.79162118699816L128.1102925,31.7598677529229L128.43562849999998,31.744718148973252L128.7609645,31.745772510104707L129.0863005,31.74099110497369L129.4116365,31.7377789815267L129.7369725,31.73492711385091L130.0623085,31.73481960296631L130.38764450000002,31.734925227695033L130.7129805,31.749233606126566L131.0383165,31.828891626993812L131.3636525,31.838548745049366L131.6889885,31.787026511298293L132.0143245,31.781396336025658L132.3396605,31.776671515570754L132.6649965,31.774664645724833L132.9903325,31.843912972344285L133.3156685,31.849005593193894L133.6410045,31.83198869493272L133.9663405,31.812791400485573L134.2916765,31.858355267842605L134.6170125,31.898577541775175L134.9423485,31.905784543355306L135.2676845,31.83732651604547L135.5930205,31.76042605506049L135.9183565,31.870739767286523L136.2436925,31.855829705132383L136.5690285,31.735153452555345L136.8943645,31.73727349175347L137.2197005,31.738252406650126L137.5450365,31.734940316942005L137.8703725,31.75507314470079L138.1957085,31.7526588651869L138.5210445,31.73858059777153L138.8463805,31.736026742723258L139.1717165,31.740527110629603L139.4970525,31.8218034532335L139.8223885,31.77958939870198L140.1477245,31.738997438218863L140.4730605,31.737882720099563L140.7983965,31.737250857883033L141.1237325,31.746640141805013L141.4490685,31.77540590498182L141.7744045,31.802155367533363L142.0997405,31.73477244906956L142.4250765,31.738141123453776L142.7504125,31.738573053148063L143.0757485,31.744923739963106L143.4010845,31.749867354498974L143.7264205,31.757559098137747L144.0517565,31.751821411980515L144.3770925,31.751476245456264L144.7024285,31.766259935167103L145.02776450000002,31.777644771999782L145.3531005,31.753056844075527L145.6784365,31.745035023159453L146.0037725,31.74555748833551L146.32910850000002,31.768934504191087L146.6544445,31.7615464316474L146.9797805,31.759773445129397L147.3051165,31.748528183831116L147.63045250000002,31.74183610280354L147.9557885,31.73614745669895L148.2811245,31.735249646504723L148.6064605,31.741373994615348L148.93179650000002,31.75601245032416L149.2571325,31.770943260192862L149.5824685,31.75959237416586L149.9078045,31.764718945821127L150.23314050000002,31.760039393107096L150.5584765,31.796896764967187L150.8838125,31.751810095045297L151.2091485,31.76183312733968L151.53448450000002,31.751544147067598L151.8598205,31.740595012240938L152.1851565,31.76118994818793L152.5104925,31.788463762071387L152.83582850000002,31.748233943515352L153.1611645,31.744297536214184L153.4865005,31.742886691623262L153.81183650000003,31.750659539964463L154.13717250000002,31.74152677324082L154.4625085,31.738186391194652L154.7878445,31.760097863939066L155.11318050000003,31.755697462293835L155.43851650000002,31.73535715738932L155.7638525,31.734883732265892L156.08918849999998,31.735302458869082L156.41452450000003,31.743892012702087L156.73986050000002,31.73648885091145L157.06519649999998,31.74217561086018L157.39053249999998,31.738739034864633L157.71586850000003,31.736511484781907L158.04120450000002,31.734787538316514L158.36654049999999,31.7347309536404L158.69187649999998,31.734755473666713L159.01721250000003,31.736835903591576L159.3425485,31.746313836839466L159.66788449999999,31.762095303005644L159.99322049999998,31.78618905809191L160.3185565,31.82003612518311L160.6438925,31.877082909478077L160.96922849999999,31.848243586222328L161.29456449999998,31.825879436069066L161.6199005,31.846191448635533L161.9452365,31.871445189581973L162.2705725,31.890651914808483L162.59590849999998,31.89383385976155L162.9212445,31.9262719684177L163.2465805,31.917290094163675L163.5719165,31.9281845304701L163.89725249999998,31.941121673583975L164.2225885,32.00568101671008L164.5479245,32.00047899881999L164.8732605,31.96554173363579L165.19859649999998,32.07522546980117L165.5239325,32.11116805606418L165.8492685,32.076862653096526L166.1746045,31.956510819329154L166.49994049999998,31.87981029086642L166.8252765,31.877577082316087L167.1506125,31.854079352484817L167.4759485,31.83627781338162L167.80128449999998,31.838914659288196L168.1266205,31.855011113484704L168.4519565,31.797911516825355L168.7772925,31.793360222710508L169.10262849999998,31.782522371080177L169.4279645,31.765877045525443L169.7533005,31.762676239013672L170.0786365,31.74840935601128L170.40397249999998,31.739421823289664L170.7293085,31.73946709103054L171.0546445,31.737447018093526L171.3799805,31.735385449727367L171.70531649999998,31.73475170135498L172.0306525,31.73481017218695L172.3559885,31.735698551601836L172.6813245,31.735423172844776L173.00666049999998,31.742362340291347L173.3319965,31.760744815402568L173.6573325,31.755908711751296L173.9826685,31.749988068474668L174.30800449999998,31.749171362982864L174.6333405,31.744446542527943L174.9586765,31.74142492082383L175.2840125,31.748316934373634L175.60934849999998,31.74816415574816L175.9346845,31.753494432237403L176.2600205,31.743265808953186L176.5853565,31.735749477810323L176.91069249999998,31.74367699093289L177.2360285,31.747545496622728L177.5613645,31.734759245978466L177.8867005,31.73747719658745L178.2120365,31.73544203440348L178.5373725,31.735276052686913L178.8627085,31.737680901421445L179.1880445,31.747647349039713L179.5133805,31.74111181894938L179.8387165,31.74176065656874L180.1640525,31.74751720428466L180.4893885,31.752196756998707L180.8147245,31.754341316223147L181.1400605,31.776709238688145L181.4653965,31.77252197265625L181.7907325,31.755533366733125L182.1160685,31.751955329047302L182.4414045,31.768715710110136L182.7667405,31.747392717997233L183.0920765,31.734785652160635L183.4174125,31.739235093858497L183.7427485,31.73550239139133L184.0680845,31.744337145487467L184.3934205,31.759896045260966L184.7187565,31.76821022033691L185.0440925,31.769881354437942L185.3694285,31.739559512668187L185.6947645,31.736313438415518L186.0201005,31.740462981330026L186.3454365,31.759392441643616L186.6707725,31.807168769836423L186.9961085,31.837996101379385L187.3214445,31.865594334072533L187.6467805,31.93389203813341L187.9721165,31.903053389655227L188.2974525,31.84622917175292L188.6227885,31.818053775363502L188.9481245,31.77969125111897L189.2734605,31.79171738094754L189.5987965,31.782709100511344L189.9241325,31.809334076775443L190.2494685,31.81279894510906L190.5748045,31.791002527872728L190.9001405,31.775004153781474L191.2254765,31.76384565565321L191.5508125,31.75332656436496L191.8761485,31.748284869723854L192.2014845,31.744933170742467L192.5268205,31.74267921447753L192.8521565,31.73835237291124L193.1774925,31.735939979553223L193.5028285,31.73490636613633L193.8281645,31.734766790601952L194.1535005,31.737271605597595L194.4788365,31.74066291385227L194.8041725,31.747334247165263L195.12950850000001,31.747726567586266L195.4548445,31.743835428025992L195.7801805,31.751044315761998L196.1055165,31.755082575480152L196.43085250000001,31.75242875417073L196.7561885,31.744710604349766L197.0815245,31.738456111484105L197.4068605,31.758775668674037L197.73219650000001,31.784446250067813L198.0575325,31.805350515577526L198.3828685,31.76733881632487L198.7082045,31.735864533318406L199.03354050000002,31.73734327952068L199.3588765,31.73903138902452L199.6842125,31.741036372714564L200.0095485,31.775990613301598L200.33488450000002,31.80104819403755L200.6602205,31.780132611592617L200.9855565,31.783499399820958L201.3108925,31.78043439653185L201.63622850000002,31.79157403310139L201.9615645,31.775221061706546L202.2869005,31.797879452175557L202.61223650000002,31.767442554897734L202.93757250000002,31.76247442033555L203.2629085,31.769417360093858L203.5882445,31.803658633761934L203.91358050000002,31.814213562011716L204.23891650000002,31.813149770100917L204.5642525,31.803730307684997L204.8895885,31.798522631327305L205.21492450000002,31.797926606072327L205.54026050000002,31.79700616200764L205.8655965,31.782218699985087L206.1909325,31.788816473219125L206.51626850000002,31.805995580885153L206.84160450000002,31.80646900600858L207.1669405,31.781801859537754L207.4922765,31.800120205349394L207.81761250000002,31.832901594373922L208.14294850000002,31.834125709533694L208.4682845,31.784172757466628L208.7936205,31.748762067159017L209.11895650000002,31.74312623341879L209.44429250000002,31.738886155022513L209.7696285,31.743239402770996L210.0949645,31.754426193237308L210.42030050000002,31.75992245144314L210.74563650000002,31.75638025071885L211.0709725,31.7506821738349L211.39630849999998,31.74221144782173L211.72164450000002,31.734893163045253L212.04698050000002,31.73642472161187L212.37231649999998,31.741413603888613L212.69765249999998,31.750189887152786L213.02298850000003,31.763289239671497L213.34832450000002,31.7748117658827L213.67366049999998,31.771569463941784L213.99899649999998,31.7673557917277L214.32433250000003,31.757300694783535L214.6496685,31.743854289584696L214.97500449999998,31.743365775214297L215.30034049999998,31.73779972924126L215.6256765,31.74022532569037L215.9510125,31.74938072628445L216.27634849999998,31.75149887932672L216.60168449999998,31.747720909118655L216.9270205,31.74479925367568L217.2523565,31.753784900241435L217.57769249999998,31.771020592583557L217.90302849999998,31.787567838033034L218.2283645,31.80606914096409L218.5537005,31.81618648105198L218.87903649999998,31.834550094604495L219.20437249999998,31.83106636471218L219.5297085,31.816914537217887L219.8550445,31.80249676174588L220.18038049999998,31.775462489657933L220.50571649999998,31.788337389628087L220.8310525,31.797168371412496L221.1563885,31.775588862101234L221.48172449999998,31.756742392645947L221.80706049999998,31.751960987514913L222.1323965,31.757619455125596L222.4577325,31.765899679395883L222.78306849999998,31.784387779235843L223.10840449999998,31.812195375230576L223.4337405,31.84714395735L223.7590765,31.889382531907813L224.08441249999998,31.90925884246826L224.40974849999998,31.926592614915638L224.7350845,31.92537981669108L225.0604205,31.96149404313829L225.38575649999999,32.05018675062392L225.7110925,32.09900989532471L226.0364285,32.124084451463496L226.3617645,32.14602233039008L226.68710049999999,32.17194754282634L227.0124365,32.189560466342506L227.3377725,32.2051005045573L227.6631085,32.27790612114801L227.98844449999999,32.260960896809905L228.3137805,32.24261048634846L228.6391165,32.28634855482313L228.9644525,32.23998872968886L229.2897885,32.181983778211816L229.6151245,32.16505364312066L229.9404605,32.09594300587971L230.2657965,32.04167075686984L230.5911325,32.00893463558621L230.9164685,32.050369707743336L231.2418045,32.13465069664849L231.5671405,32.110400390625L231.8924765,32.022562111748584L232.2178125,31.97704162597657L232.5431485,31.944107458326553L232.8684845,31.948008028666187L233.1938205,31.97427463531494L233.5191565,31.905382792154942L233.8444925,31.868502786424415L234.1698285,31.892036353217236L234.4951645,31.909898249308277L234.8205005,31.86141084035237L235.1458365,31.88332042694091L235.4711725,31.897389263576933L235.7965085,31.875675837198887L236.1218445,31.854420746697315L236.4471805,31.82267862955729L236.7725165,31.823021909925668L237.0978525,31.8561710993449L237.4231885,31.88482935163711L237.7485245,31.89501270718045L238.0738605,31.898102230495873L238.3991965,31.90269690619574L238.7245325,31.872563680013027L239.0498685,31.84580478668212L239.3752045,31.806791538662374L239.7005405,31.782701555887858L240.0258765,31.77837471432157L240.3512125,31.78272230360244L240.6765485,31.784157668219677L241.0018845,31.792403941684306L241.3272205,31.78983122507731L241.6525565,31.7817867702908L241.9778925,31.78814311557345L242.3032285,31.785713746812608L242.6285645,31.806218147277832L242.9539005,31.81631851196289L243.2792365,31.809764120313854L243.6045725,31.785619439019104L243.9299085,31.780187310112854L244.2552445,31.75660847557916L244.5805805,31.743416701422802L244.9059165,31.744676653544108L245.2312525,31.747577561272507L245.5565885,31.743629837036142L245.8819245,31.742947048611107L246.2072605,31.753696250915525L246.5325965,31.766346698337138L246.8579325,31.78457073635526L247.1832685,31.78206403520372L247.5086045,31.76995114220513L247.8339405,31.773372628953727L248.1592765,31.798141627841524L248.4846125,31.8046620686849L248.8099485,31.755667283799912L249.1352845,31.750286081102164L249.4606205,31.755510732862685L249.7859565,31.770879130893285L250.11129250000002,31.76835922665067L250.4366285,31.754805310567214L250.7619645,31.757566642761233L251.0873005,31.76635801527236L251.41263650000002,31.7850366168552L251.7379725,31.78296561770968L252.0633085,31.776464038425026L252.3886445,31.802924919128415L252.71398050000002,31.80740831163195L253.0393165,31.849052747090663L253.3646525,31.831605805291062L253.6899885,31.826575427585176L254.01532450000002,31.83463308546278L254.3406605,31.820330365498855L254.6659965,31.804224480523008L254.9913325,31.83004972669813L255.31666850000002,31.85759891933865L255.6420045,31.843135876125768L255.9673405,31.861537212795675L256.29267649999997,31.862733035617403L256.6180125,31.884071116977275L256.9433485,31.921890428331153L257.2686845,31.920241928100577L257.5940205,31.924110433790414L257.9193565,31.93236802419026L258.2446925,31.956150563557934L258.5700285,31.987685203552246L258.89536449999997,32.02439356909858L259.2207005,32.05079220665826L259.5460365,32.03097625308566L259.8713725,31.99488277435303L260.1967085,32.00198037889268L260.5220445,32.039537514580616L260.8473805,32.074195628696025L261.1727165,32.027537790934254L261.4980525,31.952821498447L261.8233885,31.966860156589085L262.1487245,31.978801409403477L262.4740605,31.994816758897574L262.7993965,31.978505282931856L263.1247325,32.022067938910595L263.4500685,32.01093961927625L263.7754045,31.939199680752218L264.1007405,31.84596322377522L264.4260765,31.803279516432028L264.7514125,31.80243451860216L265.0767485,31.823842387729222L265.4020845,31.856508721245664L265.7274205,31.88037425147162L266.0527565,31.884012646145287L266.3780925,31.89257579379612L266.7034285,31.884793514675557L267.0287645,31.912044694688575L267.3541005,31.929902818467884L267.6794365,31.963080300225144L268.0047725,31.99567495981852L268.3301085,31.96521165635851L268.6554445,31.933360142178014L268.9807805,31.874817636277943L269.3061165,31.80541275872125L269.6314525,31.793418693542478L269.9567885,31.802228927612305L270.2821245,31.80491292741563L270.6074605,31.81408341725668L270.9327965,31.83841294182672L271.2581325,31.928250545925557L271.5834685,32.00150695376926L271.9088045,32.01451199849446L272.2341405,31.96496645609537L272.5594765,31.961203575134277L272.8848125,31.957218127780482L273.2101485,31.936941952175566L273.5354845,31.948015573289652L273.8608205,31.991436767578122L274.1861565,31.998274082607686" style="fill: none;" fill="none"></path></g></g></g></g></g></g><g transform="translate(41, 178)" clip-path="url(#clip_1)"><clipPath id="clip_1"><rect width="288" height="21"></rect></clipPath><g><g><line x1="0" y1="0" x2="0" y2="5" style="visibility: inherit;" fill="rgb(0, 0, 0)" stroke="rgb(204, 204, 204)" stroke-width="1px"></line><line x1="28.8828125" y1="0" x2="28.8828125" y2="5" style="visibility: inherit;" fill="rgb(0, 0, 0)" stroke="rgb(204, 204, 204)" stroke-width="1px"></line><line x1="57.765625" y1="0" x2="57.765625" y2="5" style="visibility: inherit;" fill="rgb(0, 0, 0)" stroke="rgb(204, 204, 204)" stroke-width="1px"></line><line x1="86.6484375" y1="0" x2="86.6484375" y2="5" style="visibility: inherit;" fill="rgb(0, 0, 0)" stroke="rgb(204, 204, 204)" stroke-width="1px"></line><line x1="115.53125" y1="0" x2="115.53125" y2="5" style="visibility: inherit;" fill="rgb(0, 0, 0)" stroke="rgb(204, 204, 204)" stroke-width="1px"></line><line x1="144.4140625" y1="0" x2="144.4140625" y2="5" style="visibility: inherit;" fill="rgb(0, 0, 0)" stroke="rgb(204, 204, 204)" stroke-width="1px"></line><line x1="173.296875" y1="0" x2="173.296875" y2="5" style="visibility: inherit;" fill="rgb(0, 0, 0)" stroke="rgb(204, 204, 204)" stroke-width="1px"></line><line x1="202.1796875" y1="0" x2="202.1796875" y2="5" style="visibility: inherit;" fill="rgb(0, 0, 0)" stroke="rgb(204, 204, 204)" stroke-width="1px"></line><line x1="231.0625" y1="0" x2="231.0625" y2="5" style="visibility: inherit;" fill="rgb(0, 0, 0)" stroke="rgb(204, 204, 204)" stroke-width="1px"></line><line x1="259.9453125" y1="0" x2="259.9453125" y2="5" style="visibility: inherit;" fill="rgb(0, 0, 0)" stroke="rgb(204, 204, 204)" stroke-width="1px"></line><line x1="288.828125" y1="0" x2="288.828125" y2="5" style="visibility: inherit;" fill="rgb(0, 0, 0)" stroke="rgb(204, 204, 204)" stroke-width="1px"></line></g><g transform="translate(0, 8)"><text x="0" y="0" dx="0em" dy="0.95em" style="text-anchor: middle; visibility: hidden; font-family: Roboto, sans-serif; font-size: 12px; font-weight: 200;" fill="rgb(50, 49, 63)" stroke="none" stroke-width="1px">-5M</text><text x="28.8828125" y="0" dx="0em" dy="0.95em" style="text-anchor: middle; visibility: inherit; font-family: Roboto, sans-serif; font-size: 12px; font-weight: 200;" fill="rgb(50, 49, 63)" stroke="none" stroke-width="1px">0</text><text x="57.765625" y="0" dx="0em" dy="0.95em" style="text-anchor: middle; visibility: inherit; font-family: Roboto, sans-serif; font-size: 12px; font-weight: 200;" fill="rgb(50, 49, 63)" stroke="none" stroke-width="1px">5M</text><text x="86.6484375" y="0" dx="0em" dy="0.95em" style="text-anchor: middle; visibility: inherit; font-family: Roboto, sans-serif; font-size: 12px; font-weight: 200;" fill="rgb(50, 49, 63)" stroke="none" stroke-width="1px">10M</text><text x="115.53125" y="0" dx="0em" dy="0.95em" style="text-anchor: middle; visibility: inherit; font-family: Roboto, sans-serif; font-size: 12px; font-weight: 200;" fill="rgb(50, 49, 63)" stroke="none" stroke-width="1px">15M</text><text x="144.4140625" y="0" dx="0em" dy="0.95em" style="text-anchor: middle; visibility: inherit; font-family: Roboto, sans-serif; font-size: 12px; font-weight: 200;" fill="rgb(50, 49, 63)" stroke="none" stroke-width="1px">20M</text><text x="173.296875" y="0" dx="0em" dy="0.95em" style="text-anchor: middle; visibility: inherit; font-family: Roboto, sans-serif; font-size: 12px; font-weight: 200;" fill="rgb(50, 49, 63)" stroke="none" stroke-width="1px">25M</text><text x="202.1796875" y="0" dx="0em" dy="0.95em" style="text-anchor: middle; visibility: inherit; font-family: Roboto, sans-serif; font-size: 12px; font-weight: 200;" fill="rgb(50, 49, 63)" stroke="none" stroke-width="1px">30M</text><text x="231.0625" y="0" dx="0em" dy="0.95em" style="text-anchor: middle; visibility: inherit; font-family: Roboto, sans-serif; font-size: 12px; font-weight: 200;" fill="rgb(50, 49, 63)" stroke="none" stroke-width="1px">35M</text><text x="259.9453125" y="0" dx="0em" dy="0.95em" style="text-anchor: middle; visibility: inherit; font-family: Roboto, sans-serif; font-size: 12px; font-weight: 200;" fill="rgb(50, 49, 63)" stroke="none" stroke-width="1px">40M</text><text x="288.828125" y="0" dx="0em" dy="0.95em" style="text-anchor: middle; visibility: hidden; font-family: Roboto, sans-serif; font-size: 12px; font-weight: 200;" fill="rgb(50, 49, 63)" stroke="none" stroke-width="1px">45M</text></g><line x1="0" y1="0" x2="288.828125" y2="0" fill="rgb(0, 0, 0)" stroke="rgb(204, 204, 204)" stroke-width="1px"></line></g></g></g></g></svg>