<svg viewBox="0 0 330.0000305175781 200.00001525878906" xmlns="http://www.w3.org/2000/svg"><g><g><g><g><g><line x1="61.953125" y1="178" x2="56.953125" y2="178" style="visibility: inherit;" fill="rgb(0, 0, 0)" stroke="rgb(204, 204, 204)" stroke-width="1px"></line><line x1="61.953125" y1="163.16666666666666" x2="56.953125" y2="163.16666666666666" style="visibility: inherit;" fill="rgb(0, 0, 0)" stroke="rgb(204, 204, 204)" stroke-width="1px"></line><line x1="61.953125" y1="148.33333333333331" x2="56.953125" y2="148.33333333333331" style="visibility: inherit;" fill="rgb(0, 0, 0)" stroke="rgb(204, 204, 204)" stroke-width="1px"></line><line x1="61.953125" y1="133.5" x2="56.953125" y2="133.5" style="visibility: inherit;" fill="rgb(0, 0, 0)" stroke="rgb(204, 204, 204)" stroke-width="1px"></line><line x1="61.953125" y1="118.66666666666666" x2="56.953125" y2="118.66666666666666" style="visibility: inherit;" fill="rgb(0, 0, 0)" stroke="rgb(204, 204, 204)" stroke-width="1px"></line><line x1="61.953125" y1="103.83333333333331" x2="56.953125" y2="103.83333333333331" style="visibility: inherit;" fill="rgb(0, 0, 0)" stroke="rgb(204, 204, 204)" stroke-width="1px"></line><line x1="61.953125" y1="88.99999999999999" x2="56.953125" y2="88.99999999999999" style="visibility: inherit;" fill="rgb(0, 0, 0)" stroke="rgb(204, 204, 204)" stroke-width="1px"></line><line x1="61.953125" y1="74.16666666666669" x2="56.953125" y2="74.16666666666669" style="visibility: inherit;" fill="rgb(0, 0, 0)" stroke="rgb(204, 204, 204)" stroke-width="1px"></line><line x1="61.953125" y1="59.33333333333332" x2="56.953125" y2="59.33333333333332" style="visibility: inherit;" fill="rgb(0, 0, 0)" stroke="rgb(204, 204, 204)" stroke-width="1px"></line><line x1="61.953125" y1="44.5" x2="56.953125" y2="44.5" style="visibility: inherit;" fill="rgb(0, 0, 0)" stroke="rgb(204, 204, 204)" stroke-width="1px"></line><line x1="61.953125" y1="29.66666666666668" x2="56.953125" y2="29.66666666666668" style="visibility: inherit;" fill="rgb(0, 0, 0)" stroke="rgb(204, 204, 204)" stroke-width="1px"></line><line x1="61.953125" y1="14.83333333333332" x2="56.953125" y2="14.83333333333332" style="visibility: inherit;" fill="rgb(0, 0, 0)" stroke="rgb(204, 204, 204)" stroke-width="1px"></line><line x1="61.953125" y1="0" x2="56.953125" y2="0" style="visibility: inherit;" fill="rgb(0, 0, 0)" stroke="rgb(204, 204, 204)" stroke-width="1px"></line></g><g transform="translate(51.953125, 0)"><text x="0" y="178" dx="0em" dy="0.3em" style="text-anchor: end; visibility: hidden; font-family: Roboto, sans-serif; font-size: 12px; font-weight: 200;" fill="rgb(50, 49, 63)" stroke="none" stroke-width="1px">-5e-3</text><text x="0" y="163.16666666666666" dx="0em" dy="0.3em" style="text-anchor: end; visibility: inherit; font-family: Roboto, sans-serif; font-size: 12px; font-weight: 200;" fill="rgb(50, 49, 63)" stroke="none" stroke-width="1px">0</text><text x="0" y="148.33333333333331" dx="0em" dy="0.3em" style="text-anchor: end; visibility: hidden; font-family: Roboto, sans-serif; font-size: 12px; font-weight: 200;" fill="rgb(50, 49, 63)" stroke="none" stroke-width="1px">5e-3</text><text x="0" y="133.5" dx="0em" dy="0.3em" style="text-anchor: end; visibility: inherit; font-family: Roboto, sans-serif; font-size: 12px; font-weight: 200;" fill="rgb(50, 49, 63)" stroke="none" stroke-width="1px">0.01</text><text x="0" y="118.66666666666666" dx="0em" dy="0.3em" style="text-anchor: end; visibility: hidden; font-family: Roboto, sans-serif; font-size: 12px; font-weight: 200;" fill="rgb(50, 49, 63)" stroke="none" stroke-width="1px">0.015</text><text x="0" y="103.83333333333331" dx="0em" dy="0.3em" style="text-anchor: end; visibility: inherit; font-family: Roboto, sans-serif; font-size: 12px; font-weight: 200;" fill="rgb(50, 49, 63)" stroke="none" stroke-width="1px">0.02</text><text x="0" y="88.99999999999999" dx="0em" dy="0.3em" style="text-anchor: end; visibility: hidden; font-family: Roboto, sans-serif; font-size: 12px; font-weight: 200;" fill="rgb(50, 49, 63)" stroke="none" stroke-width="1px">0.025</text><text x="0" y="74.16666666666669" dx="0em" dy="0.3em" style="text-anchor: end; visibility: inherit; font-family: Roboto, sans-serif; font-size: 12px; font-weight: 200;" fill="rgb(50, 49, 63)" stroke="none" stroke-width="1px">0.03</text><text x="0" y="59.33333333333332" dx="0em" dy="0.3em" style="text-anchor: end; visibility: hidden; font-family: Roboto, sans-serif; font-size: 12px; font-weight: 200;" fill="rgb(50, 49, 63)" stroke="none" stroke-width="1px">0.035</text><text x="0" y="44.5" dx="0em" dy="0.3em" style="text-anchor: end; visibility: inherit; font-family: Roboto, sans-serif; font-size: 12px; font-weight: 200;" fill="rgb(50, 49, 63)" stroke="none" stroke-width="1px">0.04</text><text x="0" y="29.66666666666668" dx="0em" dy="0.3em" style="text-anchor: end; visibility: hidden; font-family: Roboto, sans-serif; font-size: 12px; font-weight: 200;" fill="rgb(50, 49, 63)" stroke="none" stroke-width="1px">0.045</text><text x="0" y="14.83333333333332" dx="0em" dy="0.3em" style="text-anchor: end; visibility: inherit; font-family: Roboto, sans-serif; font-size: 12px; font-weight: 200;" fill="rgb(50, 49, 63)" stroke="none" stroke-width="1px">0.05</text><text x="0" y="0" dx="0em" dy="0.3em" style="text-anchor: end; visibility: hidden; font-family: Roboto, sans-serif; font-size: 12px; font-weight: 200;" fill="rgb(50, 49, 63)" stroke="none" stroke-width="1px">0.055</text></g><line x1="61.953125" y1="0" x2="61.953125" y2="178" fill="rgb(0, 0, 0)" stroke="rgb(204, 204, 204)" stroke-width="1px"></line></g></g><g transform="translate(61, 0)" clip-path="url(#clip_0)"><clipPath id="clip_0"><rect width="268" height="177"></rect></clipPath><g><g><g><line x1="0" y1="0" x2="0" y2="178" fill="rgb(0, 0, 0)" stroke="rgb(60, 60, 60)" stroke-width="1px" opacity="0.25"></line><line x1="26.8046875" y1="0" x2="26.8046875" y2="178" fill="rgb(0, 0, 0)" stroke="rgb(60, 60, 60)" stroke-width="1px" opacity="0.25"></line><line x1="53.609375" y1="0" x2="53.609375" y2="178" fill="rgb(0, 0, 0)" stroke="rgb(60, 60, 60)" stroke-width="1px" opacity="0.25"></line><line x1="80.4140625" y1="0" x2="80.4140625" y2="178" fill="rgb(0, 0, 0)" stroke="rgb(60, 60, 60)" stroke-width="1px" opacity="0.25"></line><line x1="107.21875" y1="0" x2="107.21875" y2="178" fill="rgb(0, 0, 0)" stroke="rgb(60, 60, 60)" stroke-width="1px" opacity="0.25"></line><line x1="134.0234375" y1="0" x2="134.0234375" y2="178" fill="rgb(0, 0, 0)" stroke="rgb(60, 60, 60)" stroke-width="1px" opacity="0.25"></line><line x1="160.828125" y1="0" x2="160.828125" y2="178" fill="rgb(0, 0, 0)" stroke="rgb(60, 60, 60)" stroke-width="1px" opacity="0.25"></line><line x1="187.6328125" y1="0" x2="187.6328125" y2="178" fill="rgb(0, 0, 0)" stroke="rgb(60, 60, 60)" stroke-width="1px" opacity="0.25"></line><line x1="214.4375" y1="0" x2="214.4375" y2="178" fill="rgb(0, 0, 0)" stroke="rgb(60, 60, 60)" stroke-width="1px" opacity="0.25"></line><line x1="241.2421875" y1="0" x2="241.2421875" y2="178" fill="rgb(0, 0, 0)" stroke="rgb(60, 60, 60)" stroke-width="1px" opacity="0.25"></line><line x1="268.046875" y1="0" x2="268.046875" y2="178" fill="rgb(0, 0, 0)" stroke="rgb(60, 60, 60)" stroke-width="1px" opacity="0.25"></line></g><g><line x1="0" y1="178" x2="268.046875" y2="178" fill="rgb(0, 0, 0)" stroke="rgb(60, 60, 60)" stroke-width="1px" opacity="0.25"></line><line x1="0" y1="163.16666666666666" x2="268.046875" y2="163.16666666666666" fill="rgb(0, 0, 0)" stroke="rgb(60, 60, 60)" stroke-width="1px" opacity="0.25"></line><line x1="0" y1="148.33333333333331" x2="268.046875" y2="148.33333333333331" fill="rgb(0, 0, 0)" stroke="rgb(60, 60, 60)" stroke-width="1px" opacity="0.25"></line><line x1="0" y1="133.5" x2="268.046875" y2="133.5" fill="rgb(0, 0, 0)" stroke="rgb(60, 60, 60)" stroke-width="1px" opacity="0.25"></line><line x1="0" y1="118.66666666666666" x2="268.046875" y2="118.66666666666666" fill="rgb(0, 0, 0)" stroke="rgb(60, 60, 60)" stroke-width="1px" opacity="0.25"></line><line x1="0" y1="103.83333333333331" x2="268.046875" y2="103.83333333333331" fill="rgb(0, 0, 0)" stroke="rgb(60, 60, 60)" stroke-width="1px" opacity="0.25"></line><line x1="0" y1="88.99999999999999" x2="268.046875" y2="88.99999999999999" fill="rgb(0, 0, 0)" stroke="rgb(60, 60, 60)" stroke-width="1px" opacity="0.25"></line><line x1="0" y1="74.16666666666669" x2="268.046875" y2="74.16666666666669" fill="rgb(0, 0, 0)" stroke="rgb(60, 60, 60)" stroke-width="1px" opacity="0.25"></line><line x1="0" y1="59.33333333333332" x2="268.046875" y2="59.33333333333332" fill="rgb(0, 0, 0)" stroke="rgb(60, 60, 60)" stroke-width="1px" opacity="0.25"></line><line x1="0" y1="44.5" x2="268.046875" y2="44.5" fill="rgb(0, 0, 0)" stroke="rgb(60, 60, 60)" stroke-width="1px" opacity="0.25"></line><line x1="0" y1="29.66666666666668" x2="268.046875" y2="29.66666666666668" fill="rgb(0, 0, 0)" stroke="rgb(60, 60, 60)" stroke-width="1px" opacity="0.25"></line><line x1="0" y1="14.83333333333332" x2="268.046875" y2="14.83333333333332" fill="rgb(0, 0, 0)" stroke="rgb(60, 60, 60)" stroke-width="1px" opacity="0.25"></line><line x1="0" y1="0" x2="268.046875" y2="0" fill="rgb(0, 0, 0)" stroke="rgb(60, 60, 60)" stroke-width="1px" opacity="0.25"></line></g></g></g><g><g><line x1="0" y1="163.16666666666666" x2="268.046875" y2="163.16666666666666" fill="rgb(0, 0, 0)" stroke="rgb(153, 153, 153)" stroke-width="1.5px"></line></g></g><g><g><line x1="26.8046875" y1="0" x2="26.8046875" y2="178" fill="rgb(0, 0, 0)" stroke="rgb(153, 153, 153)" stroke-width="1.5px"></line></g></g><g><g><g><g><g><path stroke="rgb(0, 119, 187)" stroke-width="2px" d="M27.1066155,163.16666666666666L27.4085435,163.16666666666666L27.7104715,163.16666666666666L28.0123995,163.16666666666666L28.3143275,163.16666666666666L28.6162555,163.16666666666666L28.9181835,163.16666666666666L29.2201115,163.16666666666666L29.5220395,163.16666666666666L29.823967500000002,163.16666666666666L30.1258955,163.16666666666666L30.4278235,163.16666666666666L30.7297515,163.16666666666666L31.0316795,158.50942200937038L31.3336075,146.40584436505353L31.6355355,129.83752450089818L31.9374635,115.24514219081235L32.239391499999996,101.83722660642763L32.5413195,93.7933488015938L32.8432475,84.31356898024734L33.1451755,78.62592291359852L33.4471035,75.21341512721128L33.7490315,68.5123079568533L34.0509595,59.83806097955117L34.3528875,54.63353909845426L34.6548155,46.85723300757846L34.9567435,42.191457842634314L35.2586715,34.73839844829711L35.560599499999995,30.266565740899548L35.8625275,27.583467170973854L36.164455499999995,25.973608408642896L36.4663835,25.007693287909056L36.768311499999996,24.428144264668042L37.0702395,24.080414868435223L37.372167499999996,23.871777237071758L37.6740955,23.746594660549114L37.9760235,23.67148511546185L38.2779515,23.62641938870702L38.5798795,23.59937995276122L38.8818075,23.58315629123227L39.1837355,23.573422094328798L39.485663499999994,23.567581576191692L39.7875915,23.564077265311255L40.089519499999994,23.561974678783635L40.3914475,23.560713126867295L40.693375499999995,23.559956195717564L40.9953035,23.55950203702776L41.297231499999995,23.559229541813906L41.5991595,23.55906604468558L41.901087499999996,23.55896794640858L42.2030155,23.55890908744239L42.5049435,23.55887377206268L42.80687150000001,23.558852582834824L43.1087995,23.558839869298176L43.4107275,23.558832241176155L43.712655500000004,23.558827664302914L44.0145835,23.558824918179013L44.316511500000004,23.55882327050462L44.6184395,23.558822281900024L44.920367500000005,23.558821688737268L45.2222955,23.558821332839585L45.524223500000005,23.558821119301008L45.8261515,23.558820991177832L46.128079500000005,23.558820914303947L46.4300075,23.55882086817961L46.7319355,23.558820840504985L47.0338635,23.55882082390025L47.3357915,23.55882081393741L47.6377195,23.55882080795967L47.9396475,28.212415298239016L48.2415755,35.658166486272606L48.5435035,49.43280618682467L48.845431500000004,71.65837569909273L49.1473595,103.60809703967159L49.449287500000004,127.43152489046962L49.7512155,141.72558160094843L50.053143500000004,150.30201562723573L50.3550715,155.4478760430081L50.6569995,158.53539229247153L50.9589275,160.38790204214956L51.2608555,161.4994078919564L51.5627835,162.16631140184052L51.8647115,162.56645350777097L52.1666395,162.80653877132926L52.4685675,162.9505899294642L52.7704955,163.0370206243452L53.0724235,163.0888790412738L53.3743515,163.11999409143095L53.6762795,163.1386631215252L53.978207499999996,163.14986453958178L54.2801355,163.15658539041576L54.5820635,163.16061790091612L54.8839915,163.16303740721634L55.1859195,163.16448911099647L55.4878475,163.16536013326456L55.7897755,163.16588274662539L56.0917035,163.1661963146419L56.3936315,163.1663844554518L56.6955595,163.16649733993776L56.9974875,163.1665650706293L57.2994155,163.16660570904426L57.6013435,163.16663009209321L57.903271499999995,163.16664472192258L58.2051995,163.16665349982023L58.507127499999996,163.16665876655878L58.8090555,163.16666192660193L59.110983499999996,163.16666382262784L59.4129115,163.16666496024337L59.7148395,163.1666656428127L60.0167675,163.16666605235426L60.3186955,163.16666629807924L60.6206235,163.1666664455142L60.9225515,163.1666665339752L61.224479499999994,163.1666665870518L61.5264075,163.16666661889772L61.828335499999994,163.1666666380053L62.1302635,163.16666664946985L62.432191499999995,163.16666665634858L62.7341195,163.1666666604758L63.036047499999995,163.16666666295217L63.3379755,163.16666666443797L63.639903499999996,163.16666666532944L63.9418315,163.1666666658643L64.2437595,163.16666666618525L64.5456875,163.1666666663778L64.8476155,163.16666666649337L65.14954350000001,163.1666666665627L65.4514715,163.16666666660427L65.7533995,163.16666666662923L66.0553275,163.1666666666442L66.35725550000001,163.16666666665319L66.6591835,163.16666666665859L66.9611115,163.16666666666183L67.26303949999999,163.16666666666376L67.56496750000001,163.16666666666492L67.8668955,163.1666666666656L68.1688235,163.16666666666606L68.47075149999999,163.1666666666663L68.7726795,163.16666666666643L69.0746075,163.16666666666652L69.3765355,163.16666666666657L69.67846349999999,163.16666666666663L69.9803915,163.16666666666663L70.2823195,163.16666666666663L70.5842475,163.16666666666666L70.8861755,163.16666666666666L71.1881035,163.16666666666666L71.4900315,163.16666666666666L71.7919595,163.16666666666666L72.0938875,163.16666666666666L72.3958155,163.16666666666666L72.69774349999999,163.16666666666666L72.9996715,163.16666666666666L73.3015995,163.16666666666666L73.6035275,163.16666666666666L73.90545549999999,163.16666666666666L74.2073835,163.16666666666666L74.5093115,163.16666666666666L74.8112395,163.16666666666666L75.11316749999999,163.16666666666666L75.4150955,163.16666666666666L75.7170235,163.16666666666666L76.0189515,163.16666666666666L76.3208795,163.16666666666666L76.6228075,163.16666666666666L76.92473550000001,163.16666666666666L77.2266635,163.16666666666666L77.5285915,163.16666666666666L77.8305195,163.16666666666666L78.13244750000001,163.16666666666666L78.4343755,163.16666666666666L78.7363035,163.16666666666666L79.0382315,163.16666666666666L79.34015950000001,163.16666666666666L79.6420875,163.16666666666666L79.9440155,163.16666666666666L80.2459435,163.16666666666666L80.5478715,163.16666666666666L80.8497995,163.16666666666666L81.1517275,163.16666666666666L81.4536555,163.16666666666666L81.7555835,163.16666666666666L82.0575115,163.16666666666666L82.35943950000001,163.16666666666666L82.6613675,163.16666666666666L82.9632955,163.16666666666666L83.26522349999999,163.16666666666666L83.56715150000001,163.16666666666666L83.8690795,163.16666666666666L84.1710075,163.16666666666666L84.47293549999999,163.16666666666666L84.77486350000001,163.16666666666666L85.0767915,163.16666666666666L85.3787195,163.16666666666666L85.68064749999999,163.16666666666666L85.98257550000001,163.16666666666666L86.2845035,163.16666666666666L86.5864315,163.16666666666666L86.88835949999999,163.16666666666666L87.1902875,163.16666666666666L87.4922155,163.16666666666666L87.7941435,163.16666666666666L88.0960715,163.16666666666666L88.3979995,163.16666666666666L88.6999275,163.16666666666666L89.0018555,163.16666666666666L89.3037835,163.16666666666666L89.6057115,163.16666666666666L89.9076395,163.16666666666666L90.2095675,163.16666666666666L90.5114955,163.16666666666666L90.8134235,163.16666666666666L91.11535149999999,163.16666666666666L91.4172795,163.16666666666666L91.7192075,163.16666666666666L92.0211355,163.16666666666666L92.32306349999999,163.16666666666666L92.62499150000001,163.16666666666666L92.9269195,163.16666666666666L93.2288475,163.16666666666666L93.53077549999999,163.16666666666666L93.83270350000001,163.16666666666666L94.1346315,163.16666666666666L94.4365595,163.16666666666666L94.73848749999999,163.16666666666666L95.0404155,163.16666666666666L95.3423435,163.16666666666666L95.6442715,163.16666666666666L95.94619949999999,163.16666666666666L96.2481275,163.16666666666666L96.5500555,163.16666666666666L96.8519835,163.16666666666666L97.15391149999999,163.16666666666666L97.4558395,163.16666666666666L97.75776749999999,163.16666666666666L98.0596955,163.16666666666666L98.36162350000001,163.16666666666666L98.6635515,163.16666666666666L98.9654795,163.16666666666666L99.2674075,163.16666666666666L99.56933550000001,163.16666666666666L99.8712635,163.16666666666666L100.1731915,163.16666666666666L100.4751195,163.16666666666666L100.77704750000001,163.16666666666666L101.0789755,163.16666666666666L101.3809035,163.16666666666666L101.68283149999999,163.16666666666666L101.98475950000001,163.16666666666666L102.2866875,163.16666666666666L102.5886155,163.16666666666666L102.89054349999999,163.16666666666666L103.19247150000001,163.16666666666666L103.4943995,163.16666666666666L103.7963275,163.16666666666666L104.0982555,163.16666666666666L104.40018350000001,163.16666666666666L104.7021115,163.16666666666666L105.0040395,163.16666666666666L105.3059675,163.16666666666666L105.6078955,163.16666666666666L105.9098235,163.16666666666666L106.2117515,163.16666666666666L106.5136795,163.16666666666666L106.8156075,163.16666666666666L107.1175355,163.16666666666666L107.4194635,163.16666666666666L107.7213915,163.16666666666666L108.0233195,163.16666666666666L108.3252475,163.16666666666666L108.6271755,163.16666666666666L108.9291035,163.16666666666666L109.2310315,163.16666666666666L109.53295949999999,163.16666666666666L109.83488750000001,163.16666666666666L110.1368155,163.16666666666666L110.4387435,163.16666666666666L110.74067149999999,163.16666666666666L111.04259950000001,163.16666666666666L111.3445275,163.16666666666666L111.6464555,163.16666666666666L111.94838349999999,163.16666666666666L112.25031150000001,163.16666666666666L112.5522395,163.16666666666666L112.8541675,163.16666666666666L113.15609549999999,163.16666666666666L113.4580235,163.16666666666666L113.7599515,163.16666666666666L114.0618795,163.16666666666666L114.3638075,163.16666666666666L114.6657355,163.16666666666666L114.9676635,163.16666666666666L115.2695915,163.16666666666666L115.5715195,163.16666666666666L115.8734475,163.16666666666666L116.17537549999999,163.16666666666666L116.4773035,163.16666666666666L116.7792315,163.16666666666666L117.0811595,163.16666666666666L117.38308749999999,163.16666666666666L117.6850155,163.16666666666666L117.9869435,163.16666666666666L118.2888715,163.16666666666666L118.59079949999999,163.16666666666666L118.8927275,163.16666666666666L119.1946555,163.16666666666666L119.4965835,163.16666666666666L119.79851149999999,163.16666666666666L120.1004395,163.16666666666666L120.40236750000001,163.16666666666666L120.7042955,163.16666666666666L121.0062235,163.16666666666666L121.3081515,163.16666666666666L121.61007950000001,163.16666666666666L121.9120075,163.16666666666666L122.2139355,163.16666666666666L122.5158635,163.16666666666666L122.81779150000001,163.16666666666666L123.1197195,163.16666666666666L123.4216475,163.16666666666666L123.7235755,163.16666666666666L124.0255035,163.16666666666666L124.3274315,163.16666666666666L124.6293595,163.16666666666666L124.9312875,163.16666666666666L125.2332155,163.16666666666666L125.5351435,163.16666666666666L125.83707150000001,163.16666666666666L126.1389995,163.16666666666666L126.4409275,163.16666666666666L126.7428555,163.16666666666666L127.04478350000001,163.16666666666666L127.3467115,163.16666666666666L127.6486395,163.16666666666666L127.95056749999999,163.16666666666666L128.2524955,163.16666666666666L128.55442349999998,163.16666666666666L128.85635150000002,163.16666666666666L129.1582795,163.16666666666666L129.4602075,163.16666666666666L129.7621355,163.16666666666666L130.0640635,163.16666666666666L130.3659915,163.16666666666666L130.6679195,163.16666666666666L130.9698475,163.16666666666666L131.2717755,163.16666666666666L131.5737035,163.16666666666666L131.8756315,163.16666666666666L132.1775595,163.16666666666666L132.4794875,163.16666666666666L132.7814155,163.16666666666666L133.0833435,163.16666666666666L133.3852715,163.16666666666666L133.6871995,163.16666666666666L133.9891275,163.16666666666666L134.2910555,163.16666666666666L134.5929835,163.16666666666666L134.8949115,163.16666666666666L135.19683949999998,163.16666666666666L135.49876749999999,163.16666666666666L135.80069550000002,163.16666666666666L136.1026235,163.16666666666666L136.4045515,163.16666666666666L136.7064795,163.16666666666666L137.0084075,163.16666666666666L137.3103355,163.16666666666666L137.61226349999998,163.16666666666666L137.9141915,163.16666666666666L138.21611950000002,163.16666666666666L138.5180475,163.16666666666666L138.8199755,163.16666666666666L139.12190349999997,163.16666666666666L139.4238315,163.16666666666666L139.7257595,163.16666666666666L140.02768749999998,163.16666666666666L140.3296155,163.16666666666666L140.63154350000002,163.16666666666666L140.9334715,163.16666666666666L141.2353995,163.16666666666666L141.53732749999998,163.16666666666666L141.8392555,163.16666666666666L142.1411835,163.16666666666666L142.4431115,163.16666666666666L142.74503950000002,163.16666666666666L143.0469675,163.16666666666666L143.3488955,163.16666666666666L143.6508235,163.16666666666666L143.9527515,163.16666666666666L144.2546795,163.16666666666666L144.5566075,163.16666666666666L144.8585355,163.16666666666666L145.16046350000002,163.16666666666666L145.4623915,163.16666666666666L145.7643195,163.16666666666666L146.0662475,163.16666666666666L146.3681755,163.16666666666666L146.6701035,163.16666666666666L146.97203149999999,163.16666666666666L147.2739595,163.16666666666666L147.57588750000002,163.16666666666666L147.8778155,163.16666666666666L148.1797435,163.16666666666666L148.4816715,163.16666666666666L148.7835995,163.16666666666666L149.0855275,163.16666666666666L149.3874555,163.16666666666666L149.6893835,163.16666666666666L149.99131150000002,163.16666666666666L150.2932395,163.16666666666666L150.5951675,163.16666666666666L150.89709549999998,163.16666666666666L151.1990235,163.16666666666666L151.5009515,163.16666666666666L151.8028795,163.16666666666666L152.1048075,163.16666666666666L152.40673550000002,163.16666666666666L152.7086635,163.16666666666666L153.0105915,163.16666666666666L153.31251949999998,163.16666666666666L153.6144475,163.16666666666666L153.91637550000002,163.16666666666666L154.2183035,163.16666666666666L154.5202315,163.16666666666666L154.8221595,163.16666666666666L155.1240875,163.16666666666666L155.4260155,163.16666666666666L155.72794349999998,163.16666666666666L156.0298715,163.16666666666666L156.33179950000002,163.16666666666666L156.6337275,163.16666666666666L156.9356555,163.16666666666666L157.2375835,163.16666666666666L157.5395115,163.16666666666666L157.8414395,163.16666666666666L158.14336749999998,163.16666666666666L158.44529550000001,163.16666666666666L158.7472235,163.16666666666666L159.0491515,163.16666666666666L159.3510795,163.16666666666666L159.6530075,163.16666666666666L159.9549355,163.16666666666666L160.25686349999998,163.16666666666666L160.55879149999998,163.16666666666666L160.86071950000002,163.16666666666666L161.1626475,163.16666666666666L161.4645755,163.16666666666666L161.7665035,163.16666666666666L162.0684315,163.16666666666666L162.3703595,163.16666666666666L162.67228749999998,163.16666666666666L162.97421549999999,163.16666666666666L163.27614350000002,163.16666666666666L163.5780715,163.16666666666666L163.8799995,163.16666666666666L164.18192749999997,163.16666666666666L164.4838555,163.16666666666666L164.7857835,163.16666666666666L165.08771149999998,163.16666666666666L165.38963950000002,163.16666666666666L165.69156750000002,163.16666666666666L165.9934955,163.16666666666666L166.2954235,163.16666666666666L166.5973515,163.16666666666666L166.8992795,163.16666666666666L167.2012075,163.16666666666666L167.50313549999998,163.16666666666666L167.80506350000002,163.16666666666666L168.1069915,163.16666666666666L168.4089195,163.16666666666666L168.7108475,163.16666666666666L169.0127755,163.16666666666666L169.3147035,163.16666666666666L169.6166315,163.16666666666666L169.9185595,163.16666666666666L170.22048750000002,163.16666666666666L170.5224155,163.16666666666666L170.8243435,163.16666666666666L171.1262715,163.16666666666666L171.4281995,163.16666666666666L171.7301275,163.16666666666666L172.03205549999998,163.16666666666666L172.3339835,163.16666666666666L172.63591150000002,163.16666666666666L172.9378395,163.16666666666666L173.2397675,163.16666666666666L173.5416955,163.16666666666666L173.8436235,163.16666666666666L174.1455515,163.16666666666666L174.4474795,163.16666666666666L174.7494075,163.16666666666666L175.05133550000002,163.16666666666666L175.3532635,163.16666666666666L175.6551915,163.16666666666666L175.95711949999998,163.16666666666666L176.2590475,163.16666666666666L176.5609755,163.16666666666666L176.8629035,163.16666666666666L177.1648315,163.16666666666666L177.46675950000002,163.16666666666666L177.7686875,163.16666666666666L178.0706155,163.16666666666666L178.37254349999998,163.16666666666666L178.6744715,163.16666666666666L178.9763995,163.16666666666666L179.2783275,163.16666666666666L179.5802555,163.16666666666666L179.8821835,163.16666666666666L180.1841115,163.16666666666666L180.4860395,163.16666666666666L180.78796749999998,163.16666666666666L181.0898955,163.16666666666666L181.39182350000002,163.16666666666666L181.6937515,163.16666666666666L181.9956795,163.16666666666666L182.2976075,163.16666666666666L182.5995355,163.16666666666666L182.9014635,163.16666666666666L183.20339149999998,163.16666666666666L183.5053195,163.16666666666666L183.8072475,163.16666666666666L184.1091755,163.16666666666666L184.4111035,163.16666666666666L184.7130315,163.16666666666666L185.0149595,163.16666666666666L185.3168875,163.16666666666666L185.61881549999998,163.16666666666666L185.92074350000001,163.16666666666666L186.2226715,163.16666666666666L186.5245995,163.16666666666666L186.8265275,163.16666666666666L187.1284555,163.16666666666666L187.4303835,163.16666666666666L187.73231149999998,163.16666666666666L188.0342395,163.16666666666666L188.33616750000002,163.16666666666666L188.6380955,163.16666666666666L188.9400235,163.16666666666666L189.24195150000003,163.16666666666666L189.5438795,163.16666666666666L189.8458075,163.16666666666666L190.14773549999998,163.16666666666666L190.4496635,163.16666666666666L190.75159150000002,163.16666666666666L191.0535195,163.16666666666666L191.3554475,163.16666666666666L191.6573755,163.16666666666666L191.9593035,163.16666666666666L192.2612315,163.16666666666666L192.56315949999998,163.16666666666666L192.86508750000002,163.16666666666666L193.16701550000002,163.16666666666666L193.4689435,163.16666666666666L193.7708715,163.16666666666666L194.0727995,163.16666666666666L194.3747275,163.16666666666666L194.6766555,163.16666666666666L194.97858349999998,163.16666666666666L195.28051150000002,163.16666666666666L195.5824395,163.16666666666666L195.8843675,163.16666666666666L196.1862955,163.16666666666666L196.4882235,163.16666666666666L196.7901515,163.16666666666666L197.09207949999998,163.16666666666666L197.3940075,163.16666666666666L197.69593550000002,163.16666666666666L197.9978635,163.16666666666666L198.2997915,163.16666666666666L198.6017195,163.16666666666666L198.9036475,163.16666666666666L199.2055755,163.16666666666666L199.50750349999998,163.16666666666666L199.8094315,163.16666666666666L200.11135950000002,163.16666666666666L200.4132875,163.16666666666666L200.7152155,163.16666666666666L201.01714349999997,163.16666666666666L201.3190715,163.16666666666666L201.6209995,163.16666666666666L201.9229275,163.16666666666666L202.2248555,163.16666666666666L202.52678350000002,163.16666666666666L202.8287115,163.16666666666666L203.1306395,163.16666666666666L203.43256749999998,163.16666666666666L203.7344955,163.16666666666666L204.0364235,163.16666666666666L204.3383515,163.16666666666666L204.6402795,163.16666666666666L204.9422075,163.16666666666666L205.2441355,163.16666666666666L205.5460635,163.16666666666666L205.84799149999998,163.16666666666666L206.1499195,163.16666666666666L206.4518475,163.16666666666666L206.7537755,163.16666666666666L207.0557035,163.16666666666666L207.3576315,163.16666666666666L207.6595595,163.16666666666666L207.9614875,163.16666666666666L208.26341549999998,163.16666666666666L208.5653435,163.16666666666666L208.8672715,163.16666666666666L209.1691995,163.16666666666666L209.47112750000002,163.16666666666666L209.7730555,163.16666666666666L210.0749835,163.16666666666666L210.3769115,163.16666666666666L210.6788395,163.16666666666666L210.9807675,163.16666666666666L211.2826955,163.16666666666666L211.5846235,163.16666666666666L211.88655150000002,163.16666666666666L212.1884795,163.16666666666666L212.4904075,163.16666666666666L212.79233549999998,163.16666666666666L213.0942635,163.16666666666666L213.39619150000001,163.16666666666666L213.6981195,163.16666666666666L214.0000475,163.16666666666666L214.30197550000003,163.16666666666666L214.6039035,163.16666666666666L214.9058315,163.16666666666666L215.20775949999998,163.16666666666666L215.5096875,163.16666666666666L215.81161550000002,163.16666666666666L216.1135435,163.16666666666666L216.4154715,163.16666666666666L216.7173995,163.16666666666666L217.0193275,163.16666666666666L217.3212555,163.16666666666666L217.62318349999998,163.16666666666666L217.9251115,163.16666666666666L218.22703950000002,163.16666666666666L218.5289675,163.16666666666666L218.8308955,163.16666666666666L219.1328235,163.16666666666666L219.4347515,163.16666666666666L219.7366795,163.16666666666666L220.03860749999998,163.16666666666666L220.34053550000002,163.16666666666666L220.6424635,163.16666666666666L220.9443915,163.16666666666666L221.2463195,163.16666666666666L221.5482475,163.16666666666666L221.8501755,163.16666666666666L222.1521035,163.16666666666666L222.45403149999999,163.16666666666666L222.75595950000002,163.16666666666666L223.0578875,163.16666666666666L223.3598155,163.16666666666666L223.6617435,163.16666666666666L223.9636715,163.16666666666666L224.2655995,163.16666666666666L224.56752749999998,163.16666666666666L224.8694555,163.16666666666666L225.17138350000002,163.16666666666666L225.4733115,163.16666666666666L225.7752395,163.16666666666666L226.07716749999997,163.16666666666666L226.3790955,163.16666666666666L226.6810235,163.16666666666666L226.98295149999998,163.16666666666666L227.2848795,163.16666666666666L227.58680750000002,163.16666666666666L227.8887355,163.16666666666666L228.1906635,163.16666666666666L228.49259149999997,163.16666666666666L228.7945195,163.16666666666666L229.0964475,163.16666666666666L229.3983755,163.16666666666666L229.7003035,163.16666666666666L230.00223150000002,163.16666666666666L230.3041595,163.16666666666666L230.6060875,163.16666666666666L230.90801549999998,163.16666666666666L231.2099435,163.16666666666666L231.5118715,163.16666666666666L231.8137995,163.16666666666666L232.11572750000002,163.16666666666666L232.4176555,163.16666666666666L232.7195835,163.16666666666666L233.0215115,163.16666666666666L233.3234395,163.16666666666666L233.6253675,163.16666666666666L233.92729549999999,163.16666666666666L234.2292235,163.16666666666666L234.53115150000002,163.16666666666666L234.8330795,163.16666666666666L235.1350075,163.16666666666666L235.4369355,163.16666666666666L235.7388635,163.16666666666666L236.0407915,163.16666666666666L236.3427195,163.16666666666666L236.6446475,163.16666666666666L236.94657550000002,163.16666666666666L237.2485035,163.16666666666666L237.5504315,163.16666666666666L237.85235949999998,163.16666666666666L238.1542875,163.16666666666666L238.4562155,163.16666666666666L238.7581435,163.16666666666666L239.0600715,163.16666666666666L239.36199950000002,163.16666666666666L239.6639275,163.16666666666666L239.9658555,163.16666666666666L240.26778349999998,163.16666666666666L240.5697115,163.16666666666666L240.87163950000001,163.16666666666666L241.1735675,163.16666666666666L241.4754955,163.16666666666666L241.7774235,163.16666666666666L242.0793515,163.16666666666666L242.3812795,163.16666666666666L242.68320749999998,163.16666666666666L242.9851355,163.16666666666666L243.28706350000002,163.16666666666666L243.5889915,163.16666666666666L243.8909195,163.16666666666666L244.1928475,163.16666666666666L244.4947755,163.16666666666666L244.7967035,163.16666666666666L245.09863149999998,163.16666666666666L245.4005595,163.16666666666666L245.7024875,163.16666666666666L246.0044155,163.16666666666666L246.3063435,163.16666666666666L246.6082715,163.16666666666666L246.9101995,163.16666666666666L247.2121275,163.16666666666666L247.51405549999998,163.16666666666666L247.81598350000002,163.16666666666666L248.1179115,163.16666666666666L248.4198395,163.16666666666666L248.7217675,163.16666666666666L249.0236955,163.16666666666666L249.3256235,163.16666666666666L249.62755149999998,163.16666666666666L249.92947949999999,163.16666666666666L250.23140750000002,163.16666666666666L250.5333355,163.16666666666666L250.8352635,163.16666666666666L251.1371915,163.16666666666666L251.4391195,163.16666666666666L251.7410475,163.16666666666666L252.04297549999998,163.16666666666666L252.3449035,163.16666666666666L252.64683150000002,163.16666666666666L252.9487595,163.16666666666666L253.2506875,163.16666666666666L253.55261549999997,163.16666666666666L253.8545435,163.16666666666666L254.1564715,163.16666666666666L254.45839949999998,163.16666666666666" style="fill: none;" fill="none"></path></g></g></g></g><g opacity="0.2"><g><g><g><path stroke="rgb(0, 119, 187)" stroke-width="2px" d="M27.1066155,163.16666666666666L27.4085435,163.16666666666666L27.7104715,163.16666666666666L28.0123995,163.16666666666666L28.3143275,163.16666666666666L28.6162555,163.16666666666666L28.9181835,163.16666666666666L29.2201115,163.16666666666666L29.5220395,163.16666666666666L29.823967500000002,163.16666666666666L30.1258955,163.16666666666666L30.4278235,163.16666666666666L30.7297515,163.16666666666666L31.0316795,151.5326790505399L31.3336075,128.26470519974828L31.6355355,104.99672996749479L31.9374635,93.36274373282987L32.239391499999996,81.72875749816498L32.5413195,81.72875749816498L32.8432475,70.09476573765278L33.1451755,70.09476573765278L33.4471035,70.09476573765278L33.7490315,58.46077950298786L34.0509595,46.826793268322945L34.3528875,46.826793268322945L34.6548155,35.19280703365803L34.9567435,35.19280703365803L35.2586715,23.55882079899311L35.560599499999995,23.55882079899311L35.8625275,23.55882079899311L36.164455499999995,23.55882079899311L36.4663835,23.55882079899311L36.768311499999996,23.55882079899311L37.0702395,23.55882079899311L37.372167499999996,23.55882079899311L37.6740955,23.55882079899311L37.9760235,23.55882079899311L38.2779515,23.55882079899311L38.5798795,23.55882079899311L38.8818075,23.55882079899311L39.1837355,23.55882079899311L39.485663499999994,23.55882079899311L39.7875915,23.55882079899311L40.089519499999994,23.55882079899311L40.3914475,23.55882079899311L40.693375499999995,23.55882079899311L40.9953035,23.55882079899311L41.297231499999995,23.55882079899311L41.5991595,23.55882079899311L41.901087499999996,23.55882079899311L42.2030155,23.55882079899311L42.5049435,23.55882079899311L42.80687150000001,23.55882079899311L43.1087995,23.55882079899311L43.4107275,23.55882079899311L43.712655500000004,23.55882079899311L44.0145835,23.55882079899311L44.316511500000004,23.55882079899311L44.6184395,23.55882079899311L44.920367500000005,23.55882079899311L45.2222955,23.55882079899311L45.524223500000005,23.55882079899311L45.8261515,23.55882079899311L46.128079500000005,23.55882079899311L46.4300075,23.55882079899311L46.7319355,23.55882079899311L47.0338635,23.55882079899311L47.3357915,23.55882079899311L47.6377195,23.55882079899311L47.9396475,35.19280703365803L48.2415755,46.826793268322945L48.5435035,70.09476573765278L48.845431500000004,104.99672996749479L49.1473595,151.5326790505399L49.449287500000004,163.16666666666666L49.7512155,163.16666666666666L50.053143500000004,163.16666666666666L50.3550715,163.16666666666666L50.6569995,163.16666666666666L50.9589275,163.16666666666666L51.2608555,163.16666666666666L51.5627835,163.16666666666666L51.8647115,163.16666666666666L52.1666395,163.16666666666666L52.4685675,163.16666666666666L52.7704955,163.16666666666666L53.0724235,163.16666666666666L53.3743515,163.16666666666666L53.6762795,163.16666666666666L53.978207499999996,163.16666666666666L54.2801355,163.16666666666666L54.5820635,163.16666666666666L54.8839915,163.16666666666666L55.1859195,163.16666666666666L55.4878475,163.16666666666666L55.7897755,163.16666666666666L56.0917035,163.16666666666666L56.3936315,163.16666666666666L56.6955595,163.16666666666666L56.9974875,163.16666666666666L57.2994155,163.16666666666666L57.6013435,163.16666666666666L57.903271499999995,163.16666666666666L58.2051995,163.16666666666666L58.507127499999996,163.16666666666666L58.8090555,163.16666666666666L59.110983499999996,163.16666666666666L59.4129115,163.16666666666666L59.7148395,163.16666666666666L60.0167675,163.16666666666666L60.3186955,163.16666666666666L60.6206235,163.16666666666666L60.9225515,163.16666666666666L61.224479499999994,163.16666666666666L61.5264075,163.16666666666666L61.828335499999994,163.16666666666666L62.1302635,163.16666666666666L62.432191499999995,163.16666666666666L62.7341195,163.16666666666666L63.036047499999995,163.16666666666666L63.3379755,163.16666666666666L63.639903499999996,163.16666666666666L63.9418315,163.16666666666666L64.2437595,163.16666666666666L64.5456875,163.16666666666666L64.8476155,163.16666666666666L65.14954350000001,163.16666666666666L65.4514715,163.16666666666666L65.7533995,163.16666666666666L66.0553275,163.16666666666666L66.35725550000001,163.16666666666666L66.6591835,163.16666666666666L66.9611115,163.16666666666666L67.26303949999999,163.16666666666666L67.56496750000001,163.16666666666666L67.8668955,163.16666666666666L68.1688235,163.16666666666666L68.47075149999999,163.16666666666666L68.7726795,163.16666666666666L69.0746075,163.16666666666666L69.3765355,163.16666666666666L69.67846349999999,163.16666666666666L69.9803915,163.16666666666666L70.2823195,163.16666666666666L70.5842475,163.16666666666666L70.8861755,163.16666666666666L71.1881035,163.16666666666666L71.4900315,163.16666666666666L71.7919595,163.16666666666666L72.0938875,163.16666666666666L72.3958155,163.16666666666666L72.69774349999999,163.16666666666666L72.9996715,163.16666666666666L73.3015995,163.16666666666666L73.6035275,163.16666666666666L73.90545549999999,163.16666666666666L74.2073835,163.16666666666666L74.5093115,163.16666666666666L74.8112395,163.16666666666666L75.11316749999999,163.16666666666666L75.4150955,163.16666666666666L75.7170235,163.16666666666666L76.0189515,163.16666666666666L76.3208795,163.16666666666666L76.6228075,163.16666666666666L76.92473550000001,163.16666666666666L77.2266635,163.16666666666666L77.5285915,163.16666666666666L77.8305195,163.16666666666666L78.13244750000001,163.16666666666666L78.4343755,163.16666666666666L78.7363035,163.16666666666666L79.0382315,163.16666666666666L79.34015950000001,163.16666666666666L79.6420875,163.16666666666666L79.9440155,163.16666666666666L80.2459435,163.16666666666666L80.5478715,163.16666666666666L80.8497995,163.16666666666666L81.1517275,163.16666666666666L81.4536555,163.16666666666666L81.7555835,163.16666666666666L82.0575115,163.16666666666666L82.35943950000001,163.16666666666666L82.6613675,163.16666666666666L82.9632955,163.16666666666666L83.26522349999999,163.16666666666666L83.56715150000001,163.16666666666666L83.8690795,163.16666666666666L84.1710075,163.16666666666666L84.47293549999999,163.16666666666666L84.77486350000001,163.16666666666666L85.0767915,163.16666666666666L85.3787195,163.16666666666666L85.68064749999999,163.16666666666666L85.98257550000001,163.16666666666666L86.2845035,163.16666666666666L86.5864315,163.16666666666666L86.88835949999999,163.16666666666666L87.1902875,163.16666666666666L87.4922155,163.16666666666666L87.7941435,163.16666666666666L88.0960715,163.16666666666666L88.3979995,163.16666666666666L88.6999275,163.16666666666666L89.0018555,163.16666666666666L89.3037835,163.16666666666666L89.6057115,163.16666666666666L89.9076395,163.16666666666666L90.2095675,163.16666666666666L90.5114955,163.16666666666666L90.8134235,163.16666666666666L91.11535149999999,163.16666666666666L91.4172795,163.16666666666666L91.7192075,163.16666666666666L92.0211355,163.16666666666666L92.32306349999999,163.16666666666666L92.62499150000001,163.16666666666666L92.9269195,163.16666666666666L93.2288475,163.16666666666666L93.53077549999999,163.16666666666666L93.83270350000001,163.16666666666666L94.1346315,163.16666666666666L94.4365595,163.16666666666666L94.73848749999999,163.16666666666666L95.0404155,163.16666666666666L95.3423435,163.16666666666666L95.6442715,163.16666666666666L95.94619949999999,163.16666666666666L96.2481275,163.16666666666666L96.5500555,163.16666666666666L96.8519835,163.16666666666666L97.15391149999999,163.16666666666666L97.4558395,163.16666666666666L97.75776749999999,163.16666666666666L98.0596955,163.16666666666666L98.36162350000001,163.16666666666666L98.6635515,163.16666666666666L98.9654795,163.16666666666666L99.2674075,163.16666666666666L99.56933550000001,163.16666666666666L99.8712635,163.16666666666666L100.1731915,163.16666666666666L100.4751195,163.16666666666666L100.77704750000001,163.16666666666666L101.0789755,163.16666666666666L101.3809035,163.16666666666666L101.68283149999999,163.16666666666666L101.98475950000001,163.16666666666666L102.2866875,163.16666666666666L102.5886155,163.16666666666666L102.89054349999999,163.16666666666666L103.19247150000001,163.16666666666666L103.4943995,163.16666666666666L103.7963275,163.16666666666666L104.0982555,163.16666666666666L104.40018350000001,163.16666666666666L104.7021115,163.16666666666666L105.0040395,163.16666666666666L105.3059675,163.16666666666666L105.6078955,163.16666666666666L105.9098235,163.16666666666666L106.2117515,163.16666666666666L106.5136795,163.16666666666666L106.8156075,163.16666666666666L107.1175355,163.16666666666666L107.4194635,163.16666666666666L107.7213915,163.16666666666666L108.0233195,163.16666666666666L108.3252475,163.16666666666666L108.6271755,163.16666666666666L108.9291035,163.16666666666666L109.2310315,163.16666666666666L109.53295949999999,163.16666666666666L109.83488750000001,163.16666666666666L110.1368155,163.16666666666666L110.4387435,163.16666666666666L110.74067149999999,163.16666666666666L111.04259950000001,163.16666666666666L111.3445275,163.16666666666666L111.6464555,163.16666666666666L111.94838349999999,163.16666666666666L112.25031150000001,163.16666666666666L112.5522395,163.16666666666666L112.8541675,163.16666666666666L113.15609549999999,163.16666666666666L113.4580235,163.16666666666666L113.7599515,163.16666666666666L114.0618795,163.16666666666666L114.3638075,163.16666666666666L114.6657355,163.16666666666666L114.9676635,163.16666666666666L115.2695915,163.16666666666666L115.5715195,163.16666666666666L115.8734475,163.16666666666666L116.17537549999999,163.16666666666666L116.4773035,163.16666666666666L116.7792315,163.16666666666666L117.0811595,163.16666666666666L117.38308749999999,163.16666666666666L117.6850155,163.16666666666666L117.9869435,163.16666666666666L118.2888715,163.16666666666666L118.59079949999999,163.16666666666666L118.8927275,163.16666666666666L119.1946555,163.16666666666666L119.4965835,163.16666666666666L119.79851149999999,163.16666666666666L120.1004395,163.16666666666666L120.40236750000001,163.16666666666666L120.7042955,163.16666666666666L121.0062235,163.16666666666666L121.3081515,163.16666666666666L121.61007950000001,163.16666666666666L121.9120075,163.16666666666666L122.2139355,163.16666666666666L122.5158635,163.16666666666666L122.81779150000001,163.16666666666666L123.1197195,163.16666666666666L123.4216475,163.16666666666666L123.7235755,163.16666666666666L124.0255035,163.16666666666666L124.3274315,163.16666666666666L124.6293595,163.16666666666666L124.9312875,163.16666666666666L125.2332155,163.16666666666666L125.5351435,163.16666666666666L125.83707150000001,163.16666666666666L126.1389995,163.16666666666666L126.4409275,163.16666666666666L126.7428555,163.16666666666666L127.04478350000001,163.16666666666666L127.3467115,163.16666666666666L127.6486395,163.16666666666666L127.95056749999999,163.16666666666666L128.2524955,163.16666666666666L128.55442349999998,163.16666666666666L128.85635150000002,163.16666666666666L129.1582795,163.16666666666666L129.4602075,163.16666666666666L129.7621355,163.16666666666666L130.0640635,163.16666666666666L130.3659915,163.16666666666666L130.6679195,163.16666666666666L130.9698475,163.16666666666666L131.2717755,163.16666666666666L131.5737035,163.16666666666666L131.8756315,163.16666666666666L132.1775595,163.16666666666666L132.4794875,163.16666666666666L132.7814155,163.16666666666666L133.0833435,163.16666666666666L133.3852715,163.16666666666666L133.6871995,163.16666666666666L133.9891275,163.16666666666666L134.2910555,163.16666666666666L134.5929835,163.16666666666666L134.8949115,163.16666666666666L135.19683949999998,163.16666666666666L135.49876749999999,163.16666666666666L135.80069550000002,163.16666666666666L136.1026235,163.16666666666666L136.4045515,163.16666666666666L136.7064795,163.16666666666666L137.0084075,163.16666666666666L137.3103355,163.16666666666666L137.61226349999998,163.16666666666666L137.9141915,163.16666666666666L138.21611950000002,163.16666666666666L138.5180475,163.16666666666666L138.8199755,163.16666666666666L139.12190349999997,163.16666666666666L139.4238315,163.16666666666666L139.7257595,163.16666666666666L140.02768749999998,163.16666666666666L140.3296155,163.16666666666666L140.63154350000002,163.16666666666666L140.9334715,163.16666666666666L141.2353995,163.16666666666666L141.53732749999998,163.16666666666666L141.8392555,163.16666666666666L142.1411835,163.16666666666666L142.4431115,163.16666666666666L142.74503950000002,163.16666666666666L143.0469675,163.16666666666666L143.3488955,163.16666666666666L143.6508235,163.16666666666666L143.9527515,163.16666666666666L144.2546795,163.16666666666666L144.5566075,163.16666666666666L144.8585355,163.16666666666666L145.16046350000002,163.16666666666666L145.4623915,163.16666666666666L145.7643195,163.16666666666666L146.0662475,163.16666666666666L146.3681755,163.16666666666666L146.6701035,163.16666666666666L146.97203149999999,163.16666666666666L147.2739595,163.16666666666666L147.57588750000002,163.16666666666666L147.8778155,163.16666666666666L148.1797435,163.16666666666666L148.4816715,163.16666666666666L148.7835995,163.16666666666666L149.0855275,163.16666666666666L149.3874555,163.16666666666666L149.6893835,163.16666666666666L149.99131150000002,163.16666666666666L150.2932395,163.16666666666666L150.5951675,163.16666666666666L150.89709549999998,163.16666666666666L151.1990235,163.16666666666666L151.5009515,163.16666666666666L151.8028795,163.16666666666666L152.1048075,163.16666666666666L152.40673550000002,163.16666666666666L152.7086635,163.16666666666666L153.0105915,163.16666666666666L153.31251949999998,163.16666666666666L153.6144475,163.16666666666666L153.91637550000002,163.16666666666666L154.2183035,163.16666666666666L154.5202315,163.16666666666666L154.8221595,163.16666666666666L155.1240875,163.16666666666666L155.4260155,163.16666666666666L155.72794349999998,163.16666666666666L156.0298715,163.16666666666666L156.33179950000002,163.16666666666666L156.6337275,163.16666666666666L156.9356555,163.16666666666666L157.2375835,163.16666666666666L157.5395115,163.16666666666666L157.8414395,163.16666666666666L158.14336749999998,163.16666666666666L158.44529550000001,163.16666666666666L158.7472235,163.16666666666666L159.0491515,163.16666666666666L159.3510795,163.16666666666666L159.6530075,163.16666666666666L159.9549355,163.16666666666666L160.25686349999998,163.16666666666666L160.55879149999998,163.16666666666666L160.86071950000002,163.16666666666666L161.1626475,163.16666666666666L161.4645755,163.16666666666666L161.7665035,163.16666666666666L162.0684315,163.16666666666666L162.3703595,163.16666666666666L162.67228749999998,163.16666666666666L162.97421549999999,163.16666666666666L163.27614350000002,163.16666666666666L163.5780715,163.16666666666666L163.8799995,163.16666666666666L164.18192749999997,163.16666666666666L164.4838555,163.16666666666666L164.7857835,163.16666666666666L165.08771149999998,163.16666666666666L165.38963950000002,163.16666666666666L165.69156750000002,163.16666666666666L165.9934955,163.16666666666666L166.2954235,163.16666666666666L166.5973515,163.16666666666666L166.8992795,163.16666666666666L167.2012075,163.16666666666666L167.50313549999998,163.16666666666666L167.80506350000002,163.16666666666666L168.1069915,163.16666666666666L168.4089195,163.16666666666666L168.7108475,163.16666666666666L169.0127755,163.16666666666666L169.3147035,163.16666666666666L169.6166315,163.16666666666666L169.9185595,163.16666666666666L170.22048750000002,163.16666666666666L170.5224155,163.16666666666666L170.8243435,163.16666666666666L171.1262715,163.16666666666666L171.4281995,163.16666666666666L171.7301275,163.16666666666666L172.03205549999998,163.16666666666666L172.3339835,163.16666666666666L172.63591150000002,163.16666666666666L172.9378395,163.16666666666666L173.2397675,163.16666666666666L173.5416955,163.16666666666666L173.8436235,163.16666666666666L174.1455515,163.16666666666666L174.4474795,163.16666666666666L174.7494075,163.16666666666666L175.05133550000002,163.16666666666666L175.3532635,163.16666666666666L175.6551915,163.16666666666666L175.95711949999998,163.16666666666666L176.2590475,163.16666666666666L176.5609755,163.16666666666666L176.8629035,163.16666666666666L177.1648315,163.16666666666666L177.46675950000002,163.16666666666666L177.7686875,163.16666666666666L178.0706155,163.16666666666666L178.37254349999998,163.16666666666666L178.6744715,163.16666666666666L178.9763995,163.16666666666666L179.2783275,163.16666666666666L179.5802555,163.16666666666666L179.8821835,163.16666666666666L180.1841115,163.16666666666666L180.4860395,163.16666666666666L180.78796749999998,163.16666666666666L181.0898955,163.16666666666666L181.39182350000002,163.16666666666666L181.6937515,163.16666666666666L181.9956795,163.16666666666666L182.2976075,163.16666666666666L182.5995355,163.16666666666666L182.9014635,163.16666666666666L183.20339149999998,163.16666666666666L183.5053195,163.16666666666666L183.8072475,163.16666666666666L184.1091755,163.16666666666666L184.4111035,163.16666666666666L184.7130315,163.16666666666666L185.0149595,163.16666666666666L185.3168875,163.16666666666666L185.61881549999998,163.16666666666666L185.92074350000001,163.16666666666666L186.2226715,163.16666666666666L186.5245995,163.16666666666666L186.8265275,163.16666666666666L187.1284555,163.16666666666666L187.4303835,163.16666666666666L187.73231149999998,163.16666666666666L188.0342395,163.16666666666666L188.33616750000002,163.16666666666666L188.6380955,163.16666666666666L188.9400235,163.16666666666666L189.24195150000003,163.16666666666666L189.5438795,163.16666666666666L189.8458075,163.16666666666666L190.14773549999998,163.16666666666666L190.4496635,163.16666666666666L190.75159150000002,163.16666666666666L191.0535195,163.16666666666666L191.3554475,163.16666666666666L191.6573755,163.16666666666666L191.9593035,163.16666666666666L192.2612315,163.16666666666666L192.56315949999998,163.16666666666666L192.86508750000002,163.16666666666666L193.16701550000002,163.16666666666666L193.4689435,163.16666666666666L193.7708715,163.16666666666666L194.0727995,163.16666666666666L194.3747275,163.16666666666666L194.6766555,163.16666666666666L194.97858349999998,163.16666666666666L195.28051150000002,163.16666666666666L195.5824395,163.16666666666666L195.8843675,163.16666666666666L196.1862955,163.16666666666666L196.4882235,163.16666666666666L196.7901515,163.16666666666666L197.09207949999998,163.16666666666666L197.3940075,163.16666666666666L197.69593550000002,163.16666666666666L197.9978635,163.16666666666666L198.2997915,163.16666666666666L198.6017195,163.16666666666666L198.9036475,163.16666666666666L199.2055755,163.16666666666666L199.50750349999998,163.16666666666666L199.8094315,163.16666666666666L200.11135950000002,163.16666666666666L200.4132875,163.16666666666666L200.7152155,163.16666666666666L201.01714349999997,163.16666666666666L201.3190715,163.16666666666666L201.6209995,163.16666666666666L201.9229275,163.16666666666666L202.2248555,163.16666666666666L202.52678350000002,163.16666666666666L202.8287115,163.16666666666666L203.1306395,163.16666666666666L203.43256749999998,163.16666666666666L203.7344955,163.16666666666666L204.0364235,163.16666666666666L204.3383515,163.16666666666666L204.6402795,163.16666666666666L204.9422075,163.16666666666666L205.2441355,163.16666666666666L205.5460635,163.16666666666666L205.84799149999998,163.16666666666666L206.1499195,163.16666666666666L206.4518475,163.16666666666666L206.7537755,163.16666666666666L207.0557035,163.16666666666666L207.3576315,163.16666666666666L207.6595595,163.16666666666666L207.9614875,163.16666666666666L208.26341549999998,163.16666666666666L208.5653435,163.16666666666666L208.8672715,163.16666666666666L209.1691995,163.16666666666666L209.47112750000002,163.16666666666666L209.7730555,163.16666666666666L210.0749835,163.16666666666666L210.3769115,163.16666666666666L210.6788395,163.16666666666666L210.9807675,163.16666666666666L211.2826955,163.16666666666666L211.5846235,163.16666666666666L211.88655150000002,163.16666666666666L212.1884795,163.16666666666666L212.4904075,163.16666666666666L212.79233549999998,163.16666666666666L213.0942635,163.16666666666666L213.39619150000001,163.16666666666666L213.6981195,163.16666666666666L214.0000475,163.16666666666666L214.30197550000003,163.16666666666666L214.6039035,163.16666666666666L214.9058315,163.16666666666666L215.20775949999998,163.16666666666666L215.5096875,163.16666666666666L215.81161550000002,163.16666666666666L216.1135435,163.16666666666666L216.4154715,163.16666666666666L216.7173995,163.16666666666666L217.0193275,163.16666666666666L217.3212555,163.16666666666666L217.62318349999998,163.16666666666666L217.9251115,163.16666666666666L218.22703950000002,163.16666666666666L218.5289675,163.16666666666666L218.8308955,163.16666666666666L219.1328235,163.16666666666666L219.4347515,163.16666666666666L219.7366795,163.16666666666666L220.03860749999998,163.16666666666666L220.34053550000002,163.16666666666666L220.6424635,163.16666666666666L220.9443915,163.16666666666666L221.2463195,163.16666666666666L221.5482475,163.16666666666666L221.8501755,163.16666666666666L222.1521035,163.16666666666666L222.45403149999999,163.16666666666666L222.75595950000002,163.16666666666666L223.0578875,163.16666666666666L223.3598155,163.16666666666666L223.6617435,163.16666666666666L223.9636715,163.16666666666666L224.2655995,163.16666666666666L224.56752749999998,163.16666666666666L224.8694555,163.16666666666666L225.17138350000002,163.16666666666666L225.4733115,163.16666666666666L225.7752395,163.16666666666666L226.07716749999997,163.16666666666666L226.3790955,163.16666666666666L226.6810235,163.16666666666666L226.98295149999998,163.16666666666666L227.2848795,163.16666666666666L227.58680750000002,163.16666666666666L227.8887355,163.16666666666666L228.1906635,163.16666666666666L228.49259149999997,163.16666666666666L228.7945195,163.16666666666666L229.0964475,163.16666666666666L229.3983755,163.16666666666666L229.7003035,163.16666666666666L230.00223150000002,163.16666666666666L230.3041595,163.16666666666666L230.6060875,163.16666666666666L230.90801549999998,163.16666666666666L231.2099435,163.16666666666666L231.5118715,163.16666666666666L231.8137995,163.16666666666666L232.11572750000002,163.16666666666666L232.4176555,163.16666666666666L232.7195835,163.16666666666666L233.0215115,163.16666666666666L233.3234395,163.16666666666666L233.6253675,163.16666666666666L233.92729549999999,163.16666666666666L234.2292235,163.16666666666666L234.53115150000002,163.16666666666666L234.8330795,163.16666666666666L235.1350075,163.16666666666666L235.4369355,163.16666666666666L235.7388635,163.16666666666666L236.0407915,163.16666666666666L236.3427195,163.16666666666666L236.6446475,163.16666666666666L236.94657550000002,163.16666666666666L237.2485035,163.16666666666666L237.5504315,163.16666666666666L237.85235949999998,163.16666666666666L238.1542875,163.16666666666666L238.4562155,163.16666666666666L238.7581435,163.16666666666666L239.0600715,163.16666666666666L239.36199950000002,163.16666666666666L239.6639275,163.16666666666666L239.9658555,163.16666666666666L240.26778349999998,163.16666666666666L240.5697115,163.16666666666666L240.87163950000001,163.16666666666666L241.1735675,163.16666666666666L241.4754955,163.16666666666666L241.7774235,163.16666666666666L242.0793515,163.16666666666666L242.3812795,163.16666666666666L242.68320749999998,163.16666666666666L242.9851355,163.16666666666666L243.28706350000002,163.16666666666666L243.5889915,163.16666666666666L243.8909195,163.16666666666666L244.1928475,163.16666666666666L244.4947755,163.16666666666666L244.7967035,163.16666666666666L245.09863149999998,163.16666666666666L245.4005595,163.16666666666666L245.7024875,163.16666666666666L246.0044155,163.16666666666666L246.3063435,163.16666666666666L246.6082715,163.16666666666666L246.9101995,163.16666666666666L247.2121275,163.16666666666666L247.51405549999998,163.16666666666666L247.81598350000002,163.16666666666666L248.1179115,163.16666666666666L248.4198395,163.16666666666666L248.7217675,163.16666666666666L249.0236955,163.16666666666666L249.3256235,163.16666666666666L249.62755149999998,163.16666666666666L249.92947949999999,163.16666666666666L250.23140750000002,163.16666666666666L250.5333355,163.16666666666666L250.8352635,163.16666666666666L251.1371915,163.16666666666666L251.4391195,163.16666666666666L251.7410475,163.16666666666666L252.04297549999998,163.16666666666666L252.3449035,163.16666666666666L252.64683150000002,163.16666666666666L252.9487595,163.16666666666666L253.2506875,163.16666666666666L253.55261549999997,163.16666666666666L253.8545435,163.16666666666666L254.1564715,163.16666666666666L254.45839949999998,163.16666666666666" style="fill: none;" fill="none"></path></g></g></g></g></g></g><g transform="translate(61, 178)" clip-path="url(#clip_1)"><clipPath id="clip_1"><rect width="268" height="21"></rect></clipPath><g><g><line x1="0" y1="0" x2="0" y2="5" style="visibility: inherit;" fill="rgb(0, 0, 0)" stroke="rgb(204, 204, 204)" stroke-width="1px"></line><line x1="26.8046875" y1="0" x2="26.8046875" y2="5" style="visibility: inherit;" fill="rgb(0, 0, 0)" stroke="rgb(204, 204, 204)" stroke-width="1px"></line><line x1="53.609375" y1="0" x2="53.609375" y2="5" style="visibility: inherit;" fill="rgb(0, 0, 0)" stroke="rgb(204, 204, 204)" stroke-width="1px"></line><line x1="80.4140625" y1="0" x2="80.4140625" y2="5" style="visibility: inherit;" fill="rgb(0, 0, 0)" stroke="rgb(204, 204, 204)" stroke-width="1px"></line><line x1="107.21875" y1="0" x2="107.21875" y2="5" style="visibility: inherit;" fill="rgb(0, 0, 0)" stroke="rgb(204, 204, 204)" stroke-width="1px"></line><line x1="134.0234375" y1="0" x2="134.0234375" y2="5" style="visibility: inherit;" fill="rgb(0, 0, 0)" stroke="rgb(204, 204, 204)" stroke-width="1px"></line><line x1="160.828125" y1="0" x2="160.828125" y2="5" style="visibility: inherit;" fill="rgb(0, 0, 0)" stroke="rgb(204, 204, 204)" stroke-width="1px"></line><line x1="187.6328125" y1="0" x2="187.6328125" y2="5" style="visibility: inherit;" fill="rgb(0, 0, 0)" stroke="rgb(204, 204, 204)" stroke-width="1px"></line><line x1="214.4375" y1="0" x2="214.4375" y2="5" style="visibility: inherit;" fill="rgb(0, 0, 0)" stroke="rgb(204, 204, 204)" stroke-width="1px"></line><line x1="241.2421875" y1="0" x2="241.2421875" y2="5" style="visibility: inherit;" fill="rgb(0, 0, 0)" stroke="rgb(204, 204, 204)" stroke-width="1px"></line><line x1="268.046875" y1="0" x2="268.046875" y2="5" style="visibility: inherit;" fill="rgb(0, 0, 0)" stroke="rgb(204, 204, 204)" stroke-width="1px"></line></g><g transform="translate(0, 8)"><text x="0" y="0" dx="0em" dy="0.95em" style="text-anchor: middle; visibility: hidden; font-family: Roboto, sans-serif; font-size: 12px; font-weight: 200;" fill="rgb(50, 49, 63)" stroke="none" stroke-width="1px">-5M</text><text x="26.8046875" y="0" dx="0em" dy="0.95em" style="text-anchor: middle; visibility: inherit; font-family: Roboto, sans-serif; font-size: 12px; font-weight: 200;" fill="rgb(50, 49, 63)" stroke="none" stroke-width="1px">0</text><text x="53.609375" y="0" dx="0em" dy="0.95em" style="text-anchor: middle; visibility: hidden; font-family: Roboto, sans-serif; font-size: 12px; font-weight: 200;" fill="rgb(50, 49, 63)" stroke="none" stroke-width="1px">5M</text><text x="80.4140625" y="0" dx="0em" dy="0.95em" style="text-anchor: middle; visibility: inherit; font-family: Roboto, sans-serif; font-size: 12px; font-weight: 200;" fill="rgb(50, 49, 63)" stroke="none" stroke-width="1px">10M</text><text x="107.21875" y="0" dx="0em" dy="0.95em" style="text-anchor: middle; visibility: hidden; font-family: Roboto, sans-serif; font-size: 12px; font-weight: 200;" fill="rgb(50, 49, 63)" stroke="none" stroke-width="1px">15M</text><text x="134.0234375" y="0" dx="0em" dy="0.95em" style="text-anchor: middle; visibility: inherit; font-family: Roboto, sans-serif; font-size: 12px; font-weight: 200;" fill="rgb(50, 49, 63)" stroke="none" stroke-width="1px">20M</text><text x="160.828125" y="0" dx="0em" dy="0.95em" style="text-anchor: middle; visibility: hidden; font-family: Roboto, sans-serif; font-size: 12px; font-weight: 200;" fill="rgb(50, 49, 63)" stroke="none" stroke-width="1px">25M</text><text x="187.6328125" y="0" dx="0em" dy="0.95em" style="text-anchor: middle; visibility: inherit; font-family: Roboto, sans-serif; font-size: 12px; font-weight: 200;" fill="rgb(50, 49, 63)" stroke="none" stroke-width="1px">30M</text><text x="214.4375" y="0" dx="0em" dy="0.95em" style="text-anchor: middle; visibility: hidden; font-family: Roboto, sans-serif; font-size: 12px; font-weight: 200;" fill="rgb(50, 49, 63)" stroke="none" stroke-width="1px">35M</text><text x="241.2421875" y="0" dx="0em" dy="0.95em" style="text-anchor: middle; visibility: inherit; font-family: Roboto, sans-serif; font-size: 12px; font-weight: 200;" fill="rgb(50, 49, 63)" stroke="none" stroke-width="1px">40M</text><text x="268.046875" y="0" dx="0em" dy="0.95em" style="text-anchor: middle; visibility: hidden; font-family: Roboto, sans-serif; font-size: 12px; font-weight: 200;" fill="rgb(50, 49, 63)" stroke="none" stroke-width="1px">45M</text></g><line x1="0" y1="0" x2="268.046875" y2="0" fill="rgb(0, 0, 0)" stroke="rgb(204, 204, 204)" stroke-width="1px"></line></g></g></g></g></svg>