<svg viewBox="0 0 330 200" xmlns="http://www.w3.org/2000/svg"><g><g><g><g><g><line x1="51.5625" y1="178" x2="46.5625" y2="178" style="visibility: inherit;" fill="rgb(0, 0, 0)" stroke="rgb(204, 204, 204)" stroke-width="1px"></line><line x1="51.5625" y1="163.16666666666669" x2="46.5625" y2="163.16666666666669" style="visibility: inherit;" fill="rgb(0, 0, 0)" stroke="rgb(204, 204, 204)" stroke-width="1px"></line><line x1="51.5625" y1="148.33333333333331" x2="46.5625" y2="148.33333333333331" style="visibility: inherit;" fill="rgb(0, 0, 0)" stroke="rgb(204, 204, 204)" stroke-width="1px"></line><line x1="51.5625" y1="133.5" x2="46.5625" y2="133.5" style="visibility: inherit;" fill="rgb(0, 0, 0)" stroke="rgb(204, 204, 204)" stroke-width="1px"></line><line x1="51.5625" y1="118.66666666666666" x2="46.5625" y2="118.66666666666666" style="visibility: inherit;" fill="rgb(0, 0, 0)" stroke="rgb(204, 204, 204)" stroke-width="1px"></line><line x1="51.5625" y1="103.83333333333331" x2="46.5625" y2="103.83333333333331" style="visibility: inherit;" fill="rgb(0, 0, 0)" stroke="rgb(204, 204, 204)" stroke-width="1px"></line><line x1="51.5625" y1="89" x2="46.5625" y2="89" style="visibility: inherit;" fill="rgb(0, 0, 0)" stroke="rgb(204, 204, 204)" stroke-width="1px"></line><line x1="51.5625" y1="74.16666666666666" x2="46.5625" y2="74.16666666666666" style="visibility: inherit;" fill="rgb(0, 0, 0)" stroke="rgb(204, 204, 204)" stroke-width="1px"></line><line x1="51.5625" y1="59.33333333333332" x2="46.5625" y2="59.33333333333332" style="visibility: inherit;" fill="rgb(0, 0, 0)" stroke="rgb(204, 204, 204)" stroke-width="1px"></line><line x1="51.5625" y1="44.5" x2="46.5625" y2="44.5" style="visibility: inherit;" fill="rgb(0, 0, 0)" stroke="rgb(204, 204, 204)" stroke-width="1px"></line><line x1="51.5625" y1="29.66666666666666" x2="46.5625" y2="29.66666666666666" style="visibility: inherit;" fill="rgb(0, 0, 0)" stroke="rgb(204, 204, 204)" stroke-width="1px"></line><line x1="51.5625" y1="14.83333333333332" x2="46.5625" y2="14.83333333333332" style="visibility: inherit;" fill="rgb(0, 0, 0)" stroke="rgb(204, 204, 204)" stroke-width="1px"></line><line x1="51.5625" y1="0" x2="46.5625" y2="0" style="visibility: inherit;" fill="rgb(0, 0, 0)" stroke="rgb(204, 204, 204)" stroke-width="1px"></line></g><g transform="translate(41.5625, 0)"><text x="0" y="178" dx="0em" dy="0.3em" style="text-anchor: end; visibility: hidden; font-family: Roboto, sans-serif; font-size: 12px; font-weight: 200;" fill="rgb(50, 49, 63)" stroke="none" stroke-width="1px">-0.5</text><text x="0" y="163.16666666666669" dx="0em" dy="0.3em" style="text-anchor: end; visibility: inherit; font-family: Roboto, sans-serif; font-size: 12px; font-weight: 200;" fill="rgb(50, 49, 63)" stroke="none" stroke-width="1px">-0.4</text><text x="0" y="148.33333333333331" dx="0em" dy="0.3em" style="text-anchor: end; visibility: hidden; font-family: Roboto, sans-serif; font-size: 12px; font-weight: 200;" fill="rgb(50, 49, 63)" stroke="none" stroke-width="1px">-0.3</text><text x="0" y="133.5" dx="0em" dy="0.3em" style="text-anchor: end; visibility: inherit; font-family: Roboto, sans-serif; font-size: 12px; font-weight: 200;" fill="rgb(50, 49, 63)" stroke="none" stroke-width="1px">-0.2</text><text x="0" y="118.66666666666666" dx="0em" dy="0.3em" style="text-anchor: end; visibility: hidden; font-family: Roboto, sans-serif; font-size: 12px; font-weight: 200;" fill="rgb(50, 49, 63)" stroke="none" stroke-width="1px">-0.1</text><text x="0" y="103.83333333333331" dx="0em" dy="0.3em" style="text-anchor: end; visibility: inherit; font-family: Roboto, sans-serif; font-size: 12px; font-weight: 200;" fill="rgb(50, 49, 63)" stroke="none" stroke-width="1px">0</text><text x="0" y="89" dx="0em" dy="0.3em" style="text-anchor: end; visibility: hidden; font-family: Roboto, sans-serif; font-size: 12px; font-weight: 200;" fill="rgb(50, 49, 63)" stroke="none" stroke-width="1px">0.1</text><text x="0" y="74.16666666666666" dx="0em" dy="0.3em" style="text-anchor: end; visibility: inherit; font-family: Roboto, sans-serif; font-size: 12px; font-weight: 200;" fill="rgb(50, 49, 63)" stroke="none" stroke-width="1px">0.2</text><text x="0" y="59.33333333333332" dx="0em" dy="0.3em" style="text-anchor: end; visibility: hidden; font-family: Roboto, sans-serif; font-size: 12px; font-weight: 200;" fill="rgb(50, 49, 63)" stroke="none" stroke-width="1px">0.3</text><text x="0" y="44.5" dx="0em" dy="0.3em" style="text-anchor: end; visibility: inherit; font-family: Roboto, sans-serif; font-size: 12px; font-weight: 200;" fill="rgb(50, 49, 63)" stroke="none" stroke-width="1px">0.4</text><text x="0" y="29.66666666666666" dx="0em" dy="0.3em" style="text-anchor: end; visibility: hidden; font-family: Roboto, sans-serif; font-size: 12px; font-weight: 200;" fill="rgb(50, 49, 63)" stroke="none" stroke-width="1px">0.5</text><text x="0" y="14.83333333333332" dx="0em" dy="0.3em" style="text-anchor: end; visibility: inherit; font-family: Roboto, sans-serif; font-size: 12px; font-weight: 200;" fill="rgb(50, 49, 63)" stroke="none" stroke-width="1px">0.6</text><text x="0" y="0" dx="0em" dy="0.3em" style="text-anchor: end; visibility: hidden; font-family: Roboto, sans-serif; font-size: 12px; font-weight: 200;" fill="rgb(50, 49, 63)" stroke="none" stroke-width="1px">0.7</text></g><line x1="51.5625" y1="0" x2="51.5625" y2="178" fill="rgb(0, 0, 0)" stroke="rgb(204, 204, 204)" stroke-width="1px"></line></g></g><g transform="translate(51, 0)" clip-path="url(#clip_0)"><clipPath id="clip_0"><rect width="278" height="178"></rect></clipPath><g><g><g><line x1="0" y1="0" x2="0" y2="178" fill="rgb(0, 0, 0)" stroke="rgb(60, 60, 60)" stroke-width="1px" opacity="0.25"></line><line x1="27.84375" y1="0" x2="27.84375" y2="178" fill="rgb(0, 0, 0)" stroke="rgb(60, 60, 60)" stroke-width="1px" opacity="0.25"></line><line x1="55.6875" y1="0" x2="55.6875" y2="178" fill="rgb(0, 0, 0)" stroke="rgb(60, 60, 60)" stroke-width="1px" opacity="0.25"></line><line x1="83.53125" y1="0" x2="83.53125" y2="178" fill="rgb(0, 0, 0)" stroke="rgb(60, 60, 60)" stroke-width="1px" opacity="0.25"></line><line x1="111.375" y1="0" x2="111.375" y2="178" fill="rgb(0, 0, 0)" stroke="rgb(60, 60, 60)" stroke-width="1px" opacity="0.25"></line><line x1="139.21875" y1="0" x2="139.21875" y2="178" fill="rgb(0, 0, 0)" stroke="rgb(60, 60, 60)" stroke-width="1px" opacity="0.25"></line><line x1="167.0625" y1="0" x2="167.0625" y2="178" fill="rgb(0, 0, 0)" stroke="rgb(60, 60, 60)" stroke-width="1px" opacity="0.25"></line><line x1="194.90625" y1="0" x2="194.90625" y2="178" fill="rgb(0, 0, 0)" stroke="rgb(60, 60, 60)" stroke-width="1px" opacity="0.25"></line><line x1="222.75" y1="0" x2="222.75" y2="178" fill="rgb(0, 0, 0)" stroke="rgb(60, 60, 60)" stroke-width="1px" opacity="0.25"></line><line x1="250.59375" y1="0" x2="250.59375" y2="178" fill="rgb(0, 0, 0)" stroke="rgb(60, 60, 60)" stroke-width="1px" opacity="0.25"></line><line x1="278.4375" y1="0" x2="278.4375" y2="178" fill="rgb(0, 0, 0)" stroke="rgb(60, 60, 60)" stroke-width="1px" opacity="0.25"></line></g><g><line x1="0" y1="178" x2="278.4375" y2="178" fill="rgb(0, 0, 0)" stroke="rgb(60, 60, 60)" stroke-width="1px" opacity="0.25"></line><line x1="0" y1="163.16666666666669" x2="278.4375" y2="163.16666666666669" fill="rgb(0, 0, 0)" stroke="rgb(60, 60, 60)" stroke-width="1px" opacity="0.25"></line><line x1="0" y1="148.33333333333331" x2="278.4375" y2="148.33333333333331" fill="rgb(0, 0, 0)" stroke="rgb(60, 60, 60)" stroke-width="1px" opacity="0.25"></line><line x1="0" y1="133.5" x2="278.4375" y2="133.5" fill="rgb(0, 0, 0)" stroke="rgb(60, 60, 60)" stroke-width="1px" opacity="0.25"></line><line x1="0" y1="118.66666666666666" x2="278.4375" y2="118.66666666666666" fill="rgb(0, 0, 0)" stroke="rgb(60, 60, 60)" stroke-width="1px" opacity="0.25"></line><line x1="0" y1="103.83333333333331" x2="278.4375" y2="103.83333333333331" fill="rgb(0, 0, 0)" stroke="rgb(60, 60, 60)" stroke-width="1px" opacity="0.25"></line><line x1="0" y1="89" x2="278.4375" y2="89" fill="rgb(0, 0, 0)" stroke="rgb(60, 60, 60)" stroke-width="1px" opacity="0.25"></line><line x1="0" y1="74.16666666666666" x2="278.4375" y2="74.16666666666666" fill="rgb(0, 0, 0)" stroke="rgb(60, 60, 60)" stroke-width="1px" opacity="0.25"></line><line x1="0" y1="59.33333333333332" x2="278.4375" y2="59.33333333333332" fill="rgb(0, 0, 0)" stroke="rgb(60, 60, 60)" stroke-width="1px" opacity="0.25"></line><line x1="0" y1="44.5" x2="278.4375" y2="44.5" fill="rgb(0, 0, 0)" stroke="rgb(60, 60, 60)" stroke-width="1px" opacity="0.25"></line><line x1="0" y1="29.66666666666666" x2="278.4375" y2="29.66666666666666" fill="rgb(0, 0, 0)" stroke="rgb(60, 60, 60)" stroke-width="1px" opacity="0.25"></line><line x1="0" y1="14.83333333333332" x2="278.4375" y2="14.83333333333332" fill="rgb(0, 0, 0)" stroke="rgb(60, 60, 60)" stroke-width="1px" opacity="0.25"></line><line x1="0" y1="0" x2="278.4375" y2="0" fill="rgb(0, 0, 0)" stroke="rgb(60, 60, 60)" stroke-width="1px" opacity="0.25"></line></g></g></g><g><g><line x1="0" y1="103.83333333333331" x2="278.4375" y2="103.83333333333331" fill="rgb(0, 0, 0)" stroke="rgb(153, 153, 153)" stroke-width="1.5px"></line></g></g><g><g><line x1="27.84375" y1="0" x2="27.84375" y2="178" fill="rgb(0, 0, 0)" stroke="rgb(153, 153, 153)" stroke-width="1.5px"></line></g></g><g><g><g><g><g><path stroke="rgb(0, 119, 187)" stroke-width="2px" d="M28.157382000000002,83.02341466645399L28.471014,80.86883569943407L28.784646000000002,78.63262355976364L29.098278,76.58716584888158L29.411910000000002,74.97439328549554L29.725542,73.91715180271395L30.039174,73.50974003463831L30.352806,73.83859014271482L30.666438,73.96230287896813L30.98007,73.00749391126374L31.293702,72.59464934283379L31.607334,72.37202726477884L31.920966,71.21804434974521L32.234598,69.27592661611861L32.54823,67.59612448536093L32.861862,67.41016390685058L33.175494,67.76165588604093L33.489126,67.61274114385239L33.802758,67.85730993221058L34.11639,68.6546389259814L34.430022,69.5831471439386L34.743654,71.06984820502888L35.057286,73.64218779456226L35.370917999999996,76.2990376283534L35.68455,78.7064872658611L35.998182,80.03937987420366L36.311814,81.01946809824791L36.625446,82.24481895873049L36.939077999999995,84.01737458139294L37.25271,85.49510568939895L37.566342,86.03744049151175L37.879974,86.24502804309861L38.193605999999996,86.44291121273876L38.507238,87.54111878547221L38.82087,88.69183488364192L39.134502,89.51530394613842L39.448133999999996,90.55378036144374L39.761765999999994,90.7515439504357L40.075398,89.92047915058781L40.38903,90.14148948836535L40.702662,90.50383566496947L41.016293999999995,89.95965474228609L41.329926,90.06912758182993L41.643558,90.83296716563133L41.95719,92.48364045151678L42.270821999999995,93.0275440271753L42.584453999999994,93.21499599056496L42.898086,92.61840812882664L43.211718,92.57442653886946L43.525349999999996,92.3594090305498L43.838981999999994,92.8593252646588L44.15261400000001,93.67855876670497L44.466246000000005,94.85707728507057L44.779878000000004,95.77155288820721L45.09351,96.24729684501077L45.407142,96.15164409931012L45.720774000000006,95.7493171290884L46.034406000000004,95.29511725284627L46.348038,95.02943147397816L46.66167,95.13309763825008L46.975302000000006,96.1586297862097L47.288934000000005,97.20330652419912L47.602566,97.96802997881686L47.916198,98.66347939522772L48.22983,99.34039656222886L48.543462000000005,99.91578930780902L48.857094000000004,100.23136519093681L49.170726,100.57649308636407L49.484358,101.87173954154883L49.79799,119.0414673298945L50.111622000000004,155.1149114416252L50.425254,235.47601570563776L56.384262,200.21559929708496L56.697894,164.38847777213564L57.011525999999996,146.66626947005142L57.325158,148.49988589016328L57.63879,159.37108877099192L57.952422,165.56422067560734L58.266054,160.28357838518212L58.579686,149.70345186348828L58.893318,142.81666949881756L59.20695,145.86464554564344L59.520582,158.65833190577936L59.834213999999996,165.17696094213554L60.147846,166.28783701081252L60.461478,158.0279867662142L60.77511,149.10298783658845L61.088741999999996,148.06608447082183L61.402373999999995,143.5770058074435L61.716006,140.88589714798374L62.029638,137.51209129194245L62.34327,143.05948109209433L62.656901999999995,144.54909159409937L62.970534,139.4868857403672L63.284166,140.28196984172322L63.597798,142.81322617713883L63.911429999999996,140.3990275843001L64.225062,138.33533662853975L64.53869399999999,139.45154500185453L64.85232599999999,138.52094133205614L65.165958,136.27333380683703L65.47959,129.3991293454435L65.793222,122.74003999546764L66.106854,130.25092090635854L66.420486,133.44817553442334L66.734118,133.16314754773148L67.04775,130.89984516236566L67.361382,134.0629307246211L67.675014,127.94431075549143L67.988646,124.12274510420967L68.302278,128.2095064685202L68.61591,136.8249660232935L68.929542,139.39906162217898L69.243174,128.81163003561284L69.55680600000001,121.35014635533524L69.870438,123.20028806255517L70.18407,128.3837385864631L70.49770199999999,131.27866070021642L70.811334,134.85156655837767L71.124966,135.5567994069835L71.438598,131.36143596282284L71.75223,125.74276759213615L72.065862,125.55486483963176L72.379494,132.43503075197447L72.693126,127.94517228517L73.00675799999999,118.25289025264041L73.32039,120.18922409230704L73.63402199999999,126.44194505302647L73.947654,128.17035893810913L74.261286,135.10717669455087L74.574918,139.0370685934695L74.88855,134.02761701422963L75.20218200000001,133.15124334302365L75.51581399999999,137.66223158482802L75.829446,133.20469792511517L76.14307799999999,130.25325055614982L76.45671,133.5980453254533L76.770342,131.9796878712427L77.083974,128.46214370829173L77.397606,125.02789165418727L77.711238,124.99331186915268L78.02486999999999,122.65924539787468L78.338502,120.33958922002454L78.65213399999999,116.48166911109531L78.965766,111.74950363966373L79.279398,117.56725685635733L79.59303,123.76430963778215L79.90666200000001,117.21591006599098L80.220294,114.10057255356845L80.53392600000001,118.3392508371433L80.84755799999999,123.7866318271812L81.16119,129.6527585732692L81.474822,133.48499510970237L81.788454,130.76761303118778L82.102086,127.28538527452099L82.41571800000001,123.58407055654017L82.72935,125.27747762591375L83.04298200000001,126.06282172237279L83.356614,123.38391240219934L83.670246,119.02004409252005L83.983878,120.37793293844699L84.29751,123.20708336781087L84.611142,118.16050358474627L84.924774,114.21503508131926L85.238406,113.53987020129696L85.55203800000001,113.21365893209816L85.86567,110.62994113832616L86.179302,110.11583832365216L86.49293399999999,112.28081793265706L86.806566,114.92328372703294L87.120198,110.10596888290127L87.43383,107.58851320631943L87.747462,116.5537699446339L88.06109400000001,129.31277348112613L88.374726,129.26459633615545L88.68835800000001,123.14854046885328L89.00198999999999,114.84434977209067L89.315622,109.09173161632117L89.629254,105.59867232996004L89.942886,103.5294933348861L90.256518,102.03437850331068L90.57015,101.20736441734313L90.883782,101.26640459382261L91.19741400000001,101.57545777090128L91.511046,104.19392736113709L91.824678,116.98539673302558L92.13830999999999,124.91312698134176L92.451942,123.0092288808528L92.765574,122.50374480325996L93.079206,124.52334416651141L93.392838,121.70245980070081L93.70647,122.55140073207646L94.020102,117.56370657398877L94.333734,112.84329495321956L94.64736599999999,113.13963146601864L94.960998,119.89963653839476L95.27462999999999,115.9382702146382L95.588262,110.42901862456367L95.901894,107.16880448449531L96.215526,107.47846463320978L96.529158,112.48822847107049L96.84279000000001,120.51393044649956L97.15642199999999,124.8012892881596L97.470054,131.98408784545842L97.78368599999999,140.14258238123287L98.097318,143.4972284899936L98.41095,145.2729298989049L98.724582,144.86127320051617L99.038214,151.97060536416626L99.351846,154.2178911551173L99.665478,155.8472532898785L99.97911,153.60009750151244L100.29274199999999,146.67216152403915L100.606374,142.28863773219285L100.92000599999999,137.81909090959527L101.233638,133.01827907373607L101.54727,121.57200341307058L101.860902,113.86659340875606L102.17453400000001,109.15750834199643L102.488166,106.40176995445503L102.801798,104.83062347592937L103.11543,104.44217252748642L103.429062,106.34938922286491L103.742694,107.93834526843108L104.05632600000001,109.47044729097452L104.369958,118.54627551180383L104.68359000000001,131.23642257973907L104.997222,134.54686867669434L105.310854,129.65479284708823L105.624486,130.43560316474316L105.938118,135.2844161131645L106.25175,138.11861248048135L106.565382,139.96200837631218L106.879014,137.4680015043767L107.19264600000001,133.42993662534266L107.506278,128.18451436029738L107.81991000000001,123.25824895203233L108.13354199999999,124.58367524961702L108.447174,128.35452993961218L108.760806,130.56091871213144L109.074438,131.03885792703167L109.38807,135.55539672579806L109.70170200000001,137.79371148550376L110.015334,136.12990116995888L110.32896600000001,129.0178277219672L110.64259799999999,119.43979903759592L110.95623,115.58229354541722L111.269862,110.70761662110296L111.583494,107.12846340704226L111.897126,105.23392857617098L112.210758,107.31407138063086L112.52439,113.73891380043969L112.83802200000001,125.20083676941482L113.151654,134.36125296255324L113.465286,140.67529624641162L113.77891799999999,141.78793190682066L114.09255,135.6891486789632L114.406182,122.96471051649898L114.719814,115.44854366006693L115.033446,110.4655805050914L115.347078,107.73384924986095L115.66071,112.74233070964493L115.97434200000001,118.98304188224601L116.28797399999999,121.0649913508073L116.601606,118.58981688767923L116.91523799999999,115.57813257893079L117.22887,112.03446810570449L117.542502,108.6681199915366L117.856134,106.02473483391545L118.169766,103.60545150309565L118.48339800000001,101.83514455528912L118.79702999999999,100.95516879055018L119.110662,100.29087814108401L119.42429399999999,99.78233673820418L119.737926,99.9001449956468L120.051558,100.50303811588712L120.36519,101.41549733398155L120.678822,110.4107798186012L120.992454,122.06487413726654L121.306086,123.18523563036763L121.619718,118.00785735203493L121.93334999999999,116.23576203159689L122.246982,111.19788011761266L122.56061399999999,107.96600533765857L122.874246,106.24295370401884L123.187878,109.23058368437653L123.50151,115.01891996268333L123.815142,119.0868149964247L124.128774,119.03788948366447L124.44240599999999,117.89979634966097L124.756038,114.50075665783272L125.06967,113.12162738544575L125.383302,114.09114474655885L125.69693400000001,113.93146903277456L126.010566,120.01720880246769L126.32419800000001,129.1218407955365L126.63783,133.00460519631287L126.951462,131.6045936598753L127.265094,128.8551792812968L127.578726,125.1110718555823L127.892358,122.09862329210289L128.20599,121.85798781402181L128.519622,117.82748082600395L128.833254,114.7213817168615L129.146886,112.26560141271402L129.460518,116.31330143983791L129.77415,122.15708427772302L130.087782,128.71225833979474L130.401414,127.57939684641696L130.715046,118.30140258661933L131.02867799999999,111.7091245842498L131.34231,107.77578259438407L131.655942,110.35841050901092L131.969574,111.76544117525067L132.283206,109.84059285255182L132.596838,111.0797349773759L132.91047,118.82810718990851L133.22410200000002,122.91601299749307L133.537734,122.53960224890605L133.851366,123.25737512054383L134.164998,117.43181756650807L134.47863,111.4632219894155L134.792262,108.2196848631518L135.105894,109.85224637829961L135.419526,110.60393890009543L135.733158,110.704228665528L136.04679,108.07897013634035L136.360422,106.17734033608937L136.67405399999998,104.85959308820917L136.987686,106.14504134095482L137.301318,110.82456811728142L137.61495,111.89244729655223L137.928582,113.53435886528435L138.242214,116.22380884265706L138.555846,118.96942344571633L138.86947800000002,119.8316068853864L139.18311,118.9054966781097L139.49674199999998,118.92620294870282L139.81037400000002,118.18327212282823L140.124006,116.49606572657112L140.437638,116.44204670132767L140.75126999999998,111.58964844081493L141.06490200000002,108.41244095178845L141.378534,110.69387125837248L141.692166,113.61936459859673L142.005798,114.47015676550348L142.31943,110.39988853255404L142.633062,108.54607017481521L142.946694,108.00393282186505L143.260326,106.61006438470791L143.573958,110.19858696899955L143.88759,112.57461717730054L144.201222,112.38661760889663L144.51485399999999,111.305827350238L144.828486,110.72712762652975L145.142118,107.73023211166992L145.45575,106.26957532932674L145.76938199999998,109.2988643298764L146.08301400000002,110.12989097536915L146.396646,107.89032356517552L146.710278,106.1694541547693L147.02390999999997,104.92996980076268L147.337542,104.79278762031487L147.651174,107.2962814423773L147.96480599999998,109.52306563973427L148.27843800000002,107.96996547671158L148.59207,107.94736277098654L148.905702,107.95387765587489L149.219334,106.24128341237562L149.53296600000002,105.2364579570943L149.846598,106.28000654872183L150.16023,110.5231444642698L150.473862,109.59466079582306L150.787494,107.39727726736201L151.101126,106.68257999750594L151.414758,109.44666388332419L151.72839,112.03450735230984L152.042022,114.43274056605345L152.35565400000002,116.27829620853174L152.669286,116.84353204040791L152.98291799999998,115.98682802499769L153.29655000000002,116.12928820797666L153.610182,116.43004337041891L153.923814,116.25946016762248L154.23744599999998,116.24688713940138L154.55107800000002,114.19059433256876L154.86471,114.72417558063245L155.178342,112.94317240364855L155.491974,109.43122275669502L155.805606,107.30416492612824L156.119238,109.59456520572303L156.43287,110.00028503762682L156.746502,109.44097489263811L157.060134,110.12016225146967L157.37376600000002,109.94638669910661L157.687398,110.30511243893284L158.00103,111.02461592805533L158.314662,113.16669683725921L158.628294,112.38357521437379L158.941926,109.09045255490928L159.25555799999998,106.570619402307L159.56919000000002,104.74125206958416L159.882822,103.5059404310554L160.196454,103.14195004859883L160.510086,103.3455394395872L160.823718,105.94823726844892L161.13735,108.0488528559532L161.45098199999998,107.762829431142L161.764614,106.20525325714269L162.078246,105.01956721043568L162.391878,104.56334921312994L162.70551,104.2949945823613L163.019142,104.15374217159348L163.332774,104.32599032879948L163.646406,106.10517011013278L163.960038,106.19713362809009L164.27366999999998,106.83614192782436L164.58730200000002,110.29639160858747L164.900934,112.67288271026108L165.214566,112.95866334201669L165.52819799999997,113.60411812322403L165.84183000000002,113.6742011693541L166.155462,113.21662422144954L166.46909399999998,112.1523944698247L166.782726,112.51661002064581L167.096358,114.66201931590736L167.40999,112.83823498003623L167.723622,110.81111869164074L168.037254,111.08815123407699L168.350886,110.35270367126857L168.664518,108.53325019726374L168.97815,108.01285473723739L169.29178199999998,109.63395515215117L169.605414,112.86657332558465L169.919046,114.55177179681678L170.232678,112.30715715114724L170.54630999999998,109.04505313725194L170.85994200000002,106.97565041206876L171.173574,108.43059745215932L171.487206,113.62123838832116L171.80083800000003,117.06526891650839L172.11447,117.11899992284425L172.428102,115.11570780549795L172.74173399999998,111.88524306957532L173.05536600000002,111.99729029473431L173.368998,111.98916486086506L173.68263,110.57415625983711L173.996262,108.97526157394589L174.309894,108.08162741807425L174.623526,106.32650530590168L174.937158,105.27930994451145L175.25079,106.0666095773087L175.564422,106.250913676453L175.87805400000002,105.21160348446361L176.191686,104.87123225206227L176.505318,106.53369577372526L176.81895,105.87568168186071L177.132582,106.06993581285828L177.446214,105.2462337143317L177.75984599999998,104.59995184450791L178.07347800000002,104.14953876156402L178.38711,103.87168881029537L178.700742,104.6150212473014L179.014374,106.92258924859796L179.32800600000002,108.59074018220922L179.641638,106.68899880157927L179.95526999999998,105.15704972622754L180.268902,103.99446817285593L180.582534,103.0831364771035L180.896166,102.08612479971687L181.209798,101.68262632686998L181.52343,101.83591167280537L181.837062,102.14907901028471L182.15069400000002,102.71098482281647L182.464326,103.1234843448975L182.77795799999998,104.76828595322439L183.09159000000002,104.70546801778913L183.405222,104.31130450338442L183.718854,104.88159635685079L184.03248599999998,105.83602551110897L184.34611800000002,107.5466011717219L184.65975,110.19150635824397L184.973382,112.50189295347012L185.287014,115.86599142612303L185.600646,118.1684432522135L185.914278,120.39958011879585L186.22791,120.82707566285569L186.541542,119.99950608172679L186.855174,119.17834511930938L187.168806,119.36096587400752L187.482438,118.1611304618187L187.79607,118.71563636286659L188.109702,117.60695358628195L188.423334,115.08466203767554L188.736966,114.66429284766414L189.05059799999998,114.07974953088222L189.36423000000002,113.1782667634868L189.677862,111.617186779657L189.991494,109.6693003385538L190.30512599999997,107.26050121300874L190.618758,105.62979369191402L190.93239,104.49800210629247L191.24602199999998,104.09156604953712L191.559654,106.41506483712658L191.873286,109.32391489083885L192.186918,109.56733477782399L192.50055,109.03347629361068L192.814182,106.84616891364944L193.127814,105.41442471325314L193.441446,104.69994620379195L193.755078,104.21399846583313L194.06870999999998,103.92814121447078L194.382342,103.65738209399079L194.695974,103.60534234751633L195.009606,103.49475737240782L195.323238,103.70899384717953L195.63687000000002,105.2401807829786L195.950502,104.74648477820348L196.26413399999998,104.23891999786893L196.57776600000003,103.87876090731577L196.891398,103.66288661120647L197.20503,103.55632235722604L197.51866199999998,103.46272952502089L197.83229400000002,103.35022104177196L198.145926,103.28810083473466L198.459558,103.33461323703672L198.77319,103.28644689155327L199.086822,103.09065480935946L199.400454,102.95635901908103L199.714086,103.06460527218398L200.027718,102.99455386742659L200.34135,102.7154093047661L200.65498200000002,102.55660312065577L200.968614,102.8865099423039L201.282246,105.93547524797368L201.595878,111.10180286340383L201.90951,116.6511955943056L202.223142,119.05463733989089L202.53677399999998,118.96887148351324L202.85040600000002,119.97310210425172L203.164038,121.75301728343076L203.47767,123.7842037957615L203.791302,125.85684212337175L204.10493400000001,127.6277571675593L204.418566,129.3616356327582L204.73219799999998,130.04812989082626L205.04583,129.22970141239975L205.359462,128.2660517629068L205.673094,127.43167396800204L205.986726,127.74713359326017L206.300358,128.36884449352755L206.61399,127.45131338097613L206.927622,124.46299159402426L207.241254,123.07378234987324L207.55488599999998,119.67154989853422L207.86851800000002,116.68214036851079L208.18215,117.12213849025339L208.495782,117.8144095361076L208.80941399999998,116.77896272956386L209.12304600000002,114.04721951029134L209.436678,112.94893144592503L209.75030999999998,113.43146072938954L210.063942,116.19258634218524L210.377574,120.73509831608703L210.691206,123.07020571657837L211.004838,124.72665094631208L211.31847,125.73209672350063L211.632102,127.01020187841877L211.94573400000002,126.62352622771476L212.259366,123.28672584826279L212.57299799999998,121.77604728302079L212.88663,120.57826486941607L213.200262,119.05057689875224L213.513894,118.21834070978477L213.82752599999998,118.39035584329316L214.14115800000002,120.26435893256712L214.45479,122.37553476380855L214.768422,125.40613934052516L215.082054,129.21228992930568L215.395686,134.9750714102875L215.709318,140.71212489204552L216.02294999999998,144.2886836973644L216.336582,144.77025323199135L216.650214,142.10088884882273L216.963846,137.99035253953224L217.277478,134.13566648859552L217.59111000000001,131.4859072579867L217.904742,128.15926465872485L218.218374,123.94316385974619L218.532006,119.97628753060182L218.845638,116.32943175489156L219.15927000000002,112.38551711964278L219.472902,110.35537735379339L219.786534,110.82624086393874L220.100166,110.51616953951493L220.413798,112.05917032545234L220.72743,111.46796524913366L221.04106199999998,110.07116421992336L221.35469400000002,109.56692037146142L221.668326,107.90490052907677L221.981958,106.5412076631353L222.29559,105.7653020299598L222.60922200000002,104.69405732335147L222.922854,103.67808198202547L223.23648599999999,103.04924870393016L223.550118,102.94622082348222L223.86375,103.0715967443283L224.177382,103.56662573569936L224.491014,103.80069190473463L224.804646,103.57145123533073L225.118278,103.58028435913594L225.43191000000002,104.53774807514968L225.745542,107.2834690168235L226.05917399999998,109.84514218298992L226.37280600000003,108.41399313993294L226.686438,106.43169044503047L227.00007,105.23382875234219L227.31370199999998,104.65888527054058L227.62733400000002,104.40874508819685L227.940966,104.93842345444881L228.254598,106.69351136317961L228.56823,109.73579463937548L228.881862,114.77434091018836L229.195494,119.063794379913L229.509126,121.64838465182972L229.822758,122.94493746238346L230.13639,122.6104267943545L230.450022,120.64241562537215L230.763654,117.37614178410288L231.077286,113.38126263345947L231.390918,111.90103706712924L231.70455,112.2424772346739L232.018182,113.63396509476844L232.33181399999998,117.91690605474517L232.64544600000002,120.67166096722885L232.959078,121.45536621663453L233.27271,123.33430731646308L233.58634199999997,125.444302010648L233.89997400000001,128.216167361406L234.213606,130.02807686181913L234.52723799999998,128.56859296432367L234.84087,125.62803319218494L235.154502,123.42360382153235L235.468134,119.39853058878765L235.781766,114.87995728278668L236.095398,112.49792347952432L236.40903,109.29419446519587L236.722662,108.13481046824599L237.036294,107.35799498499797L237.34992599999998,108.80808231467823L237.663558,111.0670349850346L237.97719,114.03753084763424L238.290822,114.06178226465703L238.60445399999998,111.34158057780894L238.91808600000002,108.3911083655392L239.231718,106.43051449881008L239.54534999999998,105.19302622768387L239.858982,105.01025666893385L240.172614,104.92757333577192L240.486246,106.0474191720914L240.79987799999998,108.6804810379325L241.11351000000002,110.25420789655318L241.427142,109.57412960421803L241.740774,109.89461298609831L242.054406,110.81982465282118L242.368038,112.18543518798572L242.68167,110.7710999794822L242.995302,108.82667482259995L243.308934,109.99505966075138L243.622566,111.14618408631013L243.93619800000002,113.64228765637114L244.24983,116.18015253029527L244.563462,117.56205783575135L244.87709400000003,117.54105737282448L245.190726,115.49958413575258L245.504358,111.31458177743356L245.81798999999998,108.28501862533471L246.13162200000002,106.42339548074442L246.445254,105.90461092503809L246.758886,107.93668668803737L247.072518,108.88467979681788L247.38615000000001,110.68280803214887L247.699782,111.20662466616261L248.013414,109.67359660450117L248.327046,108.28053349733449L248.640678,108.5991350897954L248.95431,109.6266389984174L249.267942,110.31339033484161L249.581574,110.6091731103641L249.895206,111.72859815333577L250.20883800000001,111.3077175790526L250.52247,110.22812793648983L250.83610199999998,110.88607174106485L251.14973400000002,114.24746627478628L251.463366,117.91994276763296L251.776998,116.89522426399368L252.09062999999998,111.80739277849513L252.40426200000002,108.5107148201976L252.717894,106.49886744567164L253.03152599999999,105.3082447370171L253.345158,104.56322647584405L253.65879,103.71174165094153L253.972422,103.02753321928833L254.286054,102.83073931261234L254.599686,103.06762543861667L254.913318,105.31796355770786L255.22695000000002,108.23258396770612L255.540582,109.40909681739045L255.85421399999998,110.45090022696039L256.167846,109.68376361834791L256.481478,108.54251325805659L256.79511,108.67875309147243L257.108742,106.86855240025552L257.422374,105.48756079760129L257.736006,104.38764409616252L258.049638,103.53209267531132L258.36327,102.77633842686392L258.676902,102.3242606533393L258.990534,102.2014700206811L259.304166,102.40845057842552L259.617798,102.88897748482924L259.93143000000003,105.02339982480426L260.245062,106.37108485072227L260.558694,106.83605646517499L260.872326,107.66890405819788L261.185958,108.2406504325428L261.49959,111.7097978188013L261.813222,115.96688703259318L262.126854,117.21818467514014L262.440486,115.5867541434544L262.754118,113.30645976774957L263.06775,112.19400078741549L263.381382,111.3093651271135L263.695014,111.24212318726005L264.008646,111.01561377585503L264.322278,111.02721067552113" style="fill: none;" fill="none"></path></g></g></g></g><g opacity="0.2"><g><g><g><path stroke="rgb(0, 119, 187)" stroke-width="2px" d="M28.157382000000002,83.02341466645399L28.471014,79.57608831922212L28.784646000000002,76.48585990568L29.098278,74.18170758088428L29.411910000000002,72.86875742673874L29.725542,72.45460622509319L30.039174,72.92713468770185L30.352806,74.31805675725141L30.666438,74.14475513497987L30.98007,71.58971387147903L31.293702,71.97912696003914L31.607334,72.03930564721423L31.920966,69.490837931633L32.234598,66.36655482649803L32.54823,65.07839583357173L32.861862,67.1313541928927L33.175494,68.28874511520067L33.489126,67.3894068400065L33.802758,68.22412585715452L34.11639,69.8505595376094L34.430022,70.97585854927698L34.743654,73.29985087613264L35.057286,77.50064639250436L35.370917999999996,80.28428090612093L35.68455,82.31764461100101L35.998182,82.03871310253936L36.311814,82.48959792653719L36.625446,84.0828433682521L36.939077999999995,86.67620638261238L37.25271,87.71170153468847L37.566342,86.85094251483679L37.879974,86.55640932917595L38.193605999999996,86.73973594357568L38.507238,89.18843006591001L38.82087,90.41790898144245L39.134502,90.7505075186491L39.448133999999996,92.11149496833482L39.761765999999994,91.04818933208782L40.075398,88.67388195544481L40.38903,90.47300499429303L40.702662,91.04735492914915L41.016293999999995,89.14338335891563L41.329926,90.23333684106666L41.643558,91.97872654100257L41.95719,94.95965037991601L42.270821999999995,93.84339939057827L42.584453999999994,93.4961739356319L42.898086,91.72352633625269L43.211718,92.5084541539351L43.525349999999996,92.03688276807466L43.838981999999994,93.60919961581627L44.15261400000001,94.90740901976824L44.466246000000005,96.62485506261388L44.779878000000004,97.14326629290977L45.09351,96.96091278021532L45.407142,96.0081649807592L45.720774000000006,95.14582667375603L46.034406000000004,94.61381743848324L46.348038,94.63090280567604L46.66167,95.28859688465792L46.975302000000006,97.69692800814906L47.288934000000005,98.77032163118321L47.602566,99.11511516074339L47.916198,99.706653519844L48.22983,100.35577231273055L48.543462000000005,100.77887842617929L48.857094000000004,100.70472901562849L49.170726,101.09418492950499L49.484358,103.81460922432598L49.79799,144.79605901241302L50.111622000000004,209.22507760922116L56.07063,191.1776161988576L56.384262,145.55886907378832L56.697894,110.64779548471171L57.011525999999996,120.08295701692501L57.325158,151.25031052033106L57.63879,175.67789309223494L57.952422,174.85391853253046L58.266054,152.36261494954425L58.579686,133.83326208094755L58.893318,132.48649595181146L59.20695,150.43660961588222L59.520582,177.84886144598326L59.834213999999996,174.95490449666977L60.147846,167.95415111382803L60.461478,145.6382113993168L60.77511,135.7154894421498L61.088741999999996,146.5107294221719L61.402373999999995,136.84338781237602L61.716006,136.84923415879408L62.029638,132.4513825078805L62.34327,151.38056579232216L62.656901999999995,146.78350734710693L62.970534,131.89357695976892L63.284166,141.47459599375725L63.597798,146.61011068026224L63.911429999999996,136.77772969504196L64.225062,135.23980019489923L64.53869399999999,141.1258575618267L64.85232599999999,137.12503582735854L65.165958,132.9019225190083L65.47959,119.08782265335321L65.793222,112.75140597050387L66.106854,141.5172422726949L66.420486,138.24405747652054L66.734118,132.7356055676937L67.04775,127.50489158431688L67.361382,138.80755906800428L67.675014,118.76638080179691L67.988646,118.39039662728706L68.302278,134.33964851498604L68.61591,149.7481553554535L68.929542,143.26020502050716L69.243174,112.93048265576363L69.55680600000001,110.1579208349188L69.870438,125.9755006233851L70.18407,136.15891437232494L70.49770199999999,135.62104387084642L70.811334,140.2109253456195L71.124966,136.6146486798922L71.438598,125.0683907965819L71.75223,117.31476503610611L72.065862,125.27301071087518L72.379494,142.75527962048847L72.693126,121.21038458496332L73.00675799999999,103.71446720384603L73.32039,123.09372485180694L73.63402199999999,135.82102649410564L73.947654,130.76297976573306L74.261286,145.51240332921344L74.574918,144.93190644184747L74.88855,126.51343964536983L75.20218200000001,131.8366828362147L75.51581399999999,144.42871394753456L75.829446,126.51839743554592L76.14307799999999,125.82607950270176L76.45671,138.61523747940856L76.770342,129.55215168992677L77.083974,123.18582746386528L77.397606,119.87651357303062L77.711238,124.9414421916008L78.02486999999999,119.1581456909577L78.338502,116.86010495324928L78.65213399999999,110.69478894770145L78.965766,104.65125543251634L79.279398,126.29388668139774L79.59303,133.05988880991936L79.90666200000001,107.39331070830423L80.220294,109.42756628493467L80.53392600000001,124.69726826250553L80.84755799999999,131.95770331223804L81.16119,138.45194869240123L81.474822,139.2333499143521L81.788454,126.69153991341591L82.102086,122.0620436395208L82.41571800000001,118.03209847956896L82.72935,127.81758822997409L83.04298200000001,127.24083786706129L83.356614,119.3655484219392L83.670246,112.47424162800112L83.983878,122.41476620733738L84.29751,127.4508090118567L84.611142,110.59063391014934L84.924774,108.29683232617873L85.238406,112.5271228812635L85.55203800000001,112.72434202829996L85.86567,106.7543644476682L86.179302,109.34468410164118L86.49293399999999,115.52828734616438L86.806566,118.88698241859674L87.120198,102.87999661670375L87.43383,103.81232969144668L87.747462,130.00165505210558L88.06109400000001,148.4512787858645L88.374726,129.19233061869937L88.68835800000001,113.97445666790009L89.00198999999999,102.38806372694671L89.315622,100.46280438266695L89.629254,100.35908340041834L89.942886,100.42572484227517L90.256518,99.79170625594753L90.57015,99.96684328839183L90.883782,101.35496485854188L91.19741400000001,102.03903753651926L91.511046,108.12163174649078L91.824678,136.17260079085827L92.13830999999999,136.80472235381603L92.451942,120.15338173011938L92.765574,121.74551868687072L93.079206,127.55274321138859L93.392838,117.4711332519849L93.70647,123.8248121291399L94.020102,110.08216533685723L94.333734,105.76267752206573L94.64736599999999,113.58413623521724L94.960998,130.03964414695898L95.27462999999999,109.99622072900334L95.588262,102.16514123945186L95.901894,102.27848327439278L96.215526,107.94295485628146L96.529158,120.00287422786155L96.84279000000001,132.55248340964317L97.15642199999999,131.23232755064964L97.470054,142.75828568140665L97.78368599999999,152.38032418489456L98.097318,148.52919765313464L98.41095,147.93648201227188L98.724582,144.24378815293312L99.038214,162.6346036096414L99.351846,157.58881984154382L99.665478,158.29129649202028L99.97911,150.22936381896335L100.29274199999999,136.2802575578292L100.606374,135.7133520444234L100.92000599999999,131.1147706756989L101.233638,125.81706131994724L101.54727,104.40258992207237L101.860902,102.30847840228427L102.17453400000001,102.09388074185699L102.488166,102.26816237314293L102.801798,102.47390375814089L103.11543,103.85949610482203L103.429062,109.21021426593262L103.742694,110.32177933678031L104.05632600000001,111.76860032478967L104.369958,132.16001784304777L104.68359000000001,150.27164318164188L104.997222,139.51253782212734L105.310854,122.31667910267907L105.624486,131.6068186412255L105.938118,142.55763553579646L106.25175,142.36990703145662L106.565382,142.72710222005844L106.879014,133.72699119647342L107.19264600000001,127.3728393067916L107.506278,120.31638096272945L107.81991000000001,115.86885083963472L108.13354199999999,126.57181469599405L108.447174,134.0108119746049L108.760806,133.87050187091032L109.074438,131.75576674938202L109.38807,142.33020492394763L109.70170200000001,141.1511836250623L110.015334,133.6341856966416L110.32896600000001,118.34971754997969L110.64259799999999,105.07275601103902L110.95623,109.79603530714908L111.269862,103.39560123463161L111.583494,101.75973358595121L111.897126,102.39212632986406L112.210758,110.43428558732072L112.52439,123.3761774301529L112.83802200000001,142.3937212228775L113.151654,148.10187725226083L113.465286,150.14636117219925L113.77891799999999,143.45688539743423L114.09255,126.54097383717695L114.406182,103.87805327280267L114.719814,104.17429337541881L115.033446,102.99113577262807L115.347078,103.63625236701529L115.66071,120.2550528993209L115.97434200000001,128.3441086411476L116.28797399999999,124.18791555364925L116.601606,114.87705519298711L116.91523799999999,111.06060611580807L117.22887,106.71897139586508L117.542502,103.61859782028478L117.856134,102.05965709748367L118.169766,99.97652650686601L118.48339800000001,99.17968413357931L118.79702999999999,99.63520514344174L119.110662,99.29444216688472L119.42429399999999,99.01952463388443L119.737926,100.07685738181073L120.051558,101.4073777962476L120.36519,102.78418616112322L120.678822,123.90370354553062L120.992454,139.54601561526457L121.306086,124.86577787001926L121.619718,110.2417899345358L121.93334999999999,113.57761905093986L122.246982,103.64105724663628L122.56061399999999,103.11819316772744L122.874246,103.65837625355925L123.187878,113.7120286549131L123.50151,123.70142438014346L123.815142,125.1886575470368L124.128774,118.96450121452409L124.44240599999999,116.19265664865571L124.756038,109.4021971200903L125.06967,111.05293347686529L125.383302,115.54542078822851L125.69693400000001,113.69195546209812L126.010566,129.1458184570074L126.32419800000001,142.7787887851397L126.63783,138.8287517974774L126.951462,129.5045763552189L127.265094,124.73105771342912L127.578726,119.4949107170105L127.892358,117.57995044688383L128.20599,121.49703459690014L128.519622,111.78172034397721L128.833254,110.06223305314779L129.146886,108.58193095649281L129.460518,122.38485148052374L129.77415,130.92275853455067L130.087782,138.54501943290234L130.401414,125.88010460635024L130.715046,104.38441119692288L131.02867799999999,101.82070758069554L131.34231,101.8757696095854L131.655942,114.23235238095123L131.969574,113.87598717461029L132.283206,106.95332036850351L132.596838,112.93844816461205L132.91047,130.45066550870735L133.22410200000002,129.04787170886993L133.537734,121.9749861260255L133.851366,124.33403442800045L134.164998,108.69348123545447L134.47863,102.51032862377662L134.792262,103.35437917375626L135.105894,112.3010886510213L135.419526,111.73147768278915L135.733158,110.8546633136769L136.04679,104.14108234255883L136.360422,103.32489563571289L136.67405399999998,102.88297221638882L136.987686,108.07321372007328L137.301318,117.84385828177133L137.61495,113.49426606545845L137.928582,115.99722621838251L138.242214,120.25798380871612L138.555846,123.08784535030523L138.86947800000002,121.1248820448915L139.18311,117.51633136719465L139.49674199999998,118.95726235459247L139.81037400000002,117.06887588401634L140.124006,113.96525613218546L140.437638,116.36101816346246L140.75126999999998,104.31105105004582L141.06490200000002,103.64662971824873L141.378534,114.11601671824852L141.692166,118.00760460893312L142.005798,115.74634501586357L142.31943,104.29448618312986L142.633062,105.76534263820696L142.946694,107.19072679243982L143.260326,104.5192617289722L143.573958,115.58137084543705L143.88759,116.13866248975197L144.201222,112.10461825629073L144.51485399999999,109.68464196225005L144.828486,109.85907804096738L145.142118,103.23488883938018L145.45575,104.07859015581198L145.76938199999998,113.84279783070087L146.08301400000002,111.37643094360828L146.396646,104.53097244988504L146.710278,103.58815003915998L147.02390999999997,103.07074326975271L147.337542,104.58701434964314L147.651174,111.05152217547098L147.96480599999998,112.86324193576971L148.27843800000002,105.64031523217756L148.59207,107.913458712399L148.905702,107.96364998320738L149.219334,103.67239204712678L149.53296600000002,103.72921977417232L149.846598,107.8453294361631L150.16023,116.8878513375918L150.473862,108.20193529315293L150.787494,104.1012019746704L151.101126,105.61053409272182L151.414758,113.59278971205154L151.72839,115.91627255578834L152.042022,118.03009038666883L152.35565400000002,119.04662967224914L152.669286,117.69138578822214L152.98291799999998,114.70177200188238L153.29655000000002,116.34297848244506L153.610182,116.88117611408234L153.923814,116.00358536342779L154.23744599999998,116.22802759706974L154.55107800000002,111.10615512231985L154.86471,115.52454745272794L155.178342,110.27166763817269L155.491974,104.16329828626476L155.805606,104.11357818027801L156.119238,113.03016562511522L156.43287,110.60886478548247L156.746502,108.60200967515507L157.060134,111.13894328971702L157.37376600000002,109.68572337056199L157.687398,110.8432010486722L158.00103,112.10387116173902L158.314662,116.37981820106506L158.628294,111.20889278004566L158.941926,104.1507685657125L159.25555799999998,102.79086967340359L159.56919000000002,101.9972010704999L159.882822,101.65297297326225L160.196454,102.59596447491396L160.510086,103.65092352606976L160.823718,109.85228401174146L161.13735,111.19977623720962L161.45098199999998,107.33379429392517L161.764614,103.86888899614374L162.078246,103.24103814037517L162.391878,103.87902221717133L162.70551,103.89246263620831L163.019142,103.94186355544176L163.332774,104.58436256460845L163.646406,108.77393978213269L163.960038,106.33507890502611L164.27366999999998,107.7946543774257L164.58730200000002,115.48676612973213L164.900934,116.23761936277151L165.214566,113.38733428965011L165.52819799999997,114.57230029503503L165.84183000000002,113.77932573854923L166.155462,112.53025879959264L166.46909399999998,110.55604984238744L166.782726,113.06293334687749L167.096358,117.8801332587997L167.40999,110.10255847622949L167.723622,107.77044425904751L168.037254,111.5037000477314L168.350886,109.24953232705593L168.664518,105.80406998625645L168.97815,107.23226154719788L169.29178199999998,112.06560577452183L169.605414,117.71550058573484L169.919046,117.07956950366497L170.232678,108.94023518264294L170.54630999999998,104.15189711640897L170.85994200000002,103.87154632429397L171.173574,110.61301801229516L171.487206,121.40719979256392L171.80083800000003,122.23131470878917L172.11447,117.19959643234807L172.428102,112.11076962947845L172.74173399999998,107.03954596569139L173.05536600000002,112.16536113247275L173.368998,111.97697671006122L173.68263,108.45164335829514L173.996262,106.57691954510906L174.309894,106.7411761842668L174.623526,103.6938221376428L174.937158,103.70851690242608L175.25079,107.24755902650455L175.564422,106.52736982516944L175.87805400000002,103.65263819647953L176.191686,104.36067540346022L176.505318,109.02739105621973L176.81895,104.8886605440639L177.132582,106.36131700935462L177.446214,104.01068056654185L177.75984599999998,103.63052903977223L178.07347800000002,103.47391913714819L178.38711,103.45491388339238L178.700742,105.73001990281045L179.014374,110.38394125054279L179.32800600000002,111.0929665826261L179.641638,103.83638673063433L179.95526999999998,102.85912611319992L180.268902,102.25059584279853L180.582534,101.71613893347481L180.896166,100.59060728363693L181.209798,101.0773786175996L181.52343,102.06583969170848L181.837062,102.61883001650372L182.15069400000002,103.55384354161407L182.464326,103.74223362801905L182.77795799999998,107.23548836571473L183.09159000000002,104.61124111463624L183.405222,103.72005923177736L183.718854,105.7370341370503L184.03248599999998,107.26766924249628L184.34611800000002,110.11246466264129L184.65975,114.15886413802701L184.973382,115.96747284630933L185.287014,120.91213913510242L185.600646,121.62212099134922L185.914278,123.74628541866937L186.22791,121.4683189789454L186.541542,118.75815171003342L186.855174,117.94660367568332L187.168806,119.6348970060547L187.482438,116.36137734353542L187.79607,119.54739521443844L188.109702,115.94392942140499L188.423334,111.30122471476594L188.736966,114.03373906264702L189.05059799999998,113.20293455570936L189.36423000000002,111.82604261239368L189.677862,109.27556680391231L189.991494,106.74747067689896L190.30512599999997,103.64730252469113L190.618758,103.18373241027194L190.93239,102.80031472786018L191.24602199999998,103.48191196440408L191.559654,109.90031301851073L191.873286,113.68718997140724L192.186918,109.9324646083017L192.50055,108.2326885672907L192.814182,103.56520784370755L193.127814,103.26680841265866L193.441446,103.6282284396002L193.755078,103.4850768588949L194.06870999999998,103.49935533742729L194.382342,103.25124341327074L194.695974,103.52728272780465L195.009606,103.3288799097451L195.323238,104.03034855933703L195.63687000000002,107.53696118667722L195.950502,104.0059407710408L196.26413399999998,103.47757282736711L196.57776600000003,103.338522271486L196.891398,103.3390751670425L197.20503,103.3964759762554L197.51866199999998,103.32234027671316L197.83229400000002,103.18145831689858L198.145926,103.19492052417868L198.459558,103.4043818404898L198.77319,103.21419737332809L199.086822,102.79696668606871L199.400454,102.7549153336634L199.714086,103.22697465183833L200.027718,102.88947676029056L200.34135,102.29669246077538L200.65498200000002,102.31839384449023L200.968614,103.38137017477612L201.282246,110.50892320647836L201.595878,118.85129428654909L201.90951,124.97528469065824L202.223142,122.65979995826879L202.53677399999998,118.84022269894677L202.85040600000002,121.47944803535938L203.164038,124.42289005219936L203.47767,126.83098356425762L203.791302,128.9657996147871L204.10493400000001,130.28412973384062L204.418566,131.96245333055654L204.73219799999998,131.07787127792835L205.04583,128.00205869476L205.359462,126.82057728866735L205.673094,126.18010727564493L205.986726,128.2203230311473L206.300358,129.30141084392864L206.61399,126.07501671214897L206.927622,119.98050891359645L207.241254,120.98996848364669L207.55488599999998,114.56820122152567L207.86851800000002,112.19802607347566L208.18215,117.7821356728673L208.495782,118.85281610488892L208.80941399999998,115.22579251974821L209.12304600000002,109.94960468138257L209.436678,111.30149934937555L209.75030999999998,114.15525465458632L210.063942,120.33427476137877L210.377574,127.54886627693969L210.691206,126.5728668173154L211.004838,127.21131879091263L211.31847,127.24026538928348L211.632102,128.92735961079597L211.94573400000002,126.04351275165874L212.259366,118.28152527908483L212.57299799999998,119.51002943515778L212.88663,118.78159124900895L213.200262,116.75904494275647L213.513894,116.96998642633358L213.82752599999998,118.64837854355574L214.14115800000002,123.07536356647807L214.45479,125.54229851067066L214.768422,129.95204620560008L215.082054,134.92151581247646L215.395686,143.61924363176027L215.709318,149.3177051146825L216.02294999999998,149.65352190534273L216.336582,145.49260753393173L216.650214,138.0968422740698L216.963846,131.82454807559648L217.277478,128.35363741219044L217.59111000000001,127.51126841207343L217.904742,123.16930075983205L218.218374,117.61901266127825L218.532006,114.02597303688526L218.845638,110.85914809132615L219.15927000000002,106.46964516676962L219.472902,107.3101677050193L219.786534,111.53253612915674L220.100166,110.05106255287924L220.413798,114.37367150435844L220.72743,110.58115763465563L221.04106199999998,107.97596267610788L221.35469400000002,108.81055459876853L221.668326,105.41187076549977L221.981958,104.49566836422309L222.29559,104.60144358019653L222.60922200000002,103.08719026343897L222.922854,102.1541189700365L223.23648599999999,102.10599878678718L223.550118,102.79167900281027L223.86375,103.25966062559746L224.177382,104.30916922275597L224.491014,104.15179115828747L224.804646,103.2275902312249L225.118278,103.59353404484378L225.43191000000002,105.97394364917028L225.745542,111.40205042933422L226.05917399999998,113.68765193223953L226.37280600000003,106.26726957534748L226.686438,103.45823640267673L227.00007,103.4370362133098L227.31370199999998,103.79647004783811L227.62733400000002,104.03353481468122L227.940966,105.73294100382674L228.254598,109.32614322627583L228.56823,114.29921955366927L228.881862,122.33216031640768L229.195494,125.49797458449999L229.509126,125.52527005970478L229.822758,124.88976667821407L230.13639,122.10866079231101L230.450022,117.69039887189865L230.763654,112.47673102219898L231.077286,107.38894390749434L231.390918,109.68069871763387L231.70455,112.75463748599091L232.018182,115.72119688491026L232.33181399999998,124.34131749471027L232.64544600000002,124.80379333595434L232.959078,122.63092409074306L233.27271,126.1527189662059L233.58634199999997,128.60929405192533L233.89997400000001,132.37396538754302L234.213606,132.74594111243883L234.52723799999998,126.37936711808044L234.84087,121.21719353397685L235.154502,120.11695976555347L235.468134,113.36092073967058L235.781766,108.10209732378522L236.095398,108.92487277463078L236.40903,104.4886009437032L236.722662,106.39573447282115L237.036294,106.19277176012594L237.34992599999998,110.98321330919862L237.663558,114.45546399056911L237.97719,118.49327464153367L238.290822,114.09815939019123L238.60445399999998,107.26127804753679L238.91808600000002,103.96540004713461L239.231718,103.48962369871634L239.54534999999998,103.33679382099459L239.858982,104.73610233080882L240.172614,104.80354833602905L240.486246,107.72718792657056L240.79987799999998,112.63007383669415L241.11351000000002,112.61479818448424L241.427142,108.55401216571528L241.740774,110.37533805891871L242.054406,112.20764215290546L242.368038,114.23385099073249L242.68167,108.64959716672698L242.995302,105.91003708727658L243.308934,111.74763691797853L243.622566,112.87287072464824L243.93619800000002,117.38644301146269L244.24983,119.98694984118143L244.563462,119.63491579393545L244.87709400000003,117.5095566784342L245.190726,112.43737428014475L245.504358,105.03707823995501L245.81798999999998,103.74067389718644L246.13162200000002,103.63096076385892L246.445254,105.12643409147859L246.758886,110.98480033253628L247.072518,110.30666945998865L247.38615000000001,113.38000038514534L247.699782,111.99234961718321L248.013414,107.37405451200902L248.327046,106.19093883658448L248.640678,109.07703747848669L248.95431,111.16789486135045L249.267942,111.34351733947793L249.581574,111.05284727364779L249.895206,113.40773571779329L250.20883800000001,110.67639671762782L250.52247,108.60874347264567L250.83610199999998,111.87298744792739L251.14973400000002,119.2895580753684L251.463366,123.428657506903L251.776998,115.35814650853473L252.09062999999998,104.17564555024728L252.40426200000002,103.5656978827513L252.717894,103.48109638388269L253.03152599999999,103.52231067403528L253.345158,103.44569908408448L253.65879,102.43451441358775L253.972422,102.00122057180852L254.286054,102.53554845259833L254.599686,103.42295462762314L254.913318,108.69347073634464L255.22695000000002,112.6045145827035L255.540582,111.17386609191695L255.85421399999998,112.01360534131527L256.167846,108.53305870542923L256.481478,106.83063771761954L256.79511,108.88311284159619L257.108742,104.15325136343017L257.422374,103.41607339361991L257.736006,102.73776904400438L258.049638,102.24876554403454L258.36327,101.64270705419281L258.676902,101.64614399305233L258.990534,102.01728407169381L259.304166,102.71892141504213L259.617798,103.60976784443483L259.93143000000003,108.2250333347668L260.245062,108.39261238959926L260.558694,107.53351388685405L260.872326,108.91817544773221L261.185958,109.09826999406019L261.49959,116.91351889818907L261.813222,122.35252085328102L262.126854,119.09513113896051L262.440486,113.13960834592581L262.754118,109.88601820419231L263.06775,110.52531231691438L263.381382,109.98241163666049L263.695014,111.14126027747989L264.008646,110.6758496587475L264.322278,111.04460602502027" style="fill: none;" fill="none"></path></g></g></g></g></g></g><g transform="translate(51, 178)" clip-path="url(#clip_1)"><clipPath id="clip_1"><rect width="278" height="22"></rect></clipPath><g><g><line x1="0" y1="0" x2="0" y2="5" style="visibility: inherit;" fill="rgb(0, 0, 0)" stroke="rgb(204, 204, 204)" stroke-width="1px"></line><line x1="27.84375" y1="0" x2="27.84375" y2="5" style="visibility: inherit;" fill="rgb(0, 0, 0)" stroke="rgb(204, 204, 204)" stroke-width="1px"></line><line x1="55.6875" y1="0" x2="55.6875" y2="5" style="visibility: inherit;" fill="rgb(0, 0, 0)" stroke="rgb(204, 204, 204)" stroke-width="1px"></line><line x1="83.53125" y1="0" x2="83.53125" y2="5" style="visibility: inherit;" fill="rgb(0, 0, 0)" stroke="rgb(204, 204, 204)" stroke-width="1px"></line><line x1="111.375" y1="0" x2="111.375" y2="5" style="visibility: inherit;" fill="rgb(0, 0, 0)" stroke="rgb(204, 204, 204)" stroke-width="1px"></line><line x1="139.21875" y1="0" x2="139.21875" y2="5" style="visibility: inherit;" fill="rgb(0, 0, 0)" stroke="rgb(204, 204, 204)" stroke-width="1px"></line><line x1="167.0625" y1="0" x2="167.0625" y2="5" style="visibility: inherit;" fill="rgb(0, 0, 0)" stroke="rgb(204, 204, 204)" stroke-width="1px"></line><line x1="194.90625" y1="0" x2="194.90625" y2="5" style="visibility: inherit;" fill="rgb(0, 0, 0)" stroke="rgb(204, 204, 204)" stroke-width="1px"></line><line x1="222.75" y1="0" x2="222.75" y2="5" style="visibility: inherit;" fill="rgb(0, 0, 0)" stroke="rgb(204, 204, 204)" stroke-width="1px"></line><line x1="250.59375" y1="0" x2="250.59375" y2="5" style="visibility: inherit;" fill="rgb(0, 0, 0)" stroke="rgb(204, 204, 204)" stroke-width="1px"></line><line x1="278.4375" y1="0" x2="278.4375" y2="5" style="visibility: inherit;" fill="rgb(0, 0, 0)" stroke="rgb(204, 204, 204)" stroke-width="1px"></line></g><g transform="translate(0, 8)"><text x="0" y="0" dx="0em" dy="0.95em" style="text-anchor: middle; visibility: hidden; font-family: Roboto, sans-serif; font-size: 12px; font-weight: 200;" fill="rgb(50, 49, 63)" stroke="none" stroke-width="1px">-5M</text><text x="27.84375" y="0" dx="0em" dy="0.95em" style="text-anchor: middle; visibility: inherit; font-family: Roboto, sans-serif; font-size: 12px; font-weight: 200;" fill="rgb(50, 49, 63)" stroke="none" stroke-width="1px">0</text><text x="55.6875" y="0" dx="0em" dy="0.95em" style="text-anchor: middle; visibility: hidden; font-family: Roboto, sans-serif; font-size: 12px; font-weight: 200;" fill="rgb(50, 49, 63)" stroke="none" stroke-width="1px">5M</text><text x="83.53125" y="0" dx="0em" dy="0.95em" style="text-anchor: middle; visibility: inherit; font-family: Roboto, sans-serif; font-size: 12px; font-weight: 200;" fill="rgb(50, 49, 63)" stroke="none" stroke-width="1px">10M</text><text x="111.375" y="0" dx="0em" dy="0.95em" style="text-anchor: middle; visibility: hidden; font-family: Roboto, sans-serif; font-size: 12px; font-weight: 200;" fill="rgb(50, 49, 63)" stroke="none" stroke-width="1px">15M</text><text x="139.21875" y="0" dx="0em" dy="0.95em" style="text-anchor: middle; visibility: inherit; font-family: Roboto, sans-serif; font-size: 12px; font-weight: 200;" fill="rgb(50, 49, 63)" stroke="none" stroke-width="1px">20M</text><text x="167.0625" y="0" dx="0em" dy="0.95em" style="text-anchor: middle; visibility: hidden; font-family: Roboto, sans-serif; font-size: 12px; font-weight: 200;" fill="rgb(50, 49, 63)" stroke="none" stroke-width="1px">25M</text><text x="194.90625" y="0" dx="0em" dy="0.95em" style="text-anchor: middle; visibility: inherit; font-family: Roboto, sans-serif; font-size: 12px; font-weight: 200;" fill="rgb(50, 49, 63)" stroke="none" stroke-width="1px">30M</text><text x="222.75" y="0" dx="0em" dy="0.95em" style="text-anchor: middle; visibility: hidden; font-family: Roboto, sans-serif; font-size: 12px; font-weight: 200;" fill="rgb(50, 49, 63)" stroke="none" stroke-width="1px">35M</text><text x="250.59375" y="0" dx="0em" dy="0.95em" style="text-anchor: middle; visibility: inherit; font-family: Roboto, sans-serif; font-size: 12px; font-weight: 200;" fill="rgb(50, 49, 63)" stroke="none" stroke-width="1px">40M</text><text x="278.4375" y="0" dx="0em" dy="0.95em" style="text-anchor: middle; visibility: hidden; font-family: Roboto, sans-serif; font-size: 12px; font-weight: 200;" fill="rgb(50, 49, 63)" stroke="none" stroke-width="1px">45M</text></g><line x1="0" y1="0" x2="278.4375" y2="0" fill="rgb(0, 0, 0)" stroke="rgb(204, 204, 204)" stroke-width="1px"></line></g></g></g></g></svg>